<?xml version="1.0" encoding="utf-8" standalone="no"?>
<!DOCTYPE svg PUBLIC "-//W3C//DTD SVG 1.1//EN"
  "http://www.w3.org/Graphics/SVG/1.1/DTD/svg11.dtd">
<svg xmlns:xlink="http://www.w3.org/1999/xlink" width="1296pt" height="288pt" viewBox="0 0 1296 288" xmlns="http://www.w3.org/2000/svg" version="1.1">
 <metadata>
  <rdf:RDF xmlns:dc="http://purl.org/dc/elements/1.1/" xmlns:cc="http://creativecommons.org/ns#" xmlns:rdf="http://www.w3.org/1999/02/22-rdf-syntax-ns#">
   <cc:Work>
    <dc:type rdf:resource="http://purl.org/dc/dcmitype/StillImage"/>
    <dc:date>2024-03-30T12:52:24.804363</dc:date>
    <dc:format>image/svg+xml</dc:format>
    <dc:creator>
     <cc:Agent>
      <dc:title>Matplotlib v3.7.5, https://matplotlib.org/</dc:title>
     </cc:Agent>
    </dc:creator>
   </cc:Work>
  </rdf:RDF>
 </metadata>
 <defs>
  <style type="text/css">*{stroke-linejoin: round; stroke-linecap: butt}</style>
 </defs>
 <g id="figure_1">
  <g id="patch_1">
   <path d="M 0 288 
L 1296 288 
L 1296 0 
L 0 0 
z
" style="fill: #ffffff"/>
  </g>
  <g id="axes_1">
   <g id="patch_2">
    <path d="M 162 256.32 
L 1166.4 256.32 
L 1166.4 34.56 
L 162 34.56 
z
" style="fill: #ffffff"/>
   </g>
   <g id="patch_3">
    <path d="M 207.654545 256.32 
L 225.916364 256.32 
L 225.916364 255.863816 
L 207.654545 255.863816 
z
" clip-path="url(#pcea122995f)" style="fill: #ff7f0e; fill-opacity: 0.5; stroke: #000000; stroke-linejoin: miter"/>
   </g>
   <g id="patch_4">
    <path d="M 225.916364 256.32 
L 244.178182 256.32 
L 244.178182 256.024822 
L 225.916364 256.024822 
z
" clip-path="url(#pcea122995f)" style="fill: #ff7f0e; fill-opacity: 0.5; stroke: #000000; stroke-linejoin: miter"/>
   </g>
   <g id="patch_5">
    <path d="M 244.178182 256.32 
L 262.44 256.32 
L 262.44 254.334256 
L 244.178182 254.334256 
z
" clip-path="url(#pcea122995f)" style="fill: #ff7f0e; fill-opacity: 0.5; stroke: #000000; stroke-linejoin: miter"/>
   </g>
   <g id="patch_6">
    <path d="M 262.44 256.32 
L 280.701818 256.32 
L 280.701818 254.938029 
L 262.44 254.938029 
z
" clip-path="url(#pcea122995f)" style="fill: #ff7f0e; fill-opacity: 0.5; stroke: #000000; stroke-linejoin: miter"/>
   </g>
   <g id="patch_7">
    <path d="M 280.701818 256.32 
L 298.963636 256.32 
L 298.963636 251.717904 
L 280.701818 251.717904 
z
" clip-path="url(#pcea122995f)" style="fill: #ff7f0e; fill-opacity: 0.5; stroke: #000000; stroke-linejoin: miter"/>
   </g>
   <g id="patch_8">
    <path d="M 298.963636 256.32 
L 317.225455 256.32 
L 317.225455 253.260881 
L 298.963636 253.260881 
z
" clip-path="url(#pcea122995f)" style="fill: #ff7f0e; fill-opacity: 0.5; stroke: #000000; stroke-linejoin: miter"/>
   </g>
   <g id="patch_9">
    <path d="M 317.225455 256.32 
L 335.487273 256.32 
L 335.487273 248.833208 
L 317.225455 248.833208 
z
" clip-path="url(#pcea122995f)" style="fill: #ff7f0e; fill-opacity: 0.5; stroke: #000000; stroke-linejoin: miter"/>
   </g>
   <g id="patch_10">
    <path d="M 335.487273 256.32 
L 353.749091 256.32 
L 353.749091 249.208889 
L 335.487273 249.208889 
z
" clip-path="url(#pcea122995f)" style="fill: #ff7f0e; fill-opacity: 0.5; stroke: #000000; stroke-linejoin: miter"/>
   </g>
   <g id="patch_11">
    <path d="M 353.749091 256.32 
L 372.010909 256.32 
L 372.010909 242.647883 
L 353.749091 242.647883 
z
" clip-path="url(#pcea122995f)" style="fill: #ff7f0e; fill-opacity: 0.5; stroke: #000000; stroke-linejoin: miter"/>
   </g>
   <g id="patch_12">
    <path d="M 372.010909 256.32 
L 390.272727 256.32 
L 390.272727 248.470943 
L 372.010909 248.470943 
z
" clip-path="url(#pcea122995f)" style="fill: #ff7f0e; fill-opacity: 0.5; stroke: #000000; stroke-linejoin: miter"/>
   </g>
   <g id="patch_13">
    <path d="M 390.272727 256.32 
L 408.534545 256.32 
L 408.534545 237.160252 
L 390.272727 237.160252 
z
" clip-path="url(#pcea122995f)" style="fill: #ff7f0e; fill-opacity: 0.5; stroke: #000000; stroke-linejoin: miter"/>
   </g>
   <g id="patch_14">
    <path d="M 408.534545 256.32 
L 426.796364 256.32 
L 426.796364 241.13174 
L 408.534545 241.13174 
z
" clip-path="url(#pcea122995f)" style="fill: #ff7f0e; fill-opacity: 0.5; stroke: #000000; stroke-linejoin: miter"/>
   </g>
   <g id="patch_15">
    <path d="M 426.796364 256.32 
L 445.058182 256.32 
L 445.058182 228.532998 
L 426.796364 228.532998 
z
" clip-path="url(#pcea122995f)" style="fill: #ff7f0e; fill-opacity: 0.5; stroke: #000000; stroke-linejoin: miter"/>
   </g>
   <g id="patch_16">
    <path d="M 445.058182 256.32 
L 463.32 256.32 
L 463.32 240.232788 
L 445.058182 240.232788 
z
" clip-path="url(#pcea122995f)" style="fill: #ff7f0e; fill-opacity: 0.5; stroke: #000000; stroke-linejoin: miter"/>
   </g>
   <g id="patch_17">
    <path d="M 463.32 256.32 
L 481.581818 256.32 
L 481.581818 214.887715 
L 463.32 214.887715 
z
" clip-path="url(#pcea122995f)" style="fill: #ff7f0e; fill-opacity: 0.5; stroke: #000000; stroke-linejoin: miter"/>
   </g>
   <g id="patch_18">
    <path d="M 481.581818 256.32 
L 499.843636 256.32 
L 499.843636 238.139706 
L 481.581818 238.139706 
z
" clip-path="url(#pcea122995f)" style="fill: #ff7f0e; fill-opacity: 0.5; stroke: #000000; stroke-linejoin: miter"/>
   </g>
   <g id="patch_19">
    <path d="M 499.843636 256.32 
L 518.105455 256.32 
L 518.105455 214.310776 
L 499.843636 214.310776 
z
" clip-path="url(#pcea122995f)" style="fill: #ff7f0e; fill-opacity: 0.5; stroke: #000000; stroke-linejoin: miter"/>
   </g>
   <g id="patch_20">
    <path d="M 518.105455 256.32 
L 536.367273 256.32 
L 536.367273 237.777442 
L 518.105455 237.777442 
z
" clip-path="url(#pcea122995f)" style="fill: #ff7f0e; fill-opacity: 0.5; stroke: #000000; stroke-linejoin: miter"/>
   </g>
   <g id="patch_21">
    <path d="M 536.367273 256.32 
L 554.629091 256.32 
L 554.629091 210.191698 
L 536.367273 210.191698 
z
" clip-path="url(#pcea122995f)" style="fill: #ff7f0e; fill-opacity: 0.5; stroke: #000000; stroke-linejoin: miter"/>
   </g>
   <g id="patch_22">
    <path d="M 554.629091 256.32 
L 572.890909 256.32 
L 572.890909 237.750608 
L 554.629091 237.750608 
z
" clip-path="url(#pcea122995f)" style="fill: #ff7f0e; fill-opacity: 0.5; stroke: #000000; stroke-linejoin: miter"/>
   </g>
   <g id="patch_23">
    <path d="M 572.890909 256.32 
L 591.152727 256.32 
L 591.152727 220.603438 
L 572.890909 220.603438 
z
" clip-path="url(#pcea122995f)" style="fill: #ff7f0e; fill-opacity: 0.5; stroke: #000000; stroke-linejoin: miter"/>
   </g>
   <g id="patch_24">
    <path d="M 591.152727 256.32 
L 609.414545 256.32 
L 609.414545 242.138029 
L 591.152727 242.138029 
z
" clip-path="url(#pcea122995f)" style="fill: #ff7f0e; fill-opacity: 0.5; stroke: #000000; stroke-linejoin: miter"/>
   </g>
   <g id="patch_25">
    <path d="M 609.414545 256.32 
L 627.676364 256.32 
L 627.676364 225.60805 
L 609.414545 225.60805 
z
" clip-path="url(#pcea122995f)" style="fill: #ff7f0e; fill-opacity: 0.5; stroke: #000000; stroke-linejoin: miter"/>
   </g>
   <g id="patch_26">
    <path d="M 627.676364 256.32 
L 645.938182 256.32 
L 645.938182 248.940545 
L 627.676364 248.940545 
z
" clip-path="url(#pcea122995f)" style="fill: #ff7f0e; fill-opacity: 0.5; stroke: #000000; stroke-linejoin: miter"/>
   </g>
   <g id="patch_27">
    <path d="M 645.938182 256.32 
L 664.2 256.32 
L 664.2 245.465493 
L 645.938182 245.465493 
z
" clip-path="url(#pcea122995f)" style="fill: #ff7f0e; fill-opacity: 0.5; stroke: #000000; stroke-linejoin: miter"/>
   </g>
   <g id="patch_28">
    <path d="M 664.2 256.32 
L 682.461818 256.32 
L 682.461818 237.589602 
L 664.2 237.589602 
z
" clip-path="url(#pcea122995f)" style="fill: #ff7f0e; fill-opacity: 0.5; stroke: #000000; stroke-linejoin: miter"/>
   </g>
   <g id="patch_29">
    <path d="M 682.461818 256.32 
L 700.723636 256.32 
L 700.723636 249.262558 
L 682.461818 249.262558 
z
" clip-path="url(#pcea122995f)" style="fill: #ff7f0e; fill-opacity: 0.5; stroke: #000000; stroke-linejoin: miter"/>
   </g>
   <g id="patch_30">
    <path d="M 700.723636 256.32 
L 718.985455 256.32 
L 718.985455 245.599665 
L 700.723636 245.599665 
z
" clip-path="url(#pcea122995f)" style="fill: #ff7f0e; fill-opacity: 0.5; stroke: #000000; stroke-linejoin: miter"/>
   </g>
   <g id="patch_31">
    <path d="M 718.985455 256.32 
L 737.247273 256.32 
L 737.247273 251.047044 
L 718.985455 251.047044 
z
" clip-path="url(#pcea122995f)" style="fill: #ff7f0e; fill-opacity: 0.5; stroke: #000000; stroke-linejoin: miter"/>
   </g>
   <g id="patch_32">
    <path d="M 737.247273 256.32 
L 755.509091 256.32 
L 755.509091 249.208889 
L 737.247273 249.208889 
z
" clip-path="url(#pcea122995f)" style="fill: #ff7f0e; fill-opacity: 0.5; stroke: #000000; stroke-linejoin: miter"/>
   </g>
   <g id="patch_33">
    <path d="M 755.509091 256.32 
L 773.770909 256.32 
L 773.770909 253.770734 
L 755.509091 253.770734 
z
" clip-path="url(#pcea122995f)" style="fill: #ff7f0e; fill-opacity: 0.5; stroke: #000000; stroke-linejoin: miter"/>
   </g>
   <g id="patch_34">
    <path d="M 773.770909 256.32 
L 792.032727 256.32 
L 792.032727 253.690231 
L 773.770909 253.690231 
z
" clip-path="url(#pcea122995f)" style="fill: #ff7f0e; fill-opacity: 0.5; stroke: #000000; stroke-linejoin: miter"/>
   </g>
   <g id="patch_35">
    <path d="M 792.032727 256.32 
L 810.294545 256.32 
L 810.294545 255.394214 
L 792.032727 255.394214 
z
" clip-path="url(#pcea122995f)" style="fill: #ff7f0e; fill-opacity: 0.5; stroke: #000000; stroke-linejoin: miter"/>
   </g>
   <g id="patch_36">
    <path d="M 810.294545 256.32 
L 828.556364 256.32 
L 828.556364 254.683103 
L 810.294545 254.683103 
z
" clip-path="url(#pcea122995f)" style="fill: #ff7f0e; fill-opacity: 0.5; stroke: #000000; stroke-linejoin: miter"/>
   </g>
   <g id="patch_37">
    <path d="M 828.556364 256.32 
L 846.818182 256.32 
L 846.818182 256.051656 
L 828.556364 256.051656 
z
" clip-path="url(#pcea122995f)" style="fill: #ff7f0e; fill-opacity: 0.5; stroke: #000000; stroke-linejoin: miter"/>
   </g>
   <g id="patch_38">
    <path d="M 846.818182 256.32 
L 865.08 256.32 
L 865.08 255.112453 
L 846.818182 255.112453 
z
" clip-path="url(#pcea122995f)" style="fill: #ff7f0e; fill-opacity: 0.5; stroke: #000000; stroke-linejoin: miter"/>
   </g>
   <g id="patch_39">
    <path d="M 865.08 256.32 
L 883.341818 256.32 
L 883.341818 256.132159 
L 865.08 256.132159 
z
" clip-path="url(#pcea122995f)" style="fill: #ff7f0e; fill-opacity: 0.5; stroke: #000000; stroke-linejoin: miter"/>
   </g>
   <g id="patch_40">
    <path d="M 883.341818 256.32 
L 901.603636 256.32 
L 901.603636 256.091908 
L 883.341818 256.091908 
z
" clip-path="url(#pcea122995f)" style="fill: #ff7f0e; fill-opacity: 0.5; stroke: #000000; stroke-linejoin: miter"/>
   </g>
   <g id="patch_41">
    <path d="M 901.603636 256.32 
L 919.865455 256.32 
L 919.865455 256.266331 
L 901.603636 256.266331 
z
" clip-path="url(#pcea122995f)" style="fill: #ff7f0e; fill-opacity: 0.5; stroke: #000000; stroke-linejoin: miter"/>
   </g>
   <g id="patch_42">
    <path d="M 919.865455 256.32 
L 938.127273 256.32 
L 938.127273 256.293166 
L 919.865455 256.293166 
z
" clip-path="url(#pcea122995f)" style="fill: #ff7f0e; fill-opacity: 0.5; stroke: #000000; stroke-linejoin: miter"/>
   </g>
   <g id="patch_43">
    <path d="M 938.127273 256.32 
L 956.389091 256.32 
L 956.389091 256.306583 
L 938.127273 256.306583 
z
" clip-path="url(#pcea122995f)" style="fill: #ff7f0e; fill-opacity: 0.5; stroke: #000000; stroke-linejoin: miter"/>
   </g>
   <g id="patch_44">
    <path d="M 956.389091 256.32 
L 974.650909 256.32 
L 974.650909 256.306583 
L 956.389091 256.306583 
z
" clip-path="url(#pcea122995f)" style="fill: #ff7f0e; fill-opacity: 0.5; stroke: #000000; stroke-linejoin: miter"/>
   </g>
   <g id="patch_45">
    <path d="M 974.650909 256.32 
L 992.912727 256.32 
L 992.912727 256.279748 
L 974.650909 256.279748 
z
" clip-path="url(#pcea122995f)" style="fill: #ff7f0e; fill-opacity: 0.5; stroke: #000000; stroke-linejoin: miter"/>
   </g>
   <g id="patch_46">
    <path d="M 992.912727 256.32 
L 1011.174545 256.32 
L 1011.174545 256.293166 
L 992.912727 256.293166 
z
" clip-path="url(#pcea122995f)" style="fill: #ff7f0e; fill-opacity: 0.5; stroke: #000000; stroke-linejoin: miter"/>
   </g>
   <g id="patch_47">
    <path d="M 1011.174545 256.32 
L 1029.436364 256.32 
L 1029.436364 256.32 
L 1011.174545 256.32 
z
" clip-path="url(#pcea122995f)" style="fill: #ff7f0e; fill-opacity: 0.5; stroke: #000000; stroke-linejoin: miter"/>
   </g>
   <g id="patch_48">
    <path d="M 1029.436364 256.32 
L 1047.698182 256.32 
L 1047.698182 256.32 
L 1029.436364 256.32 
z
" clip-path="url(#pcea122995f)" style="fill: #ff7f0e; fill-opacity: 0.5; stroke: #000000; stroke-linejoin: miter"/>
   </g>
   <g id="patch_49">
    <path d="M 1047.698182 256.32 
L 1065.96 256.32 
L 1065.96 256.32 
L 1047.698182 256.32 
z
" clip-path="url(#pcea122995f)" style="fill: #ff7f0e; fill-opacity: 0.5; stroke: #000000; stroke-linejoin: miter"/>
   </g>
   <g id="patch_50">
    <path d="M 1065.96 256.32 
L 1084.221818 256.32 
L 1084.221818 256.32 
L 1065.96 256.32 
z
" clip-path="url(#pcea122995f)" style="fill: #ff7f0e; fill-opacity: 0.5; stroke: #000000; stroke-linejoin: miter"/>
   </g>
   <g id="patch_51">
    <path d="M 1084.221818 256.32 
L 1102.483636 256.32 
L 1102.483636 256.32 
L 1084.221818 256.32 
z
" clip-path="url(#pcea122995f)" style="fill: #ff7f0e; fill-opacity: 0.5; stroke: #000000; stroke-linejoin: miter"/>
   </g>
   <g id="patch_52">
    <path d="M 1102.483636 256.32 
L 1120.745455 256.32 
L 1120.745455 256.306583 
L 1102.483636 256.306583 
z
" clip-path="url(#pcea122995f)" style="fill: #ff7f0e; fill-opacity: 0.5; stroke: #000000; stroke-linejoin: miter"/>
   </g>
   <g id="patch_53">
    <path d="M 207.654545 256.32 
L 225.916364 256.32 
L 225.916364 252.321677 
L 207.654545 252.321677 
z
" clip-path="url(#pcea122995f)" style="fill: #1f77b4; fill-opacity: 0.5; stroke: #000000; stroke-linejoin: miter"/>
   </g>
   <g id="patch_54">
    <path d="M 225.916364 256.32 
L 244.178182 256.32 
L 244.178182 252.107002 
L 225.916364 252.107002 
z
" clip-path="url(#pcea122995f)" style="fill: #1f77b4; fill-opacity: 0.5; stroke: #000000; stroke-linejoin: miter"/>
   </g>
   <g id="patch_55">
    <path d="M 244.178182 256.32 
L 262.44 256.32 
L 262.44 237.831111 
L 244.178182 237.831111 
z
" clip-path="url(#pcea122995f)" style="fill: #1f77b4; fill-opacity: 0.5; stroke: #000000; stroke-linejoin: miter"/>
   </g>
   <g id="patch_56">
    <path d="M 262.44 256.32 
L 280.701818 256.32 
L 280.701818 241.977023 
L 262.44 241.977023 
z
" clip-path="url(#pcea122995f)" style="fill: #1f77b4; fill-opacity: 0.5; stroke: #000000; stroke-linejoin: miter"/>
   </g>
   <g id="patch_57">
    <path d="M 280.701818 256.32 
L 298.963636 256.32 
L 298.963636 210.916226 
L 280.701818 210.916226 
z
" clip-path="url(#pcea122995f)" style="fill: #1f77b4; fill-opacity: 0.5; stroke: #000000; stroke-linejoin: miter"/>
   </g>
   <g id="patch_58">
    <path d="M 298.963636 256.32 
L 317.225455 256.32 
L 317.225455 223.394214 
L 298.963636 223.394214 
z
" clip-path="url(#pcea122995f)" style="fill: #1f77b4; fill-opacity: 0.5; stroke: #000000; stroke-linejoin: miter"/>
   </g>
   <g id="patch_59">
    <path d="M 317.225455 256.32 
L 335.487273 256.32 
L 335.487273 165.592956 
L 317.225455 165.592956 
z
" clip-path="url(#pcea122995f)" style="fill: #1f77b4; fill-opacity: 0.5; stroke: #000000; stroke-linejoin: miter"/>
   </g>
   <g id="patch_60">
    <path d="M 335.487273 256.32 
L 353.749091 256.32 
L 353.749091 177.03782 
L 335.487273 177.03782 
z
" clip-path="url(#pcea122995f)" style="fill: #1f77b4; fill-opacity: 0.5; stroke: #000000; stroke-linejoin: miter"/>
   </g>
   <g id="patch_61">
    <path d="M 353.749091 256.32 
L 372.010909 256.32 
L 372.010909 103.24327 
L 353.749091 103.24327 
z
" clip-path="url(#pcea122995f)" style="fill: #1f77b4; fill-opacity: 0.5; stroke: #000000; stroke-linejoin: miter"/>
   </g>
   <g id="patch_62">
    <path d="M 372.010909 256.32 
L 390.272727 256.32 
L 390.272727 160.682264 
L 372.010909 160.682264 
z
" clip-path="url(#pcea122995f)" style="fill: #1f77b4; fill-opacity: 0.5; stroke: #000000; stroke-linejoin: miter"/>
   </g>
   <g id="patch_63">
    <path d="M 390.272727 256.32 
L 408.534545 256.32 
L 408.534545 47.494843 
L 390.272727 47.494843 
z
" clip-path="url(#pcea122995f)" style="fill: #1f77b4; fill-opacity: 0.5; stroke: #000000; stroke-linejoin: miter"/>
   </g>
   <g id="patch_64">
    <path d="M 408.534545 256.32 
L 426.796364 256.32 
L 426.796364 149.170314 
L 408.534545 149.170314 
z
" clip-path="url(#pcea122995f)" style="fill: #1f77b4; fill-opacity: 0.5; stroke: #000000; stroke-linejoin: miter"/>
   </g>
   <g id="patch_65">
    <path d="M 426.796364 256.32 
L 445.058182 256.32 
L 445.058182 45.12 
L 426.796364 45.12 
z
" clip-path="url(#pcea122995f)" style="fill: #1f77b4; fill-opacity: 0.5; stroke: #000000; stroke-linejoin: miter"/>
   </g>
   <g id="patch_66">
    <path d="M 445.058182 256.32 
L 463.32 256.32 
L 463.32 148.351866 
L 445.058182 148.351866 
z
" clip-path="url(#pcea122995f)" style="fill: #1f77b4; fill-opacity: 0.5; stroke: #000000; stroke-linejoin: miter"/>
   </g>
   <g id="patch_67">
    <path d="M 463.32 256.32 
L 481.581818 256.32 
L 481.581818 83.882264 
L 463.32 83.882264 
z
" clip-path="url(#pcea122995f)" style="fill: #1f77b4; fill-opacity: 0.5; stroke: #000000; stroke-linejoin: miter"/>
   </g>
   <g id="patch_68">
    <path d="M 481.581818 256.32 
L 499.843636 256.32 
L 499.843636 188.536352 
L 481.581818 188.536352 
z
" clip-path="url(#pcea122995f)" style="fill: #1f77b4; fill-opacity: 0.5; stroke: #000000; stroke-linejoin: miter"/>
   </g>
   <g id="patch_69">
    <path d="M 499.843636 256.32 
L 518.105455 256.32 
L 518.105455 163.177862 
L 499.843636 163.177862 
z
" clip-path="url(#pcea122995f)" style="fill: #1f77b4; fill-opacity: 0.5; stroke: #000000; stroke-linejoin: miter"/>
   </g>
   <g id="patch_70">
    <path d="M 518.105455 256.32 
L 536.367273 256.32 
L 536.367273 219.919161 
L 518.105455 219.919161 
z
" clip-path="url(#pcea122995f)" style="fill: #1f77b4; fill-opacity: 0.5; stroke: #000000; stroke-linejoin: miter"/>
   </g>
   <g id="patch_71">
    <path d="M 536.367273 256.32 
L 554.629091 256.32 
L 554.629091 203.751447 
L 536.367273 203.751447 
z
" clip-path="url(#pcea122995f)" style="fill: #1f77b4; fill-opacity: 0.5; stroke: #000000; stroke-linejoin: miter"/>
   </g>
   <g id="patch_72">
    <path d="M 554.629091 256.32 
L 572.890909 256.32 
L 572.890909 238.206792 
L 554.629091 238.206792 
z
" clip-path="url(#pcea122995f)" style="fill: #1f77b4; fill-opacity: 0.5; stroke: #000000; stroke-linejoin: miter"/>
   </g>
   <g id="patch_73">
    <path d="M 572.890909 256.32 
L 591.152727 256.32 
L 591.152727 229.539287 
L 572.890909 229.539287 
z
" clip-path="url(#pcea122995f)" style="fill: #1f77b4; fill-opacity: 0.5; stroke: #000000; stroke-linejoin: miter"/>
   </g>
   <g id="patch_74">
    <path d="M 591.152727 256.32 
L 609.414545 256.32 
L 609.414545 246.33761 
L 591.152727 246.33761 
z
" clip-path="url(#pcea122995f)" style="fill: #1f77b4; fill-opacity: 0.5; stroke: #000000; stroke-linejoin: miter"/>
   </g>
   <g id="patch_75">
    <path d="M 609.414545 256.32 
L 627.676364 256.32 
L 627.676364 240.849979 
L 609.414545 240.849979 
z
" clip-path="url(#pcea122995f)" style="fill: #1f77b4; fill-opacity: 0.5; stroke: #000000; stroke-linejoin: miter"/>
   </g>
   <g id="patch_76">
    <path d="M 627.676364 256.32 
L 645.938182 256.32 
L 645.938182 250.872621 
L 627.676364 250.872621 
z
" clip-path="url(#pcea122995f)" style="fill: #1f77b4; fill-opacity: 0.5; stroke: #000000; stroke-linejoin: miter"/>
   </g>
   <g id="patch_77">
    <path d="M 645.938182 256.32 
L 664.2 256.32 
L 664.2 250.376184 
L 645.938182 250.376184 
z
" clip-path="url(#pcea122995f)" style="fill: #1f77b4; fill-opacity: 0.5; stroke: #000000; stroke-linejoin: miter"/>
   </g>
   <g id="patch_78">
    <path d="M 664.2 256.32 
L 682.461818 256.32 
L 682.461818 246.914549 
L 664.2 246.914549 
z
" clip-path="url(#pcea122995f)" style="fill: #1f77b4; fill-opacity: 0.5; stroke: #000000; stroke-linejoin: miter"/>
   </g>
   <g id="patch_79">
    <path d="M 682.461818 256.32 
L 700.723636 256.32 
L 700.723636 250.148092 
L 682.461818 250.148092 
z
" clip-path="url(#pcea122995f)" style="fill: #1f77b4; fill-opacity: 0.5; stroke: #000000; stroke-linejoin: miter"/>
   </g>
   <g id="patch_80">
    <path d="M 700.723636 256.32 
L 718.985455 256.32 
L 718.985455 244.875136 
L 700.723636 244.875136 
z
" clip-path="url(#pcea122995f)" style="fill: #1f77b4; fill-opacity: 0.5; stroke: #000000; stroke-linejoin: miter"/>
   </g>
   <g id="patch_81">
    <path d="M 718.985455 256.32 
L 737.247273 256.32 
L 737.247273 251.852075 
L 718.985455 251.852075 
z
" clip-path="url(#pcea122995f)" style="fill: #1f77b4; fill-opacity: 0.5; stroke: #000000; stroke-linejoin: miter"/>
   </g>
   <g id="patch_82">
    <path d="M 737.247273 256.32 
L 755.509091 256.32 
L 755.509091 247.075556 
L 737.247273 247.075556 
z
" clip-path="url(#pcea122995f)" style="fill: #1f77b4; fill-opacity: 0.5; stroke: #000000; stroke-linejoin: miter"/>
   </g>
   <g id="patch_83">
    <path d="M 755.509091 256.32 
L 773.770909 256.32 
L 773.770909 253.046205 
L 755.509091 253.046205 
z
" clip-path="url(#pcea122995f)" style="fill: #1f77b4; fill-opacity: 0.5; stroke: #000000; stroke-linejoin: miter"/>
   </g>
   <g id="patch_84">
    <path d="M 773.770909 256.32 
L 792.032727 256.32 
L 792.032727 251.986247 
L 773.770909 251.986247 
z
" clip-path="url(#pcea122995f)" style="fill: #1f77b4; fill-opacity: 0.5; stroke: #000000; stroke-linejoin: miter"/>
   </g>
   <g id="patch_85">
    <path d="M 792.032727 256.32 
L 810.294545 256.32 
L 810.294545 252.120419 
L 792.032727 252.120419 
z
" clip-path="url(#pcea122995f)" style="fill: #1f77b4; fill-opacity: 0.5; stroke: #000000; stroke-linejoin: miter"/>
   </g>
   <g id="patch_86">
    <path d="M 810.294545 256.32 
L 828.556364 256.32 
L 828.556364 251.154382 
L 810.294545 251.154382 
z
" clip-path="url(#pcea122995f)" style="fill: #1f77b4; fill-opacity: 0.5; stroke: #000000; stroke-linejoin: miter"/>
   </g>
   <g id="patch_87">
    <path d="M 828.556364 256.32 
L 846.818182 256.32 
L 846.818182 254.803857 
L 828.556364 254.803857 
z
" clip-path="url(#pcea122995f)" style="fill: #1f77b4; fill-opacity: 0.5; stroke: #000000; stroke-linejoin: miter"/>
   </g>
   <g id="patch_88">
    <path d="M 846.818182 256.32 
L 865.08 256.32 
L 865.08 252.536352 
L 846.818182 252.536352 
z
" clip-path="url(#pcea122995f)" style="fill: #1f77b4; fill-opacity: 0.5; stroke: #000000; stroke-linejoin: miter"/>
   </g>
   <g id="patch_89">
    <path d="M 865.08 256.32 
L 883.341818 256.32 
L 883.341818 254.669686 
L 865.08 254.669686 
z
" clip-path="url(#pcea122995f)" style="fill: #1f77b4; fill-opacity: 0.5; stroke: #000000; stroke-linejoin: miter"/>
   </g>
   <g id="patch_90">
    <path d="M 883.341818 256.32 
L 901.603636 256.32 
L 901.603636 255.058784 
L 883.341818 255.058784 
z
" clip-path="url(#pcea122995f)" style="fill: #1f77b4; fill-opacity: 0.5; stroke: #000000; stroke-linejoin: miter"/>
   </g>
   <g id="patch_91">
    <path d="M 901.603636 256.32 
L 919.865455 256.32 
L 919.865455 255.743061 
L 901.603636 255.743061 
z
" clip-path="url(#pcea122995f)" style="fill: #1f77b4; fill-opacity: 0.5; stroke: #000000; stroke-linejoin: miter"/>
   </g>
   <g id="patch_92">
    <path d="M 919.865455 256.32 
L 938.127273 256.32 
L 938.127273 255.421048 
L 919.865455 255.421048 
z
" clip-path="url(#pcea122995f)" style="fill: #1f77b4; fill-opacity: 0.5; stroke: #000000; stroke-linejoin: miter"/>
   </g>
   <g id="patch_93">
    <path d="M 938.127273 256.32 
L 956.389091 256.32 
L 956.389091 256.212662 
L 938.127273 256.212662 
z
" clip-path="url(#pcea122995f)" style="fill: #1f77b4; fill-opacity: 0.5; stroke: #000000; stroke-linejoin: miter"/>
   </g>
   <g id="patch_94">
    <path d="M 956.389091 256.32 
L 974.650909 256.32 
L 974.650909 255.877233 
L 956.389091 255.877233 
z
" clip-path="url(#pcea122995f)" style="fill: #1f77b4; fill-opacity: 0.5; stroke: #000000; stroke-linejoin: miter"/>
   </g>
   <g id="patch_95">
    <path d="M 974.650909 256.32 
L 992.912727 256.32 
L 992.912727 256.158994 
L 974.650909 256.158994 
z
" clip-path="url(#pcea122995f)" style="fill: #1f77b4; fill-opacity: 0.5; stroke: #000000; stroke-linejoin: miter"/>
   </g>
   <g id="patch_96">
    <path d="M 992.912727 256.32 
L 1011.174545 256.32 
L 1011.174545 256.212662 
L 992.912727 256.212662 
z
" clip-path="url(#pcea122995f)" style="fill: #1f77b4; fill-opacity: 0.5; stroke: #000000; stroke-linejoin: miter"/>
   </g>
   <g id="patch_97">
    <path d="M 1011.174545 256.32 
L 1029.436364 256.32 
L 1029.436364 256.266331 
L 1011.174545 256.266331 
z
" clip-path="url(#pcea122995f)" style="fill: #1f77b4; fill-opacity: 0.5; stroke: #000000; stroke-linejoin: miter"/>
   </g>
   <g id="patch_98">
    <path d="M 1029.436364 256.32 
L 1047.698182 256.32 
L 1047.698182 256.279748 
L 1029.436364 256.279748 
z
" clip-path="url(#pcea122995f)" style="fill: #1f77b4; fill-opacity: 0.5; stroke: #000000; stroke-linejoin: miter"/>
   </g>
   <g id="patch_99">
    <path d="M 1047.698182 256.32 
L 1065.96 256.32 
L 1065.96 256.32 
L 1047.698182 256.32 
z
" clip-path="url(#pcea122995f)" style="fill: #1f77b4; fill-opacity: 0.5; stroke: #000000; stroke-linejoin: miter"/>
   </g>
   <g id="patch_100">
    <path d="M 1065.96 256.32 
L 1084.221818 256.32 
L 1084.221818 256.32 
L 1065.96 256.32 
z
" clip-path="url(#pcea122995f)" style="fill: #1f77b4; fill-opacity: 0.5; stroke: #000000; stroke-linejoin: miter"/>
   </g>
   <g id="patch_101">
    <path d="M 1084.221818 256.32 
L 1102.483636 256.32 
L 1102.483636 256.32 
L 1084.221818 256.32 
z
" clip-path="url(#pcea122995f)" style="fill: #1f77b4; fill-opacity: 0.5; stroke: #000000; stroke-linejoin: miter"/>
   </g>
   <g id="patch_102">
    <path d="M 1102.483636 256.32 
L 1120.745455 256.32 
L 1120.745455 256.185828 
L 1102.483636 256.185828 
z
" clip-path="url(#pcea122995f)" style="fill: #1f77b4; fill-opacity: 0.5; stroke: #000000; stroke-linejoin: miter"/>
   </g>
   <g id="matplotlib.axis_1">
    <g id="xtick_1">
     <g id="line2d_1">
      <defs>
       <path id="m953433bdff" d="M 0 0 
L 0 3.5 
" style="stroke: #000000; stroke-width: 0.8"/>
      </defs>
      <g>
       <use xlink:href="#m953433bdff" x="232.332678" y="256.32" style="stroke: #000000; stroke-width: 0.8"/>
      </g>
     </g>
     <g id="text_1">
      <!-- 20 -->
      <g transform="translate(225.970178 270.918437) scale(0.1 -0.1)">
       <defs>
        <path id="DejaVuSans-32" d="M 1228 531 
L 3431 531 
L 3431 0 
L 469 0 
L 469 531 
Q 828 903 1448 1529 
Q 2069 2156 2228 2338 
Q 2531 2678 2651 2914 
Q 2772 3150 2772 3378 
Q 2772 3750 2511 3984 
Q 2250 4219 1831 4219 
Q 1534 4219 1204 4116 
Q 875 4013 500 3803 
L 500 4441 
Q 881 4594 1212 4672 
Q 1544 4750 1819 4750 
Q 2544 4750 2975 4387 
Q 3406 4025 3406 3419 
Q 3406 3131 3298 2873 
Q 3191 2616 2906 2266 
Q 2828 2175 2409 1742 
Q 1991 1309 1228 531 
z
" transform="scale(0.015625)"/>
        <path id="DejaVuSans-30" d="M 2034 4250 
Q 1547 4250 1301 3770 
Q 1056 3291 1056 2328 
Q 1056 1369 1301 889 
Q 1547 409 2034 409 
Q 2525 409 2770 889 
Q 3016 1369 3016 2328 
Q 3016 3291 2770 3770 
Q 2525 4250 2034 4250 
z
M 2034 4750 
Q 2819 4750 3233 4129 
Q 3647 3509 3647 2328 
Q 3647 1150 3233 529 
Q 2819 -91 2034 -91 
Q 1250 -91 836 529 
Q 422 1150 422 2328 
Q 422 3509 836 4129 
Q 1250 4750 2034 4750 
z
" transform="scale(0.015625)"/>
       </defs>
       <use xlink:href="#DejaVuSans-32"/>
       <use xlink:href="#DejaVuSans-30" x="63.623047"/>
      </g>
     </g>
    </g>
    <g id="xtick_2">
     <g id="line2d_2">
      <g>
       <use xlink:href="#m953433bdff" x="355.723342" y="256.32" style="stroke: #000000; stroke-width: 0.8"/>
      </g>
     </g>
     <g id="text_2">
      <!-- 30 -->
      <g transform="translate(349.360842 270.918437) scale(0.1 -0.1)">
       <defs>
        <path id="DejaVuSans-33" d="M 2597 2516 
Q 3050 2419 3304 2112 
Q 3559 1806 3559 1356 
Q 3559 666 3084 287 
Q 2609 -91 1734 -91 
Q 1441 -91 1130 -33 
Q 819 25 488 141 
L 488 750 
Q 750 597 1062 519 
Q 1375 441 1716 441 
Q 2309 441 2620 675 
Q 2931 909 2931 1356 
Q 2931 1769 2642 2001 
Q 2353 2234 1838 2234 
L 1294 2234 
L 1294 2753 
L 1863 2753 
Q 2328 2753 2575 2939 
Q 2822 3125 2822 3475 
Q 2822 3834 2567 4026 
Q 2313 4219 1838 4219 
Q 1578 4219 1281 4162 
Q 984 4106 628 3988 
L 628 4550 
Q 988 4650 1302 4700 
Q 1616 4750 1894 4750 
Q 2613 4750 3031 4423 
Q 3450 4097 3450 3541 
Q 3450 3153 3228 2886 
Q 3006 2619 2597 2516 
z
" transform="scale(0.015625)"/>
       </defs>
       <use xlink:href="#DejaVuSans-33"/>
       <use xlink:href="#DejaVuSans-30" x="63.623047"/>
      </g>
     </g>
    </g>
    <g id="xtick_3">
     <g id="line2d_3">
      <g>
       <use xlink:href="#m953433bdff" x="479.114005" y="256.32" style="stroke: #000000; stroke-width: 0.8"/>
      </g>
     </g>
     <g id="text_3">
      <!-- 40 -->
      <g transform="translate(472.751505 270.918437) scale(0.1 -0.1)">
       <defs>
        <path id="DejaVuSans-34" d="M 2419 4116 
L 825 1625 
L 2419 1625 
L 2419 4116 
z
M 2253 4666 
L 3047 4666 
L 3047 1625 
L 3713 1625 
L 3713 1100 
L 3047 1100 
L 3047 0 
L 2419 0 
L 2419 1100 
L 313 1100 
L 313 1709 
L 2253 4666 
z
" transform="scale(0.015625)"/>
       </defs>
       <use xlink:href="#DejaVuSans-34"/>
       <use xlink:href="#DejaVuSans-30" x="63.623047"/>
      </g>
     </g>
    </g>
    <g id="xtick_4">
     <g id="line2d_4">
      <g>
       <use xlink:href="#m953433bdff" x="602.504668" y="256.32" style="stroke: #000000; stroke-width: 0.8"/>
      </g>
     </g>
     <g id="text_4">
      <!-- 50 -->
      <g transform="translate(596.142168 270.918437) scale(0.1 -0.1)">
       <defs>
        <path id="DejaVuSans-35" d="M 691 4666 
L 3169 4666 
L 3169 4134 
L 1269 4134 
L 1269 2991 
Q 1406 3038 1543 3061 
Q 1681 3084 1819 3084 
Q 2600 3084 3056 2656 
Q 3513 2228 3513 1497 
Q 3513 744 3044 326 
Q 2575 -91 1722 -91 
Q 1428 -91 1123 -41 
Q 819 9 494 109 
L 494 744 
Q 775 591 1075 516 
Q 1375 441 1709 441 
Q 2250 441 2565 725 
Q 2881 1009 2881 1497 
Q 2881 1984 2565 2268 
Q 2250 2553 1709 2553 
Q 1456 2553 1204 2497 
Q 953 2441 691 2322 
L 691 4666 
z
" transform="scale(0.015625)"/>
       </defs>
       <use xlink:href="#DejaVuSans-35"/>
       <use xlink:href="#DejaVuSans-30" x="63.623047"/>
      </g>
     </g>
    </g>
    <g id="xtick_5">
     <g id="line2d_5">
      <g>
       <use xlink:href="#m953433bdff" x="725.895332" y="256.32" style="stroke: #000000; stroke-width: 0.8"/>
      </g>
     </g>
     <g id="text_5">
      <!-- 60 -->
      <g transform="translate(719.532832 270.918437) scale(0.1 -0.1)">
       <defs>
        <path id="DejaVuSans-36" d="M 2113 2584 
Q 1688 2584 1439 2293 
Q 1191 2003 1191 1497 
Q 1191 994 1439 701 
Q 1688 409 2113 409 
Q 2538 409 2786 701 
Q 3034 994 3034 1497 
Q 3034 2003 2786 2293 
Q 2538 2584 2113 2584 
z
M 3366 4563 
L 3366 3988 
Q 3128 4100 2886 4159 
Q 2644 4219 2406 4219 
Q 1781 4219 1451 3797 
Q 1122 3375 1075 2522 
Q 1259 2794 1537 2939 
Q 1816 3084 2150 3084 
Q 2853 3084 3261 2657 
Q 3669 2231 3669 1497 
Q 3669 778 3244 343 
Q 2819 -91 2113 -91 
Q 1303 -91 875 529 
Q 447 1150 447 2328 
Q 447 3434 972 4092 
Q 1497 4750 2381 4750 
Q 2619 4750 2861 4703 
Q 3103 4656 3366 4563 
z
" transform="scale(0.015625)"/>
       </defs>
       <use xlink:href="#DejaVuSans-36"/>
       <use xlink:href="#DejaVuSans-30" x="63.623047"/>
      </g>
     </g>
    </g>
    <g id="xtick_6">
     <g id="line2d_6">
      <g>
       <use xlink:href="#m953433bdff" x="849.285995" y="256.32" style="stroke: #000000; stroke-width: 0.8"/>
      </g>
     </g>
     <g id="text_6">
      <!-- 70 -->
      <g transform="translate(842.923495 270.918437) scale(0.1 -0.1)">
       <defs>
        <path id="DejaVuSans-37" d="M 525 4666 
L 3525 4666 
L 3525 4397 
L 1831 0 
L 1172 0 
L 2766 4134 
L 525 4134 
L 525 4666 
z
" transform="scale(0.015625)"/>
       </defs>
       <use xlink:href="#DejaVuSans-37"/>
       <use xlink:href="#DejaVuSans-30" x="63.623047"/>
      </g>
     </g>
    </g>
    <g id="xtick_7">
     <g id="line2d_7">
      <g>
       <use xlink:href="#m953433bdff" x="972.676658" y="256.32" style="stroke: #000000; stroke-width: 0.8"/>
      </g>
     </g>
     <g id="text_7">
      <!-- 80 -->
      <g transform="translate(966.314158 270.918437) scale(0.1 -0.1)">
       <defs>
        <path id="DejaVuSans-38" d="M 2034 2216 
Q 1584 2216 1326 1975 
Q 1069 1734 1069 1313 
Q 1069 891 1326 650 
Q 1584 409 2034 409 
Q 2484 409 2743 651 
Q 3003 894 3003 1313 
Q 3003 1734 2745 1975 
Q 2488 2216 2034 2216 
z
M 1403 2484 
Q 997 2584 770 2862 
Q 544 3141 544 3541 
Q 544 4100 942 4425 
Q 1341 4750 2034 4750 
Q 2731 4750 3128 4425 
Q 3525 4100 3525 3541 
Q 3525 3141 3298 2862 
Q 3072 2584 2669 2484 
Q 3125 2378 3379 2068 
Q 3634 1759 3634 1313 
Q 3634 634 3220 271 
Q 2806 -91 2034 -91 
Q 1263 -91 848 271 
Q 434 634 434 1313 
Q 434 1759 690 2068 
Q 947 2378 1403 2484 
z
M 1172 3481 
Q 1172 3119 1398 2916 
Q 1625 2713 2034 2713 
Q 2441 2713 2670 2916 
Q 2900 3119 2900 3481 
Q 2900 3844 2670 4047 
Q 2441 4250 2034 4250 
Q 1625 4250 1398 4047 
Q 1172 3844 1172 3481 
z
" transform="scale(0.015625)"/>
       </defs>
       <use xlink:href="#DejaVuSans-38"/>
       <use xlink:href="#DejaVuSans-30" x="63.623047"/>
      </g>
     </g>
    </g>
    <g id="xtick_8">
     <g id="line2d_8">
      <g>
       <use xlink:href="#m953433bdff" x="1096.067322" y="256.32" style="stroke: #000000; stroke-width: 0.8"/>
      </g>
     </g>
     <g id="text_8">
      <!-- 90 -->
      <g transform="translate(1089.704822 270.918437) scale(0.1 -0.1)">
       <defs>
        <path id="DejaVuSans-39" d="M 703 97 
L 703 672 
Q 941 559 1184 500 
Q 1428 441 1663 441 
Q 2288 441 2617 861 
Q 2947 1281 2994 2138 
Q 2813 1869 2534 1725 
Q 2256 1581 1919 1581 
Q 1219 1581 811 2004 
Q 403 2428 403 3163 
Q 403 3881 828 4315 
Q 1253 4750 1959 4750 
Q 2769 4750 3195 4129 
Q 3622 3509 3622 2328 
Q 3622 1225 3098 567 
Q 2575 -91 1691 -91 
Q 1453 -91 1209 -44 
Q 966 3 703 97 
z
M 1959 2075 
Q 2384 2075 2632 2365 
Q 2881 2656 2881 3163 
Q 2881 3666 2632 3958 
Q 2384 4250 1959 4250 
Q 1534 4250 1286 3958 
Q 1038 3666 1038 3163 
Q 1038 2656 1286 2365 
Q 1534 2075 1959 2075 
z
" transform="scale(0.015625)"/>
       </defs>
       <use xlink:href="#DejaVuSans-39"/>
       <use xlink:href="#DejaVuSans-30" x="63.623047"/>
      </g>
     </g>
    </g>
    <g id="text_9">
     <!-- Age -->
     <g transform="translate(654.528906 284.596563) scale(0.1 -0.1)">
      <defs>
       <path id="DejaVuSans-41" d="M 2188 4044 
L 1331 1722 
L 3047 1722 
L 2188 4044 
z
M 1831 4666 
L 2547 4666 
L 4325 0 
L 3669 0 
L 3244 1197 
L 1141 1197 
L 716 0 
L 50 0 
L 1831 4666 
z
" transform="scale(0.015625)"/>
       <path id="DejaVuSans-67" d="M 2906 1791 
Q 2906 2416 2648 2759 
Q 2391 3103 1925 3103 
Q 1463 3103 1205 2759 
Q 947 2416 947 1791 
Q 947 1169 1205 825 
Q 1463 481 1925 481 
Q 2391 481 2648 825 
Q 2906 1169 2906 1791 
z
M 3481 434 
Q 3481 -459 3084 -895 
Q 2688 -1331 1869 -1331 
Q 1566 -1331 1297 -1286 
Q 1028 -1241 775 -1147 
L 775 -588 
Q 1028 -725 1275 -790 
Q 1522 -856 1778 -856 
Q 2344 -856 2625 -561 
Q 2906 -266 2906 331 
L 2906 616 
Q 2728 306 2450 153 
Q 2172 0 1784 0 
Q 1141 0 747 490 
Q 353 981 353 1791 
Q 353 2603 747 3093 
Q 1141 3584 1784 3584 
Q 2172 3584 2450 3431 
Q 2728 3278 2906 2969 
L 2906 3500 
L 3481 3500 
L 3481 434 
z
" transform="scale(0.015625)"/>
       <path id="DejaVuSans-65" d="M 3597 1894 
L 3597 1613 
L 953 1613 
Q 991 1019 1311 708 
Q 1631 397 2203 397 
Q 2534 397 2845 478 
Q 3156 559 3463 722 
L 3463 178 
Q 3153 47 2828 -22 
Q 2503 -91 2169 -91 
Q 1331 -91 842 396 
Q 353 884 353 1716 
Q 353 2575 817 3079 
Q 1281 3584 2069 3584 
Q 2775 3584 3186 3129 
Q 3597 2675 3597 1894 
z
M 3022 2063 
Q 3016 2534 2758 2815 
Q 2500 3097 2075 3097 
Q 1594 3097 1305 2825 
Q 1016 2553 972 2059 
L 3022 2063 
z
" transform="scale(0.015625)"/>
      </defs>
      <use xlink:href="#DejaVuSans-41"/>
      <use xlink:href="#DejaVuSans-67" x="68.408203"/>
      <use xlink:href="#DejaVuSans-65" x="131.884766"/>
     </g>
    </g>
   </g>
   <g id="matplotlib.axis_2">
    <g id="ytick_1">
     <g id="line2d_9">
      <defs>
       <path id="m5f3cd93930" d="M 0 0 
L -3.5 0 
" style="stroke: #000000; stroke-width: 0.8"/>
      </defs>
      <g>
       <use xlink:href="#m5f3cd93930" x="162" y="256.32" style="stroke: #000000; stroke-width: 0.8"/>
      </g>
     </g>
     <g id="text_10">
      <!-- 0 -->
      <g transform="translate(148.6375 260.119219) scale(0.1 -0.1)">
       <use xlink:href="#DejaVuSans-30"/>
      </g>
     </g>
    </g>
    <g id="ytick_2">
     <g id="line2d_10">
      <g>
       <use xlink:href="#m5f3cd93930" x="162" y="229.485618" style="stroke: #000000; stroke-width: 0.8"/>
      </g>
     </g>
     <g id="text_11">
      <!-- 2000 -->
      <g transform="translate(129.55 233.284837) scale(0.1 -0.1)">
       <use xlink:href="#DejaVuSans-32"/>
       <use xlink:href="#DejaVuSans-30" x="63.623047"/>
       <use xlink:href="#DejaVuSans-30" x="127.246094"/>
       <use xlink:href="#DejaVuSans-30" x="190.869141"/>
      </g>
     </g>
    </g>
    <g id="ytick_3">
     <g id="line2d_11">
      <g>
       <use xlink:href="#m5f3cd93930" x="162" y="202.651237" style="stroke: #000000; stroke-width: 0.8"/>
      </g>
     </g>
     <g id="text_12">
      <!-- 4000 -->
      <g transform="translate(129.55 206.450456) scale(0.1 -0.1)">
       <use xlink:href="#DejaVuSans-34"/>
       <use xlink:href="#DejaVuSans-30" x="63.623047"/>
       <use xlink:href="#DejaVuSans-30" x="127.246094"/>
       <use xlink:href="#DejaVuSans-30" x="190.869141"/>
      </g>
     </g>
    </g>
    <g id="ytick_4">
     <g id="line2d_12">
      <g>
       <use xlink:href="#m5f3cd93930" x="162" y="175.816855" style="stroke: #000000; stroke-width: 0.8"/>
      </g>
     </g>
     <g id="text_13">
      <!-- 6000 -->
      <g transform="translate(129.55 179.616074) scale(0.1 -0.1)">
       <use xlink:href="#DejaVuSans-36"/>
       <use xlink:href="#DejaVuSans-30" x="63.623047"/>
       <use xlink:href="#DejaVuSans-30" x="127.246094"/>
       <use xlink:href="#DejaVuSans-30" x="190.869141"/>
      </g>
     </g>
    </g>
    <g id="ytick_5">
     <g id="line2d_13">
      <g>
       <use xlink:href="#m5f3cd93930" x="162" y="148.982474" style="stroke: #000000; stroke-width: 0.8"/>
      </g>
     </g>
     <g id="text_14">
      <!-- 8000 -->
      <g transform="translate(129.55 152.781693) scale(0.1 -0.1)">
       <use xlink:href="#DejaVuSans-38"/>
       <use xlink:href="#DejaVuSans-30" x="63.623047"/>
       <use xlink:href="#DejaVuSans-30" x="127.246094"/>
       <use xlink:href="#DejaVuSans-30" x="190.869141"/>
      </g>
     </g>
    </g>
    <g id="ytick_6">
     <g id="line2d_14">
      <g>
       <use xlink:href="#m5f3cd93930" x="162" y="122.148092" style="stroke: #000000; stroke-width: 0.8"/>
      </g>
     </g>
     <g id="text_15">
      <!-- 10000 -->
      <g transform="translate(123.1875 125.947311) scale(0.1 -0.1)">
       <defs>
        <path id="DejaVuSans-31" d="M 794 531 
L 1825 531 
L 1825 4091 
L 703 3866 
L 703 4441 
L 1819 4666 
L 2450 4666 
L 2450 531 
L 3481 531 
L 3481 0 
L 794 0 
L 794 531 
z
" transform="scale(0.015625)"/>
       </defs>
       <use xlink:href="#DejaVuSans-31"/>
       <use xlink:href="#DejaVuSans-30" x="63.623047"/>
       <use xlink:href="#DejaVuSans-30" x="127.246094"/>
       <use xlink:href="#DejaVuSans-30" x="190.869141"/>
       <use xlink:href="#DejaVuSans-30" x="254.492188"/>
      </g>
     </g>
    </g>
    <g id="ytick_7">
     <g id="line2d_15">
      <g>
       <use xlink:href="#m5f3cd93930" x="162" y="95.313711" style="stroke: #000000; stroke-width: 0.8"/>
      </g>
     </g>
     <g id="text_16">
      <!-- 12000 -->
      <g transform="translate(123.1875 99.112929) scale(0.1 -0.1)">
       <use xlink:href="#DejaVuSans-31"/>
       <use xlink:href="#DejaVuSans-32" x="63.623047"/>
       <use xlink:href="#DejaVuSans-30" x="127.246094"/>
       <use xlink:href="#DejaVuSans-30" x="190.869141"/>
       <use xlink:href="#DejaVuSans-30" x="254.492188"/>
      </g>
     </g>
    </g>
    <g id="ytick_8">
     <g id="line2d_16">
      <g>
       <use xlink:href="#m5f3cd93930" x="162" y="68.479329" style="stroke: #000000; stroke-width: 0.8"/>
      </g>
     </g>
     <g id="text_17">
      <!-- 14000 -->
      <g transform="translate(123.1875 72.278548) scale(0.1 -0.1)">
       <use xlink:href="#DejaVuSans-31"/>
       <use xlink:href="#DejaVuSans-34" x="63.623047"/>
       <use xlink:href="#DejaVuSans-30" x="127.246094"/>
       <use xlink:href="#DejaVuSans-30" x="190.869141"/>
       <use xlink:href="#DejaVuSans-30" x="254.492188"/>
      </g>
     </g>
    </g>
    <g id="ytick_9">
     <g id="line2d_17">
      <g>
       <use xlink:href="#m5f3cd93930" x="162" y="41.644948" style="stroke: #000000; stroke-width: 0.8"/>
      </g>
     </g>
     <g id="text_18">
      <!-- 16000 -->
      <g transform="translate(123.1875 45.444166) scale(0.1 -0.1)">
       <use xlink:href="#DejaVuSans-31"/>
       <use xlink:href="#DejaVuSans-36" x="63.623047"/>
       <use xlink:href="#DejaVuSans-30" x="127.246094"/>
       <use xlink:href="#DejaVuSans-30" x="190.869141"/>
       <use xlink:href="#DejaVuSans-30" x="254.492188"/>
      </g>
     </g>
    </g>
    <g id="text_19">
     <!-- Count -->
     <g transform="translate(117.107812 160.288437) rotate(-90) scale(0.1 -0.1)">
      <defs>
       <path id="DejaVuSans-43" d="M 4122 4306 
L 4122 3641 
Q 3803 3938 3442 4084 
Q 3081 4231 2675 4231 
Q 1875 4231 1450 3742 
Q 1025 3253 1025 2328 
Q 1025 1406 1450 917 
Q 1875 428 2675 428 
Q 3081 428 3442 575 
Q 3803 722 4122 1019 
L 4122 359 
Q 3791 134 3420 21 
Q 3050 -91 2638 -91 
Q 1578 -91 968 557 
Q 359 1206 359 2328 
Q 359 3453 968 4101 
Q 1578 4750 2638 4750 
Q 3056 4750 3426 4639 
Q 3797 4528 4122 4306 
z
" transform="scale(0.015625)"/>
       <path id="DejaVuSans-6f" d="M 1959 3097 
Q 1497 3097 1228 2736 
Q 959 2375 959 1747 
Q 959 1119 1226 758 
Q 1494 397 1959 397 
Q 2419 397 2687 759 
Q 2956 1122 2956 1747 
Q 2956 2369 2687 2733 
Q 2419 3097 1959 3097 
z
M 1959 3584 
Q 2709 3584 3137 3096 
Q 3566 2609 3566 1747 
Q 3566 888 3137 398 
Q 2709 -91 1959 -91 
Q 1206 -91 779 398 
Q 353 888 353 1747 
Q 353 2609 779 3096 
Q 1206 3584 1959 3584 
z
" transform="scale(0.015625)"/>
       <path id="DejaVuSans-75" d="M 544 1381 
L 544 3500 
L 1119 3500 
L 1119 1403 
Q 1119 906 1312 657 
Q 1506 409 1894 409 
Q 2359 409 2629 706 
Q 2900 1003 2900 1516 
L 2900 3500 
L 3475 3500 
L 3475 0 
L 2900 0 
L 2900 538 
Q 2691 219 2414 64 
Q 2138 -91 1772 -91 
Q 1169 -91 856 284 
Q 544 659 544 1381 
z
M 1991 3584 
L 1991 3584 
z
" transform="scale(0.015625)"/>
       <path id="DejaVuSans-6e" d="M 3513 2113 
L 3513 0 
L 2938 0 
L 2938 2094 
Q 2938 2591 2744 2837 
Q 2550 3084 2163 3084 
Q 1697 3084 1428 2787 
Q 1159 2491 1159 1978 
L 1159 0 
L 581 0 
L 581 3500 
L 1159 3500 
L 1159 2956 
Q 1366 3272 1645 3428 
Q 1925 3584 2291 3584 
Q 2894 3584 3203 3211 
Q 3513 2838 3513 2113 
z
" transform="scale(0.015625)"/>
       <path id="DejaVuSans-74" d="M 1172 4494 
L 1172 3500 
L 2356 3500 
L 2356 3053 
L 1172 3053 
L 1172 1153 
Q 1172 725 1289 603 
Q 1406 481 1766 481 
L 2356 481 
L 2356 0 
L 1766 0 
Q 1100 0 847 248 
Q 594 497 594 1153 
L 594 3053 
L 172 3053 
L 172 3500 
L 594 3500 
L 594 4494 
L 1172 4494 
z
" transform="scale(0.015625)"/>
      </defs>
      <use xlink:href="#DejaVuSans-43"/>
      <use xlink:href="#DejaVuSans-6f" x="69.824219"/>
      <use xlink:href="#DejaVuSans-75" x="131.005859"/>
      <use xlink:href="#DejaVuSans-6e" x="194.384766"/>
      <use xlink:href="#DejaVuSans-74" x="257.763672"/>
     </g>
    </g>
   </g>
   <g id="line2d_18">
    <path d="M 207.654545 256.082555 
L 230.596528 255.771462 
L 239.773321 255.467778 
L 253.538511 254.713733 
L 276.480493 253.423658 
L 308.599269 251.970407 
L 317.776062 251.125263 
L 326.952855 249.879338 
L 336.129648 248.48737 
L 345.306441 247.370206 
L 368.248424 245.133286 
L 395.778803 241.663282 
L 400.3672 241.008526 
L 404.955596 240.228454 
L 423.309182 236.706968 
L 432.485975 235.48352 
L 441.662768 234.241702 
L 446.251165 233.465422 
L 450.839561 232.5568 
L 460.016354 230.402825 
L 469.193148 228.245541 
L 473.781544 227.457481 
L 478.369941 227.001542 
L 482.958337 226.883355 
L 496.723527 227.21695 
L 501.311923 227.039545 
L 519.665509 225.559161 
L 533.430699 225.102317 
L 547.195889 224.278008 
L 551.784285 224.367111 
L 556.372682 224.797071 
L 560.961078 225.526678 
L 570.137871 227.433772 
L 583.903061 230.298202 
L 593.079854 232.006962 
L 597.66825 232.713287 
L 606.845043 233.761326 
L 611.43344 234.22825 
L 616.021836 234.810785 
L 620.610233 235.610913 
L 625.19863 236.655561 
L 634.375423 239.100038 
L 638.963819 240.173806 
L 643.552216 240.977661 
L 648.140612 241.497276 
L 657.317405 242.022158 
L 666.494198 242.55539 
L 671.082595 242.983794 
L 675.670991 243.54689 
L 684.847784 245.011398 
L 694.024577 246.551899 
L 698.612974 247.169467 
L 703.20137 247.632194 
L 712.378164 248.206607 
L 721.554957 248.741104 
L 730.73175 249.535388 
L 749.085336 251.309384 
L 781.204111 254.091753 
L 790.380905 254.586492 
L 799.557698 254.844908 
L 822.49968 255.325615 
L 836.26487 255.62369 
L 850.030059 255.633489 
L 863.795249 255.643685 
L 909.679214 256.218684 
L 955.56318 256.30735 
L 1120.745455 256.312872 
L 1120.745455 256.312872 
" clip-path="url(#pcea122995f)" style="fill: none; stroke: #ff7f0e; stroke-width: 1.5; stroke-linecap: square"/>
   </g>
   <g id="line2d_19">
    <path d="M 207.654545 254.288364 
L 216.831339 252.818812 
L 221.419735 251.988293 
L 226.008132 251.031556 
L 230.596528 249.885308 
L 235.184925 248.510322 
L 239.773321 246.922818 
L 248.950114 243.377345 
L 258.126907 239.624568 
L 262.715304 237.647774 
L 267.3037 235.5244 
L 271.892097 233.175492 
L 276.480493 230.524137 
L 281.06889 227.523563 
L 285.657286 224.189222 
L 299.422476 213.474182 
L 308.599269 206.834825 
L 313.187666 203.068411 
L 317.776062 198.069071 
L 322.364459 191.234798 
L 326.952855 182.543239 
L 336.129648 163.10712 
L 340.718045 155.514317 
L 345.306441 151.107548 
L 349.894838 149.229349 
L 354.483234 147.54387 
L 359.071631 143.915502 
L 363.660027 138.017886 
L 368.248424 131.122755 
L 372.83682 124.654024 
L 377.425217 119.231268 
L 382.013614 114.799518 
L 386.60201 111.033859 
L 391.190407 107.628148 
L 395.778803 104.492352 
L 400.3672 101.772956 
L 404.955596 99.791444 
L 409.543993 98.828395 
L 414.132389 98.887371 
L 418.720786 99.696323 
L 423.309182 100.696195 
L 427.897579 101.146307 
L 432.485975 100.595095 
L 437.074372 99.280697 
L 441.662768 98.097949 
L 446.251165 98.133108 
L 450.839561 100.177028 
L 455.427958 104.512755 
L 460.016354 110.663304 
L 464.604751 117.434979 
L 469.193148 123.737708 
L 478.369941 135.086313 
L 482.958337 141.634478 
L 487.546734 149.248757 
L 496.723527 165.976972 
L 501.311923 173.87893 
L 505.90032 180.81714 
L 510.488716 186.656768 
L 515.077113 191.553252 
L 519.665509 195.837526 
L 533.430699 207.947038 
L 538.019095 211.674888 
L 542.607492 214.773407 
L 547.195889 217.286958 
L 551.784285 219.639035 
L 556.372682 222.252823 
L 565.549475 228.092197 
L 570.137871 230.706718 
L 574.726268 232.899244 
L 579.314664 234.723445 
L 583.903061 236.286515 
L 588.491457 237.671669 
L 593.079854 238.921942 
L 597.66825 240.040018 
L 606.845043 241.887857 
L 616.021836 243.707945 
L 625.19863 245.82322 
L 629.787026 246.708948 
L 634.375423 247.331571 
L 638.963819 247.680791 
L 648.140612 247.845397 
L 652.729009 247.892873 
L 657.317405 248.052208 
L 666.494198 248.741963 
L 671.082595 249.076759 
L 675.670991 249.168681 
L 680.259388 248.923057 
L 689.436181 247.945991 
L 694.024577 247.633807 
L 698.612974 247.562894 
L 703.20137 247.70126 
L 712.378164 248.351485 
L 721.554957 249.087249 
L 726.143353 249.344799 
L 735.320146 249.549007 
L 744.496939 249.658061 
L 749.085336 249.848591 
L 758.262129 250.570896 
L 776.615715 252.197044 
L 781.204111 252.707946 
L 785.792508 252.959893 
L 790.380905 252.723912 
L 804.146094 250.776878 
L 808.734491 250.789532 
L 813.322887 251.36428 
L 822.49968 253.331027 
L 827.088077 254.051634 
L 831.676473 254.402654 
L 840.853266 254.521666 
L 845.441663 254.42485 
L 850.030059 254.141546 
L 859.206852 253.262982 
L 863.795249 253.095809 
L 868.383646 253.28001 
L 877.560439 254.260407 
L 882.148835 254.740049 
L 886.737232 255.072948 
L 895.914025 255.3027 
L 914.267611 255.511696 
L 955.56318 256.022723 
L 983.093559 256.083474 
L 1019.800731 256.254834 
L 1120.745455 256.217518 
L 1120.745455 256.217518 
" clip-path="url(#pcea122995f)" style="fill: none; stroke: #1f77b4; stroke-width: 1.5; stroke-linecap: square"/>
   </g>
   <g id="patch_103">
    <path d="M 162 256.32 
L 162 34.56 
" style="fill: none; stroke: #000000; stroke-width: 0.8; stroke-linejoin: miter; stroke-linecap: square"/>
   </g>
   <g id="patch_104">
    <path d="M 1166.4 256.32 
L 1166.4 34.56 
" style="fill: none; stroke: #000000; stroke-width: 0.8; stroke-linejoin: miter; stroke-linecap: square"/>
   </g>
   <g id="patch_105">
    <path d="M 162 256.32 
L 1166.4 256.32 
" style="fill: none; stroke: #000000; stroke-width: 0.8; stroke-linejoin: miter; stroke-linecap: square"/>
   </g>
   <g id="patch_106">
    <path d="M 162 34.56 
L 1166.4 34.56 
" style="fill: none; stroke: #000000; stroke-width: 0.8; stroke-linejoin: miter; stroke-linecap: square"/>
   </g>
   <g id="legend_1">
    <g id="patch_107">
     <path d="M 1121.0375 86.594375 
L 1159.4 86.594375 
Q 1161.4 86.594375 1161.4 84.594375 
L 1161.4 41.56 
Q 1161.4 39.56 1159.4 39.56 
L 1121.0375 39.56 
Q 1119.0375 39.56 1119.0375 41.56 
L 1119.0375 84.594375 
Q 1119.0375 86.594375 1121.0375 86.594375 
z
" style="fill: #ffffff; opacity: 0.8; stroke: #cccccc; stroke-linejoin: miter"/>
    </g>
    <g id="text_20">
     <!-- Exited -->
     <g transform="translate(1124.5 51.158438) scale(0.1 -0.1)">
      <defs>
       <path id="DejaVuSans-45" d="M 628 4666 
L 3578 4666 
L 3578 4134 
L 1259 4134 
L 1259 2753 
L 3481 2753 
L 3481 2222 
L 1259 2222 
L 1259 531 
L 3634 531 
L 3634 0 
L 628 0 
L 628 4666 
z
" transform="scale(0.015625)"/>
       <path id="DejaVuSans-78" d="M 3513 3500 
L 2247 1797 
L 3578 0 
L 2900 0 
L 1881 1375 
L 863 0 
L 184 0 
L 1544 1831 
L 300 3500 
L 978 3500 
L 1906 2253 
L 2834 3500 
L 3513 3500 
z
" transform="scale(0.015625)"/>
       <path id="DejaVuSans-69" d="M 603 3500 
L 1178 3500 
L 1178 0 
L 603 0 
L 603 3500 
z
M 603 4863 
L 1178 4863 
L 1178 4134 
L 603 4134 
L 603 4863 
z
" transform="scale(0.015625)"/>
       <path id="DejaVuSans-64" d="M 2906 2969 
L 2906 4863 
L 3481 4863 
L 3481 0 
L 2906 0 
L 2906 525 
Q 2725 213 2448 61 
Q 2172 -91 1784 -91 
Q 1150 -91 751 415 
Q 353 922 353 1747 
Q 353 2572 751 3078 
Q 1150 3584 1784 3584 
Q 2172 3584 2448 3432 
Q 2725 3281 2906 2969 
z
M 947 1747 
Q 947 1113 1208 752 
Q 1469 391 1925 391 
Q 2381 391 2643 752 
Q 2906 1113 2906 1747 
Q 2906 2381 2643 2742 
Q 2381 3103 1925 3103 
Q 1469 3103 1208 2742 
Q 947 2381 947 1747 
z
" transform="scale(0.015625)"/>
      </defs>
      <use xlink:href="#DejaVuSans-45"/>
      <use xlink:href="#DejaVuSans-78" x="63.183594"/>
      <use xlink:href="#DejaVuSans-69" x="122.363281"/>
      <use xlink:href="#DejaVuSans-74" x="150.146484"/>
      <use xlink:href="#DejaVuSans-65" x="189.355469"/>
      <use xlink:href="#DejaVuSans-64" x="250.878906"/>
     </g>
    </g>
    <g id="patch_108">
     <path d="M 1123.0375 65.836563 
L 1143.0375 65.836563 
L 1143.0375 58.836563 
L 1123.0375 58.836563 
z
" style="fill: #1f77b4; fill-opacity: 0.5; stroke: #000000; stroke-linejoin: miter"/>
    </g>
    <g id="text_21">
     <!-- 0 -->
     <g transform="translate(1151.0375 65.836563) scale(0.1 -0.1)">
      <use xlink:href="#DejaVuSans-30"/>
     </g>
    </g>
    <g id="patch_109">
     <path d="M 1123.0375 80.514688 
L 1143.0375 80.514688 
L 1143.0375 73.514688 
L 1123.0375 73.514688 
z
" style="fill: #ff7f0e; fill-opacity: 0.5; stroke: #000000; stroke-linejoin: miter"/>
    </g>
    <g id="text_22">
     <!-- 1 -->
     <g transform="translate(1151.0375 80.514688) scale(0.1 -0.1)">
      <use xlink:href="#DejaVuSans-31"/>
     </g>
    </g>
   </g>
  </g>
 </g>
 <defs>
  <clipPath id="pcea122995f">
   <rect x="162" y="34.56" width="1004.4" height="221.76"/>
  </clipPath>
 </defs>
</svg>
