<?xml version="1.0" encoding="utf-8" standalone="no"?>
<!DOCTYPE svg PUBLIC "-//W3C//DTD SVG 1.1//EN"
  "http://www.w3.org/Graphics/SVG/1.1/DTD/svg11.dtd">
<svg xmlns:xlink="http://www.w3.org/1999/xlink" width="1296pt" height="288pt" viewBox="0 0 1296 288" xmlns="http://www.w3.org/2000/svg" version="1.1">
 <metadata>
  <rdf:RDF xmlns:dc="http://purl.org/dc/elements/1.1/" xmlns:cc="http://creativecommons.org/ns#" xmlns:rdf="http://www.w3.org/1999/02/22-rdf-syntax-ns#">
   <cc:Work>
    <dc:type rdf:resource="http://purl.org/dc/dcmitype/StillImage"/>
    <dc:date>2024-03-30T12:52:26.513345</dc:date>
    <dc:format>image/svg+xml</dc:format>
    <dc:creator>
     <cc:Agent>
      <dc:title>Matplotlib v3.7.5, https://matplotlib.org/</dc:title>
     </cc:Agent>
    </dc:creator>
   </cc:Work>
  </rdf:RDF>
 </metadata>
 <defs>
  <style type="text/css">*{stroke-linejoin: round; stroke-linecap: butt}</style>
 </defs>
 <g id="figure_1">
  <g id="patch_1">
   <path d="M 0 288 
L 1296 288 
L 1296 0 
L 0 0 
z
" style="fill: #ffffff"/>
  </g>
  <g id="axes_1">
   <g id="patch_2">
    <path d="M 162 256.32 
L 1166.4 256.32 
L 1166.4 34.56 
L 162 34.56 
z
" style="fill: #ffffff"/>
   </g>
   <g id="patch_3">
    <path d="M 207.654545 256.32 
L 225.916364 256.32 
L 225.916364 215.594051 
L 207.654545 215.594051 
z
" clip-path="url(#p3b3a6c8191)" style="fill: #ff7f0e; fill-opacity: 0.5; stroke: #000000; stroke-linejoin: miter"/>
   </g>
   <g id="patch_4">
    <path d="M 225.916364 256.32 
L 244.178182 256.32 
L 244.178182 256.31719 
L 225.916364 256.31719 
z
" clip-path="url(#p3b3a6c8191)" style="fill: #ff7f0e; fill-opacity: 0.5; stroke: #000000; stroke-linejoin: miter"/>
   </g>
   <g id="patch_5">
    <path d="M 244.178182 256.32 
L 262.44 256.32 
L 262.44 256.31157 
L 244.178182 256.31157 
z
" clip-path="url(#p3b3a6c8191)" style="fill: #ff7f0e; fill-opacity: 0.5; stroke: #000000; stroke-linejoin: miter"/>
   </g>
   <g id="patch_6">
    <path d="M 262.44 256.32 
L 280.701818 256.32 
L 280.701818 256.32 
L 262.44 256.32 
z
" clip-path="url(#p3b3a6c8191)" style="fill: #ff7f0e; fill-opacity: 0.5; stroke: #000000; stroke-linejoin: miter"/>
   </g>
   <g id="patch_7">
    <path d="M 280.701818 256.32 
L 298.963636 256.32 
L 298.963636 256.31438 
L 280.701818 256.31438 
z
" clip-path="url(#p3b3a6c8191)" style="fill: #ff7f0e; fill-opacity: 0.5; stroke: #000000; stroke-linejoin: miter"/>
   </g>
   <g id="patch_8">
    <path d="M 298.963636 256.32 
L 317.225455 256.32 
L 317.225455 256.31157 
L 298.963636 256.31157 
z
" clip-path="url(#p3b3a6c8191)" style="fill: #ff7f0e; fill-opacity: 0.5; stroke: #000000; stroke-linejoin: miter"/>
   </g>
   <g id="patch_9">
    <path d="M 317.225455 256.32 
L 335.487273 256.32 
L 335.487273 256.31438 
L 317.225455 256.31438 
z
" clip-path="url(#p3b3a6c8191)" style="fill: #ff7f0e; fill-opacity: 0.5; stroke: #000000; stroke-linejoin: miter"/>
   </g>
   <g id="patch_10">
    <path d="M 335.487273 256.32 
L 353.749091 256.32 
L 353.749091 256.30033 
L 335.487273 256.30033 
z
" clip-path="url(#p3b3a6c8191)" style="fill: #ff7f0e; fill-opacity: 0.5; stroke: #000000; stroke-linejoin: miter"/>
   </g>
   <g id="patch_11">
    <path d="M 353.749091 256.32 
L 372.010909 256.32 
L 372.010909 256.252559 
L 353.749091 256.252559 
z
" clip-path="url(#p3b3a6c8191)" style="fill: #ff7f0e; fill-opacity: 0.5; stroke: #000000; stroke-linejoin: miter"/>
   </g>
   <g id="patch_12">
    <path d="M 372.010909 256.32 
L 390.272727 256.32 
L 390.272727 256.269419 
L 372.010909 256.269419 
z
" clip-path="url(#p3b3a6c8191)" style="fill: #ff7f0e; fill-opacity: 0.5; stroke: #000000; stroke-linejoin: miter"/>
   </g>
   <g id="patch_13">
    <path d="M 390.272727 256.32 
L 408.534545 256.32 
L 408.534545 256.213218 
L 390.272727 256.213218 
z
" clip-path="url(#p3b3a6c8191)" style="fill: #ff7f0e; fill-opacity: 0.5; stroke: #000000; stroke-linejoin: miter"/>
   </g>
   <g id="patch_14">
    <path d="M 408.534545 256.32 
L 426.796364 256.32 
L 426.796364 256.038996 
L 408.534545 256.038996 
z
" clip-path="url(#p3b3a6c8191)" style="fill: #ff7f0e; fill-opacity: 0.5; stroke: #000000; stroke-linejoin: miter"/>
   </g>
   <g id="patch_15">
    <path d="M 426.796364 256.32 
L 445.058182 256.32 
L 445.058182 255.920974 
L 426.796364 255.920974 
z
" clip-path="url(#p3b3a6c8191)" style="fill: #ff7f0e; fill-opacity: 0.5; stroke: #000000; stroke-linejoin: miter"/>
   </g>
   <g id="patch_16">
    <path d="M 445.058182 256.32 
L 463.32 256.32 
L 463.32 255.946264 
L 445.058182 255.946264 
z
" clip-path="url(#p3b3a6c8191)" style="fill: #ff7f0e; fill-opacity: 0.5; stroke: #000000; stroke-linejoin: miter"/>
   </g>
   <g id="patch_17">
    <path d="M 463.32 256.32 
L 481.581818 256.32 
L 481.581818 255.763612 
L 463.32 255.763612 
z
" clip-path="url(#p3b3a6c8191)" style="fill: #ff7f0e; fill-opacity: 0.5; stroke: #000000; stroke-linejoin: miter"/>
   </g>
   <g id="patch_18">
    <path d="M 481.581818 256.32 
L 499.843636 256.32 
L 499.843636 255.839483 
L 481.581818 255.839483 
z
" clip-path="url(#p3b3a6c8191)" style="fill: #ff7f0e; fill-opacity: 0.5; stroke: #000000; stroke-linejoin: miter"/>
   </g>
   <g id="patch_19">
    <path d="M 499.843636 256.32 
L 518.105455 256.32 
L 518.105455 255.092011 
L 499.843636 255.092011 
z
" clip-path="url(#p3b3a6c8191)" style="fill: #ff7f0e; fill-opacity: 0.5; stroke: #000000; stroke-linejoin: miter"/>
   </g>
   <g id="patch_20">
    <path d="M 518.105455 256.32 
L 536.367273 256.32 
L 536.367273 255.325245 
L 518.105455 255.325245 
z
" clip-path="url(#p3b3a6c8191)" style="fill: #ff7f0e; fill-opacity: 0.5; stroke: #000000; stroke-linejoin: miter"/>
   </g>
   <g id="patch_21">
    <path d="M 536.367273 256.32 
L 554.629091 256.32 
L 554.629091 254.33892 
L 536.367273 254.33892 
z
" clip-path="url(#p3b3a6c8191)" style="fill: #ff7f0e; fill-opacity: 0.5; stroke: #000000; stroke-linejoin: miter"/>
   </g>
   <g id="patch_22">
    <path d="M 554.629091 256.32 
L 572.890909 256.32 
L 572.890909 253.965184 
L 554.629091 253.965184 
z
" clip-path="url(#p3b3a6c8191)" style="fill: #ff7f0e; fill-opacity: 0.5; stroke: #000000; stroke-linejoin: miter"/>
   </g>
   <g id="patch_23">
    <path d="M 572.890909 256.32 
L 591.152727 256.32 
L 591.152727 252.593883 
L 572.890909 252.593883 
z
" clip-path="url(#p3b3a6c8191)" style="fill: #ff7f0e; fill-opacity: 0.5; stroke: #000000; stroke-linejoin: miter"/>
   </g>
   <g id="patch_24">
    <path d="M 591.152727 256.32 
L 609.414545 256.32 
L 609.414545 251.579458 
L 591.152727 251.579458 
z
" clip-path="url(#p3b3a6c8191)" style="fill: #ff7f0e; fill-opacity: 0.5; stroke: #000000; stroke-linejoin: miter"/>
   </g>
   <g id="patch_25">
    <path d="M 609.414545 256.32 
L 627.676364 256.32 
L 627.676364 251.958814 
L 609.414545 251.958814 
z
" clip-path="url(#p3b3a6c8191)" style="fill: #ff7f0e; fill-opacity: 0.5; stroke: #000000; stroke-linejoin: miter"/>
   </g>
   <g id="patch_26">
    <path d="M 627.676364 256.32 
L 645.938182 256.32 
L 645.938182 251.554168 
L 627.676364 251.554168 
z
" clip-path="url(#p3b3a6c8191)" style="fill: #ff7f0e; fill-opacity: 0.5; stroke: #000000; stroke-linejoin: miter"/>
   </g>
   <g id="patch_27">
    <path d="M 645.938182 256.32 
L 664.2 256.32 
L 664.2 249.924343 
L 645.938182 249.924343 
z
" clip-path="url(#p3b3a6c8191)" style="fill: #ff7f0e; fill-opacity: 0.5; stroke: #000000; stroke-linejoin: miter"/>
   </g>
   <g id="patch_28">
    <path d="M 664.2 256.32 
L 682.461818 256.32 
L 682.461818 251.320934 
L 664.2 251.320934 
z
" clip-path="url(#p3b3a6c8191)" style="fill: #ff7f0e; fill-opacity: 0.5; stroke: #000000; stroke-linejoin: miter"/>
   </g>
   <g id="patch_29">
    <path d="M 682.461818 256.32 
L 700.723636 256.32 
L 700.723636 251.666569 
L 682.461818 251.666569 
z
" clip-path="url(#p3b3a6c8191)" style="fill: #ff7f0e; fill-opacity: 0.5; stroke: #000000; stroke-linejoin: miter"/>
   </g>
   <g id="patch_30">
    <path d="M 700.723636 256.32 
L 718.985455 256.32 
L 718.985455 252.568593 
L 700.723636 252.568593 
z
" clip-path="url(#p3b3a6c8191)" style="fill: #ff7f0e; fill-opacity: 0.5; stroke: #000000; stroke-linejoin: miter"/>
   </g>
   <g id="patch_31">
    <path d="M 718.985455 256.32 
L 737.247273 256.32 
L 737.247273 253.189612 
L 718.985455 253.189612 
z
" clip-path="url(#p3b3a6c8191)" style="fill: #ff7f0e; fill-opacity: 0.5; stroke: #000000; stroke-linejoin: miter"/>
   </g>
   <g id="patch_32">
    <path d="M 737.247273 256.32 
L 755.509091 256.32 
L 755.509091 254.257429 
L 737.247273 254.257429 
z
" clip-path="url(#p3b3a6c8191)" style="fill: #ff7f0e; fill-opacity: 0.5; stroke: #000000; stroke-linejoin: miter"/>
   </g>
   <g id="patch_33">
    <path d="M 755.509091 256.32 
L 773.770909 256.32 
L 773.770909 254.34735 
L 755.509091 254.34735 
z
" clip-path="url(#p3b3a6c8191)" style="fill: #ff7f0e; fill-opacity: 0.5; stroke: #000000; stroke-linejoin: miter"/>
   </g>
   <g id="patch_34">
    <path d="M 773.770909 256.32 
L 792.032727 256.32 
L 792.032727 255.507898 
L 773.770909 255.507898 
z
" clip-path="url(#p3b3a6c8191)" style="fill: #ff7f0e; fill-opacity: 0.5; stroke: #000000; stroke-linejoin: miter"/>
   </g>
   <g id="patch_35">
    <path d="M 792.032727 256.32 
L 810.294545 256.32 
L 810.294545 255.328055 
L 792.032727 255.328055 
z
" clip-path="url(#p3b3a6c8191)" style="fill: #ff7f0e; fill-opacity: 0.5; stroke: #000000; stroke-linejoin: miter"/>
   </g>
   <g id="patch_36">
    <path d="M 810.294545 256.32 
L 828.556364 256.32 
L 828.556364 255.623109 
L 810.294545 255.623109 
z
" clip-path="url(#p3b3a6c8191)" style="fill: #ff7f0e; fill-opacity: 0.5; stroke: #000000; stroke-linejoin: miter"/>
   </g>
   <g id="patch_37">
    <path d="M 828.556364 256.32 
L 846.818182 256.32 
L 846.818182 255.760802 
L 828.556364 255.760802 
z
" clip-path="url(#p3b3a6c8191)" style="fill: #ff7f0e; fill-opacity: 0.5; stroke: #000000; stroke-linejoin: miter"/>
   </g>
   <g id="patch_38">
    <path d="M 846.818182 256.32 
L 865.08 256.32 
L 865.08 256.016515 
L 846.818182 256.016515 
z
" clip-path="url(#p3b3a6c8191)" style="fill: #ff7f0e; fill-opacity: 0.5; stroke: #000000; stroke-linejoin: miter"/>
   </g>
   <g id="patch_39">
    <path d="M 865.08 256.32 
L 883.341818 256.32 
L 883.341818 256.095197 
L 865.08 256.095197 
z
" clip-path="url(#p3b3a6c8191)" style="fill: #ff7f0e; fill-opacity: 0.5; stroke: #000000; stroke-linejoin: miter"/>
   </g>
   <g id="patch_40">
    <path d="M 883.341818 256.32 
L 901.603636 256.32 
L 901.603636 256.159828 
L 883.341818 256.159828 
z
" clip-path="url(#p3b3a6c8191)" style="fill: #ff7f0e; fill-opacity: 0.5; stroke: #000000; stroke-linejoin: miter"/>
   </g>
   <g id="patch_41">
    <path d="M 901.603636 256.32 
L 919.865455 256.32 
L 919.865455 256.277849 
L 901.603636 256.277849 
z
" clip-path="url(#p3b3a6c8191)" style="fill: #ff7f0e; fill-opacity: 0.5; stroke: #000000; stroke-linejoin: miter"/>
   </g>
   <g id="patch_42">
    <path d="M 919.865455 256.32 
L 938.127273 256.32 
L 938.127273 256.30033 
L 919.865455 256.30033 
z
" clip-path="url(#p3b3a6c8191)" style="fill: #ff7f0e; fill-opacity: 0.5; stroke: #000000; stroke-linejoin: miter"/>
   </g>
   <g id="patch_43">
    <path d="M 938.127273 256.32 
L 956.389091 256.32 
L 956.389091 256.28909 
L 938.127273 256.28909 
z
" clip-path="url(#p3b3a6c8191)" style="fill: #ff7f0e; fill-opacity: 0.5; stroke: #000000; stroke-linejoin: miter"/>
   </g>
   <g id="patch_44">
    <path d="M 956.389091 256.32 
L 974.650909 256.32 
L 974.650909 256.263799 
L 956.389091 256.263799 
z
" clip-path="url(#p3b3a6c8191)" style="fill: #ff7f0e; fill-opacity: 0.5; stroke: #000000; stroke-linejoin: miter"/>
   </g>
   <g id="patch_45">
    <path d="M 974.650909 256.32 
L 992.912727 256.32 
L 992.912727 256.31719 
L 974.650909 256.31719 
z
" clip-path="url(#p3b3a6c8191)" style="fill: #ff7f0e; fill-opacity: 0.5; stroke: #000000; stroke-linejoin: miter"/>
   </g>
   <g id="patch_46">
    <path d="M 992.912727 256.32 
L 1011.174545 256.32 
L 1011.174545 256.32 
L 992.912727 256.32 
z
" clip-path="url(#p3b3a6c8191)" style="fill: #ff7f0e; fill-opacity: 0.5; stroke: #000000; stroke-linejoin: miter"/>
   </g>
   <g id="patch_47">
    <path d="M 1011.174545 256.32 
L 1029.436364 256.32 
L 1029.436364 256.31157 
L 1011.174545 256.31157 
z
" clip-path="url(#p3b3a6c8191)" style="fill: #ff7f0e; fill-opacity: 0.5; stroke: #000000; stroke-linejoin: miter"/>
   </g>
   <g id="patch_48">
    <path d="M 1029.436364 256.32 
L 1047.698182 256.32 
L 1047.698182 256.32 
L 1029.436364 256.32 
z
" clip-path="url(#p3b3a6c8191)" style="fill: #ff7f0e; fill-opacity: 0.5; stroke: #000000; stroke-linejoin: miter"/>
   </g>
   <g id="patch_49">
    <path d="M 1047.698182 256.32 
L 1065.96 256.32 
L 1065.96 256.32 
L 1047.698182 256.32 
z
" clip-path="url(#p3b3a6c8191)" style="fill: #ff7f0e; fill-opacity: 0.5; stroke: #000000; stroke-linejoin: miter"/>
   </g>
   <g id="patch_50">
    <path d="M 1065.96 256.32 
L 1084.221818 256.32 
L 1084.221818 256.30876 
L 1065.96 256.30876 
z
" clip-path="url(#p3b3a6c8191)" style="fill: #ff7f0e; fill-opacity: 0.5; stroke: #000000; stroke-linejoin: miter"/>
   </g>
   <g id="patch_51">
    <path d="M 1084.221818 256.32 
L 1102.483636 256.32 
L 1102.483636 256.32 
L 1084.221818 256.32 
z
" clip-path="url(#p3b3a6c8191)" style="fill: #ff7f0e; fill-opacity: 0.5; stroke: #000000; stroke-linejoin: miter"/>
   </g>
   <g id="patch_52">
    <path d="M 1102.483636 256.32 
L 1120.745455 256.32 
L 1120.745455 256.32 
L 1102.483636 256.32 
z
" clip-path="url(#p3b3a6c8191)" style="fill: #ff7f0e; fill-opacity: 0.5; stroke: #000000; stroke-linejoin: miter"/>
   </g>
   <g id="patch_53">
    <path d="M 207.654545 256.32 
L 225.916364 256.32 
L 225.916364 45.12 
L 207.654545 45.12 
z
" clip-path="url(#p3b3a6c8191)" style="fill: #1f77b4; fill-opacity: 0.5; stroke: #000000; stroke-linejoin: miter"/>
   </g>
   <g id="patch_54">
    <path d="M 225.916364 256.32 
L 244.178182 256.32 
L 244.178182 256.31719 
L 225.916364 256.31719 
z
" clip-path="url(#p3b3a6c8191)" style="fill: #1f77b4; fill-opacity: 0.5; stroke: #000000; stroke-linejoin: miter"/>
   </g>
   <g id="patch_55">
    <path d="M 244.178182 256.32 
L 262.44 256.32 
L 262.44 256.29471 
L 244.178182 256.29471 
z
" clip-path="url(#p3b3a6c8191)" style="fill: #1f77b4; fill-opacity: 0.5; stroke: #000000; stroke-linejoin: miter"/>
   </g>
   <g id="patch_56">
    <path d="M 262.44 256.32 
L 280.701818 256.32 
L 280.701818 256.31157 
L 262.44 256.31157 
z
" clip-path="url(#p3b3a6c8191)" style="fill: #1f77b4; fill-opacity: 0.5; stroke: #000000; stroke-linejoin: miter"/>
   </g>
   <g id="patch_57">
    <path d="M 280.701818 256.32 
L 298.963636 256.32 
L 298.963636 256.30876 
L 280.701818 256.30876 
z
" clip-path="url(#p3b3a6c8191)" style="fill: #1f77b4; fill-opacity: 0.5; stroke: #000000; stroke-linejoin: miter"/>
   </g>
   <g id="patch_58">
    <path d="M 298.963636 256.32 
L 317.225455 256.32 
L 317.225455 256.2919 
L 298.963636 256.2919 
z
" clip-path="url(#p3b3a6c8191)" style="fill: #1f77b4; fill-opacity: 0.5; stroke: #000000; stroke-linejoin: miter"/>
   </g>
   <g id="patch_59">
    <path d="M 317.225455 256.32 
L 335.487273 256.32 
L 335.487273 256.30314 
L 317.225455 256.30314 
z
" clip-path="url(#p3b3a6c8191)" style="fill: #1f77b4; fill-opacity: 0.5; stroke: #000000; stroke-linejoin: miter"/>
   </g>
   <g id="patch_60">
    <path d="M 335.487273 256.32 
L 353.749091 256.32 
L 353.749091 256.255369 
L 335.487273 256.255369 
z
" clip-path="url(#p3b3a6c8191)" style="fill: #1f77b4; fill-opacity: 0.5; stroke: #000000; stroke-linejoin: miter"/>
   </g>
   <g id="patch_61">
    <path d="M 353.749091 256.32 
L 372.010909 256.32 
L 372.010909 256.201978 
L 353.749091 256.201978 
z
" clip-path="url(#p3b3a6c8191)" style="fill: #1f77b4; fill-opacity: 0.5; stroke: #000000; stroke-linejoin: miter"/>
   </g>
   <g id="patch_62">
    <path d="M 372.010909 256.32 
L 390.272727 256.32 
L 390.272727 256.199168 
L 372.010909 256.199168 
z
" clip-path="url(#p3b3a6c8191)" style="fill: #1f77b4; fill-opacity: 0.5; stroke: #000000; stroke-linejoin: miter"/>
   </g>
   <g id="patch_63">
    <path d="M 390.272727 256.32 
L 408.534545 256.32 
L 408.534545 256.016515 
L 390.272727 256.016515 
z
" clip-path="url(#p3b3a6c8191)" style="fill: #1f77b4; fill-opacity: 0.5; stroke: #000000; stroke-linejoin: miter"/>
   </g>
   <g id="patch_64">
    <path d="M 408.534545 256.32 
L 426.796364 256.32 
L 426.796364 255.707411 
L 408.534545 255.707411 
z
" clip-path="url(#p3b3a6c8191)" style="fill: #1f77b4; fill-opacity: 0.5; stroke: #000000; stroke-linejoin: miter"/>
   </g>
   <g id="patch_65">
    <path d="M 426.796364 256.32 
L 445.058182 256.32 
L 445.058182 255.03581 
L 426.796364 255.03581 
z
" clip-path="url(#p3b3a6c8191)" style="fill: #1f77b4; fill-opacity: 0.5; stroke: #000000; stroke-linejoin: miter"/>
   </g>
   <g id="patch_66">
    <path d="M 445.058182 256.32 
L 463.32 256.32 
L 463.32 255.347725 
L 445.058182 255.347725 
z
" clip-path="url(#p3b3a6c8191)" style="fill: #1f77b4; fill-opacity: 0.5; stroke: #000000; stroke-linejoin: miter"/>
   </g>
   <g id="patch_67">
    <path d="M 463.32 256.32 
L 481.581818 256.32 
L 481.581818 254.133787 
L 463.32 254.133787 
z
" clip-path="url(#p3b3a6c8191)" style="fill: #1f77b4; fill-opacity: 0.5; stroke: #000000; stroke-linejoin: miter"/>
   </g>
   <g id="patch_68">
    <path d="M 481.581818 256.32 
L 499.843636 256.32 
L 499.843636 253.830302 
L 481.581818 253.830302 
z
" clip-path="url(#p3b3a6c8191)" style="fill: #1f77b4; fill-opacity: 0.5; stroke: #000000; stroke-linejoin: miter"/>
   </g>
   <g id="patch_69">
    <path d="M 499.843636 256.32 
L 518.105455 256.32 
L 518.105455 251.393995 
L 499.843636 251.393995 
z
" clip-path="url(#p3b3a6c8191)" style="fill: #1f77b4; fill-opacity: 0.5; stroke: #000000; stroke-linejoin: miter"/>
   </g>
   <g id="patch_70">
    <path d="M 518.105455 256.32 
L 536.367273 256.32 
L 536.367273 252.38594 
L 518.105455 252.38594 
z
" clip-path="url(#p3b3a6c8191)" style="fill: #1f77b4; fill-opacity: 0.5; stroke: #000000; stroke-linejoin: miter"/>
   </g>
   <g id="patch_71">
    <path d="M 536.367273 256.32 
L 554.629091 256.32 
L 554.629091 249.862522 
L 536.367273 249.862522 
z
" clip-path="url(#p3b3a6c8191)" style="fill: #1f77b4; fill-opacity: 0.5; stroke: #000000; stroke-linejoin: miter"/>
   </g>
   <g id="patch_72">
    <path d="M 554.629091 256.32 
L 572.890909 256.32 
L 572.890909 247.78309 
L 554.629091 247.78309 
z
" clip-path="url(#p3b3a6c8191)" style="fill: #1f77b4; fill-opacity: 0.5; stroke: #000000; stroke-linejoin: miter"/>
   </g>
   <g id="patch_73">
    <path d="M 572.890909 256.32 
L 591.152727 256.32 
L 591.152727 247.631348 
L 572.890909 247.631348 
z
" clip-path="url(#p3b3a6c8191)" style="fill: #1f77b4; fill-opacity: 0.5; stroke: #000000; stroke-linejoin: miter"/>
   </g>
   <g id="patch_74">
    <path d="M 591.152727 256.32 
L 609.414545 256.32 
L 609.414545 246.689984 
L 591.152727 246.689984 
z
" clip-path="url(#p3b3a6c8191)" style="fill: #1f77b4; fill-opacity: 0.5; stroke: #000000; stroke-linejoin: miter"/>
   </g>
   <g id="patch_75">
    <path d="M 609.414545 256.32 
L 627.676364 256.32 
L 627.676364 246.484851 
L 609.414545 246.484851 
z
" clip-path="url(#p3b3a6c8191)" style="fill: #1f77b4; fill-opacity: 0.5; stroke: #000000; stroke-linejoin: miter"/>
   </g>
   <g id="patch_76">
    <path d="M 627.676364 256.32 
L 645.938182 256.32 
L 645.938182 246.237567 
L 627.676364 246.237567 
z
" clip-path="url(#p3b3a6c8191)" style="fill: #1f77b4; fill-opacity: 0.5; stroke: #000000; stroke-linejoin: miter"/>
   </g>
   <g id="patch_77">
    <path d="M 645.938182 256.32 
L 664.2 256.32 
L 664.2 240.370198 
L 645.938182 240.370198 
z
" clip-path="url(#p3b3a6c8191)" style="fill: #1f77b4; fill-opacity: 0.5; stroke: #000000; stroke-linejoin: miter"/>
   </g>
   <g id="patch_78">
    <path d="M 664.2 256.32 
L 682.461818 256.32 
L 682.461818 243.885561 
L 664.2 243.885561 
z
" clip-path="url(#p3b3a6c8191)" style="fill: #1f77b4; fill-opacity: 0.5; stroke: #000000; stroke-linejoin: miter"/>
   </g>
   <g id="patch_79">
    <path d="M 682.461818 256.32 
L 700.723636 256.32 
L 700.723636 244.759484 
L 682.461818 244.759484 
z
" clip-path="url(#p3b3a6c8191)" style="fill: #1f77b4; fill-opacity: 0.5; stroke: #000000; stroke-linejoin: miter"/>
   </g>
   <g id="patch_80">
    <path d="M 700.723636 256.32 
L 718.985455 256.32 
L 718.985455 246.335918 
L 700.723636 246.335918 
z
" clip-path="url(#p3b3a6c8191)" style="fill: #1f77b4; fill-opacity: 0.5; stroke: #000000; stroke-linejoin: miter"/>
   </g>
   <g id="patch_81">
    <path d="M 718.985455 256.32 
L 737.247273 256.32 
L 737.247273 246.987848 
L 718.985455 246.987848 
z
" clip-path="url(#p3b3a6c8191)" style="fill: #1f77b4; fill-opacity: 0.5; stroke: #000000; stroke-linejoin: miter"/>
   </g>
   <g id="patch_82">
    <path d="M 737.247273 256.32 
L 755.509091 256.32 
L 755.509091 250.146336 
L 737.247273 250.146336 
z
" clip-path="url(#p3b3a6c8191)" style="fill: #1f77b4; fill-opacity: 0.5; stroke: #000000; stroke-linejoin: miter"/>
   </g>
   <g id="patch_83">
    <path d="M 755.509091 256.32 
L 773.770909 256.32 
L 773.770909 250.42734 
L 755.509091 250.42734 
z
" clip-path="url(#p3b3a6c8191)" style="fill: #1f77b4; fill-opacity: 0.5; stroke: #000000; stroke-linejoin: miter"/>
   </g>
   <g id="patch_84">
    <path d="M 773.770909 256.32 
L 792.032727 256.32 
L 792.032727 253.498717 
L 773.770909 253.498717 
z
" clip-path="url(#p3b3a6c8191)" style="fill: #1f77b4; fill-opacity: 0.5; stroke: #000000; stroke-linejoin: miter"/>
   </g>
   <g id="patch_85">
    <path d="M 792.032727 256.32 
L 810.294545 256.32 
L 810.294545 253.02663 
L 792.032727 253.02663 
z
" clip-path="url(#p3b3a6c8191)" style="fill: #1f77b4; fill-opacity: 0.5; stroke: #000000; stroke-linejoin: miter"/>
   </g>
   <g id="patch_86">
    <path d="M 810.294545 256.32 
L 828.556364 256.32 
L 828.556364 253.858403 
L 810.294545 253.858403 
z
" clip-path="url(#p3b3a6c8191)" style="fill: #1f77b4; fill-opacity: 0.5; stroke: #000000; stroke-linejoin: miter"/>
   </g>
   <g id="patch_87">
    <path d="M 828.556364 256.32 
L 846.818182 256.32 
L 846.818182 254.735136 
L 828.556364 254.735136 
z
" clip-path="url(#p3b3a6c8191)" style="fill: #1f77b4; fill-opacity: 0.5; stroke: #000000; stroke-linejoin: miter"/>
   </g>
   <g id="patch_88">
    <path d="M 846.818182 256.32 
L 865.08 256.32 
L 865.08 255.356155 
L 846.818182 255.356155 
z
" clip-path="url(#p3b3a6c8191)" style="fill: #1f77b4; fill-opacity: 0.5; stroke: #000000; stroke-linejoin: miter"/>
   </g>
   <g id="patch_89">
    <path d="M 865.08 256.32 
L 883.341818 256.32 
L 883.341818 255.586579 
L 865.08 255.586579 
z
" clip-path="url(#p3b3a6c8191)" style="fill: #1f77b4; fill-opacity: 0.5; stroke: #000000; stroke-linejoin: miter"/>
   </g>
   <g id="patch_90">
    <path d="M 883.341818 256.32 
L 901.603636 256.32 
L 901.603636 255.878823 
L 883.341818 255.878823 
z
" clip-path="url(#p3b3a6c8191)" style="fill: #1f77b4; fill-opacity: 0.5; stroke: #000000; stroke-linejoin: miter"/>
   </g>
   <g id="patch_91">
    <path d="M 901.603636 256.32 
L 919.865455 256.32 
L 919.865455 256.185118 
L 901.603636 256.185118 
z
" clip-path="url(#p3b3a6c8191)" style="fill: #1f77b4; fill-opacity: 0.5; stroke: #000000; stroke-linejoin: miter"/>
   </g>
   <g id="patch_92">
    <path d="M 919.865455 256.32 
L 938.127273 256.32 
L 938.127273 256.221649 
L 919.865455 256.221649 
z
" clip-path="url(#p3b3a6c8191)" style="fill: #1f77b4; fill-opacity: 0.5; stroke: #000000; stroke-linejoin: miter"/>
   </g>
   <g id="patch_93">
    <path d="M 938.127273 256.32 
L 956.389091 256.32 
L 956.389091 256.263799 
L 938.127273 256.263799 
z
" clip-path="url(#p3b3a6c8191)" style="fill: #1f77b4; fill-opacity: 0.5; stroke: #000000; stroke-linejoin: miter"/>
   </g>
   <g id="patch_94">
    <path d="M 956.389091 256.32 
L 974.650909 256.32 
L 974.650909 256.230079 
L 956.389091 256.230079 
z
" clip-path="url(#p3b3a6c8191)" style="fill: #1f77b4; fill-opacity: 0.5; stroke: #000000; stroke-linejoin: miter"/>
   </g>
   <g id="patch_95">
    <path d="M 974.650909 256.32 
L 992.912727 256.32 
L 992.912727 256.280659 
L 974.650909 256.280659 
z
" clip-path="url(#p3b3a6c8191)" style="fill: #1f77b4; fill-opacity: 0.5; stroke: #000000; stroke-linejoin: miter"/>
   </g>
   <g id="patch_96">
    <path d="M 992.912727 256.32 
L 1011.174545 256.32 
L 1011.174545 256.31438 
L 992.912727 256.31438 
z
" clip-path="url(#p3b3a6c8191)" style="fill: #1f77b4; fill-opacity: 0.5; stroke: #000000; stroke-linejoin: miter"/>
   </g>
   <g id="patch_97">
    <path d="M 1011.174545 256.32 
L 1029.436364 256.32 
L 1029.436364 256.30314 
L 1011.174545 256.30314 
z
" clip-path="url(#p3b3a6c8191)" style="fill: #1f77b4; fill-opacity: 0.5; stroke: #000000; stroke-linejoin: miter"/>
   </g>
   <g id="patch_98">
    <path d="M 1029.436364 256.32 
L 1047.698182 256.32 
L 1047.698182 256.32 
L 1029.436364 256.32 
z
" clip-path="url(#p3b3a6c8191)" style="fill: #1f77b4; fill-opacity: 0.5; stroke: #000000; stroke-linejoin: miter"/>
   </g>
   <g id="patch_99">
    <path d="M 1047.698182 256.32 
L 1065.96 256.32 
L 1065.96 256.32 
L 1047.698182 256.32 
z
" clip-path="url(#p3b3a6c8191)" style="fill: #1f77b4; fill-opacity: 0.5; stroke: #000000; stroke-linejoin: miter"/>
   </g>
   <g id="patch_100">
    <path d="M 1065.96 256.32 
L 1084.221818 256.32 
L 1084.221818 256.30876 
L 1065.96 256.30876 
z
" clip-path="url(#p3b3a6c8191)" style="fill: #1f77b4; fill-opacity: 0.5; stroke: #000000; stroke-linejoin: miter"/>
   </g>
   <g id="patch_101">
    <path d="M 1084.221818 256.32 
L 1102.483636 256.32 
L 1102.483636 256.32 
L 1084.221818 256.32 
z
" clip-path="url(#p3b3a6c8191)" style="fill: #1f77b4; fill-opacity: 0.5; stroke: #000000; stroke-linejoin: miter"/>
   </g>
   <g id="patch_102">
    <path d="M 1102.483636 256.32 
L 1120.745455 256.32 
L 1120.745455 256.31157 
L 1102.483636 256.31157 
z
" clip-path="url(#p3b3a6c8191)" style="fill: #1f77b4; fill-opacity: 0.5; stroke: #000000; stroke-linejoin: miter"/>
   </g>
   <g id="matplotlib.axis_1">
    <g id="xtick_1">
     <g id="line2d_1">
      <defs>
       <path id="m555f6d1a34" d="M 0 0 
L 0 3.5 
" style="stroke: #000000; stroke-width: 0.8"/>
      </defs>
      <g>
       <use xlink:href="#m555f6d1a34" x="207.654545" y="256.32" style="stroke: #000000; stroke-width: 0.8"/>
      </g>
     </g>
     <g id="text_1">
      <!-- 0 -->
      <g transform="translate(204.473295 270.918437) scale(0.1 -0.1)">
       <defs>
        <path id="DejaVuSans-30" d="M 2034 4250 
Q 1547 4250 1301 3770 
Q 1056 3291 1056 2328 
Q 1056 1369 1301 889 
Q 1547 409 2034 409 
Q 2525 409 2770 889 
Q 3016 1369 3016 2328 
Q 3016 3291 2770 3770 
Q 2525 4250 2034 4250 
z
M 2034 4750 
Q 2819 4750 3233 4129 
Q 3647 3509 3647 2328 
Q 3647 1150 3233 529 
Q 2819 -91 2034 -91 
Q 1250 -91 836 529 
Q 422 1150 422 2328 
Q 422 3509 836 4129 
Q 1250 4750 2034 4750 
z
" transform="scale(0.015625)"/>
       </defs>
       <use xlink:href="#DejaVuSans-30"/>
      </g>
     </g>
    </g>
    <g id="xtick_2">
     <g id="line2d_2">
      <g>
       <use xlink:href="#m555f6d1a34" x="389.619045" y="256.32" style="stroke: #000000; stroke-width: 0.8"/>
      </g>
     </g>
     <g id="text_2">
      <!-- 50000 -->
      <g transform="translate(373.712795 270.918437) scale(0.1 -0.1)">
       <defs>
        <path id="DejaVuSans-35" d="M 691 4666 
L 3169 4666 
L 3169 4134 
L 1269 4134 
L 1269 2991 
Q 1406 3038 1543 3061 
Q 1681 3084 1819 3084 
Q 2600 3084 3056 2656 
Q 3513 2228 3513 1497 
Q 3513 744 3044 326 
Q 2575 -91 1722 -91 
Q 1428 -91 1123 -41 
Q 819 9 494 109 
L 494 744 
Q 775 591 1075 516 
Q 1375 441 1709 441 
Q 2250 441 2565 725 
Q 2881 1009 2881 1497 
Q 2881 1984 2565 2268 
Q 2250 2553 1709 2553 
Q 1456 2553 1204 2497 
Q 953 2441 691 2322 
L 691 4666 
z
" transform="scale(0.015625)"/>
       </defs>
       <use xlink:href="#DejaVuSans-35"/>
       <use xlink:href="#DejaVuSans-30" x="63.623047"/>
       <use xlink:href="#DejaVuSans-30" x="127.246094"/>
       <use xlink:href="#DejaVuSans-30" x="190.869141"/>
       <use xlink:href="#DejaVuSans-30" x="254.492188"/>
      </g>
     </g>
    </g>
    <g id="xtick_3">
     <g id="line2d_3">
      <g>
       <use xlink:href="#m555f6d1a34" x="571.583545" y="256.32" style="stroke: #000000; stroke-width: 0.8"/>
      </g>
     </g>
     <g id="text_3">
      <!-- 100000 -->
      <g transform="translate(552.496045 270.918437) scale(0.1 -0.1)">
       <defs>
        <path id="DejaVuSans-31" d="M 794 531 
L 1825 531 
L 1825 4091 
L 703 3866 
L 703 4441 
L 1819 4666 
L 2450 4666 
L 2450 531 
L 3481 531 
L 3481 0 
L 794 0 
L 794 531 
z
" transform="scale(0.015625)"/>
       </defs>
       <use xlink:href="#DejaVuSans-31"/>
       <use xlink:href="#DejaVuSans-30" x="63.623047"/>
       <use xlink:href="#DejaVuSans-30" x="127.246094"/>
       <use xlink:href="#DejaVuSans-30" x="190.869141"/>
       <use xlink:href="#DejaVuSans-30" x="254.492188"/>
       <use xlink:href="#DejaVuSans-30" x="318.115234"/>
      </g>
     </g>
    </g>
    <g id="xtick_4">
     <g id="line2d_4">
      <g>
       <use xlink:href="#m555f6d1a34" x="753.548045" y="256.32" style="stroke: #000000; stroke-width: 0.8"/>
      </g>
     </g>
     <g id="text_4">
      <!-- 150000 -->
      <g transform="translate(734.460545 270.918437) scale(0.1 -0.1)">
       <use xlink:href="#DejaVuSans-31"/>
       <use xlink:href="#DejaVuSans-35" x="63.623047"/>
       <use xlink:href="#DejaVuSans-30" x="127.246094"/>
       <use xlink:href="#DejaVuSans-30" x="190.869141"/>
       <use xlink:href="#DejaVuSans-30" x="254.492188"/>
       <use xlink:href="#DejaVuSans-30" x="318.115234"/>
      </g>
     </g>
    </g>
    <g id="xtick_5">
     <g id="line2d_5">
      <g>
       <use xlink:href="#m555f6d1a34" x="935.512545" y="256.32" style="stroke: #000000; stroke-width: 0.8"/>
      </g>
     </g>
     <g id="text_5">
      <!-- 200000 -->
      <g transform="translate(916.425045 270.918437) scale(0.1 -0.1)">
       <defs>
        <path id="DejaVuSans-32" d="M 1228 531 
L 3431 531 
L 3431 0 
L 469 0 
L 469 531 
Q 828 903 1448 1529 
Q 2069 2156 2228 2338 
Q 2531 2678 2651 2914 
Q 2772 3150 2772 3378 
Q 2772 3750 2511 3984 
Q 2250 4219 1831 4219 
Q 1534 4219 1204 4116 
Q 875 4013 500 3803 
L 500 4441 
Q 881 4594 1212 4672 
Q 1544 4750 1819 4750 
Q 2544 4750 2975 4387 
Q 3406 4025 3406 3419 
Q 3406 3131 3298 2873 
Q 3191 2616 2906 2266 
Q 2828 2175 2409 1742 
Q 1991 1309 1228 531 
z
" transform="scale(0.015625)"/>
       </defs>
       <use xlink:href="#DejaVuSans-32"/>
       <use xlink:href="#DejaVuSans-30" x="63.623047"/>
       <use xlink:href="#DejaVuSans-30" x="127.246094"/>
       <use xlink:href="#DejaVuSans-30" x="190.869141"/>
       <use xlink:href="#DejaVuSans-30" x="254.492188"/>
       <use xlink:href="#DejaVuSans-30" x="318.115234"/>
      </g>
     </g>
    </g>
    <g id="xtick_6">
     <g id="line2d_6">
      <g>
       <use xlink:href="#m555f6d1a34" x="1117.477045" y="256.32" style="stroke: #000000; stroke-width: 0.8"/>
      </g>
     </g>
     <g id="text_6">
      <!-- 250000 -->
      <g transform="translate(1098.389545 270.918437) scale(0.1 -0.1)">
       <use xlink:href="#DejaVuSans-32"/>
       <use xlink:href="#DejaVuSans-35" x="63.623047"/>
       <use xlink:href="#DejaVuSans-30" x="127.246094"/>
       <use xlink:href="#DejaVuSans-30" x="190.869141"/>
       <use xlink:href="#DejaVuSans-30" x="254.492188"/>
       <use xlink:href="#DejaVuSans-30" x="318.115234"/>
      </g>
     </g>
    </g>
    <g id="text_7">
     <!-- Balance -->
     <g transform="translate(644.257812 284.596563) scale(0.1 -0.1)">
      <defs>
       <path id="DejaVuSans-42" d="M 1259 2228 
L 1259 519 
L 2272 519 
Q 2781 519 3026 730 
Q 3272 941 3272 1375 
Q 3272 1813 3026 2020 
Q 2781 2228 2272 2228 
L 1259 2228 
z
M 1259 4147 
L 1259 2741 
L 2194 2741 
Q 2656 2741 2882 2914 
Q 3109 3088 3109 3444 
Q 3109 3797 2882 3972 
Q 2656 4147 2194 4147 
L 1259 4147 
z
M 628 4666 
L 2241 4666 
Q 2963 4666 3353 4366 
Q 3744 4066 3744 3513 
Q 3744 3084 3544 2831 
Q 3344 2578 2956 2516 
Q 3422 2416 3680 2098 
Q 3938 1781 3938 1306 
Q 3938 681 3513 340 
Q 3088 0 2303 0 
L 628 0 
L 628 4666 
z
" transform="scale(0.015625)"/>
       <path id="DejaVuSans-61" d="M 2194 1759 
Q 1497 1759 1228 1600 
Q 959 1441 959 1056 
Q 959 750 1161 570 
Q 1363 391 1709 391 
Q 2188 391 2477 730 
Q 2766 1069 2766 1631 
L 2766 1759 
L 2194 1759 
z
M 3341 1997 
L 3341 0 
L 2766 0 
L 2766 531 
Q 2569 213 2275 61 
Q 1981 -91 1556 -91 
Q 1019 -91 701 211 
Q 384 513 384 1019 
Q 384 1609 779 1909 
Q 1175 2209 1959 2209 
L 2766 2209 
L 2766 2266 
Q 2766 2663 2505 2880 
Q 2244 3097 1772 3097 
Q 1472 3097 1187 3025 
Q 903 2953 641 2809 
L 641 3341 
Q 956 3463 1253 3523 
Q 1550 3584 1831 3584 
Q 2591 3584 2966 3190 
Q 3341 2797 3341 1997 
z
" transform="scale(0.015625)"/>
       <path id="DejaVuSans-6c" d="M 603 4863 
L 1178 4863 
L 1178 0 
L 603 0 
L 603 4863 
z
" transform="scale(0.015625)"/>
       <path id="DejaVuSans-6e" d="M 3513 2113 
L 3513 0 
L 2938 0 
L 2938 2094 
Q 2938 2591 2744 2837 
Q 2550 3084 2163 3084 
Q 1697 3084 1428 2787 
Q 1159 2491 1159 1978 
L 1159 0 
L 581 0 
L 581 3500 
L 1159 3500 
L 1159 2956 
Q 1366 3272 1645 3428 
Q 1925 3584 2291 3584 
Q 2894 3584 3203 3211 
Q 3513 2838 3513 2113 
z
" transform="scale(0.015625)"/>
       <path id="DejaVuSans-63" d="M 3122 3366 
L 3122 2828 
Q 2878 2963 2633 3030 
Q 2388 3097 2138 3097 
Q 1578 3097 1268 2742 
Q 959 2388 959 1747 
Q 959 1106 1268 751 
Q 1578 397 2138 397 
Q 2388 397 2633 464 
Q 2878 531 3122 666 
L 3122 134 
Q 2881 22 2623 -34 
Q 2366 -91 2075 -91 
Q 1284 -91 818 406 
Q 353 903 353 1747 
Q 353 2603 823 3093 
Q 1294 3584 2113 3584 
Q 2378 3584 2631 3529 
Q 2884 3475 3122 3366 
z
" transform="scale(0.015625)"/>
       <path id="DejaVuSans-65" d="M 3597 1894 
L 3597 1613 
L 953 1613 
Q 991 1019 1311 708 
Q 1631 397 2203 397 
Q 2534 397 2845 478 
Q 3156 559 3463 722 
L 3463 178 
Q 3153 47 2828 -22 
Q 2503 -91 2169 -91 
Q 1331 -91 842 396 
Q 353 884 353 1716 
Q 353 2575 817 3079 
Q 1281 3584 2069 3584 
Q 2775 3584 3186 3129 
Q 3597 2675 3597 1894 
z
M 3022 2063 
Q 3016 2534 2758 2815 
Q 2500 3097 2075 3097 
Q 1594 3097 1305 2825 
Q 1016 2553 972 2059 
L 3022 2063 
z
" transform="scale(0.015625)"/>
      </defs>
      <use xlink:href="#DejaVuSans-42"/>
      <use xlink:href="#DejaVuSans-61" x="68.603516"/>
      <use xlink:href="#DejaVuSans-6c" x="129.882812"/>
      <use xlink:href="#DejaVuSans-61" x="157.666016"/>
      <use xlink:href="#DejaVuSans-6e" x="218.945312"/>
      <use xlink:href="#DejaVuSans-63" x="282.324219"/>
      <use xlink:href="#DejaVuSans-65" x="337.304688"/>
     </g>
    </g>
   </g>
   <g id="matplotlib.axis_2">
    <g id="ytick_1">
     <g id="line2d_7">
      <defs>
       <path id="m32ece4c43a" d="M 0 0 
L -3.5 0 
" style="stroke: #000000; stroke-width: 0.8"/>
      </defs>
      <g>
       <use xlink:href="#m32ece4c43a" x="162" y="256.32" style="stroke: #000000; stroke-width: 0.8"/>
      </g>
     </g>
     <g id="text_8">
      <!-- 0 -->
      <g transform="translate(148.6375 260.119219) scale(0.1 -0.1)">
       <use xlink:href="#DejaVuSans-30"/>
      </g>
     </g>
    </g>
    <g id="ytick_2">
     <g id="line2d_8">
      <g>
       <use xlink:href="#m32ece4c43a" x="162" y="228.219573" style="stroke: #000000; stroke-width: 0.8"/>
      </g>
     </g>
     <g id="text_9">
      <!-- 10000 -->
      <g transform="translate(123.1875 232.018792) scale(0.1 -0.1)">
       <use xlink:href="#DejaVuSans-31"/>
       <use xlink:href="#DejaVuSans-30" x="63.623047"/>
       <use xlink:href="#DejaVuSans-30" x="127.246094"/>
       <use xlink:href="#DejaVuSans-30" x="190.869141"/>
       <use xlink:href="#DejaVuSans-30" x="254.492188"/>
      </g>
     </g>
    </g>
    <g id="ytick_3">
     <g id="line2d_9">
      <g>
       <use xlink:href="#m32ece4c43a" x="162" y="200.119146" style="stroke: #000000; stroke-width: 0.8"/>
      </g>
     </g>
     <g id="text_10">
      <!-- 20000 -->
      <g transform="translate(123.1875 203.918365) scale(0.1 -0.1)">
       <use xlink:href="#DejaVuSans-32"/>
       <use xlink:href="#DejaVuSans-30" x="63.623047"/>
       <use xlink:href="#DejaVuSans-30" x="127.246094"/>
       <use xlink:href="#DejaVuSans-30" x="190.869141"/>
       <use xlink:href="#DejaVuSans-30" x="254.492188"/>
      </g>
     </g>
    </g>
    <g id="ytick_4">
     <g id="line2d_10">
      <g>
       <use xlink:href="#m32ece4c43a" x="162" y="172.018719" style="stroke: #000000; stroke-width: 0.8"/>
      </g>
     </g>
     <g id="text_11">
      <!-- 30000 -->
      <g transform="translate(123.1875 175.817937) scale(0.1 -0.1)">
       <defs>
        <path id="DejaVuSans-33" d="M 2597 2516 
Q 3050 2419 3304 2112 
Q 3559 1806 3559 1356 
Q 3559 666 3084 287 
Q 2609 -91 1734 -91 
Q 1441 -91 1130 -33 
Q 819 25 488 141 
L 488 750 
Q 750 597 1062 519 
Q 1375 441 1716 441 
Q 2309 441 2620 675 
Q 2931 909 2931 1356 
Q 2931 1769 2642 2001 
Q 2353 2234 1838 2234 
L 1294 2234 
L 1294 2753 
L 1863 2753 
Q 2328 2753 2575 2939 
Q 2822 3125 2822 3475 
Q 2822 3834 2567 4026 
Q 2313 4219 1838 4219 
Q 1578 4219 1281 4162 
Q 984 4106 628 3988 
L 628 4550 
Q 988 4650 1302 4700 
Q 1616 4750 1894 4750 
Q 2613 4750 3031 4423 
Q 3450 4097 3450 3541 
Q 3450 3153 3228 2886 
Q 3006 2619 2597 2516 
z
" transform="scale(0.015625)"/>
       </defs>
       <use xlink:href="#DejaVuSans-33"/>
       <use xlink:href="#DejaVuSans-30" x="63.623047"/>
       <use xlink:href="#DejaVuSans-30" x="127.246094"/>
       <use xlink:href="#DejaVuSans-30" x="190.869141"/>
       <use xlink:href="#DejaVuSans-30" x="254.492188"/>
      </g>
     </g>
    </g>
    <g id="ytick_5">
     <g id="line2d_11">
      <g>
       <use xlink:href="#m32ece4c43a" x="162" y="143.918292" style="stroke: #000000; stroke-width: 0.8"/>
      </g>
     </g>
     <g id="text_12">
      <!-- 40000 -->
      <g transform="translate(123.1875 147.71751) scale(0.1 -0.1)">
       <defs>
        <path id="DejaVuSans-34" d="M 2419 4116 
L 825 1625 
L 2419 1625 
L 2419 4116 
z
M 2253 4666 
L 3047 4666 
L 3047 1625 
L 3713 1625 
L 3713 1100 
L 3047 1100 
L 3047 0 
L 2419 0 
L 2419 1100 
L 313 1100 
L 313 1709 
L 2253 4666 
z
" transform="scale(0.015625)"/>
       </defs>
       <use xlink:href="#DejaVuSans-34"/>
       <use xlink:href="#DejaVuSans-30" x="63.623047"/>
       <use xlink:href="#DejaVuSans-30" x="127.246094"/>
       <use xlink:href="#DejaVuSans-30" x="190.869141"/>
       <use xlink:href="#DejaVuSans-30" x="254.492188"/>
      </g>
     </g>
    </g>
    <g id="ytick_6">
     <g id="line2d_12">
      <g>
       <use xlink:href="#m32ece4c43a" x="162" y="115.817865" style="stroke: #000000; stroke-width: 0.8"/>
      </g>
     </g>
     <g id="text_13">
      <!-- 50000 -->
      <g transform="translate(123.1875 119.617083) scale(0.1 -0.1)">
       <use xlink:href="#DejaVuSans-35"/>
       <use xlink:href="#DejaVuSans-30" x="63.623047"/>
       <use xlink:href="#DejaVuSans-30" x="127.246094"/>
       <use xlink:href="#DejaVuSans-30" x="190.869141"/>
       <use xlink:href="#DejaVuSans-30" x="254.492188"/>
      </g>
     </g>
    </g>
    <g id="ytick_7">
     <g id="line2d_13">
      <g>
       <use xlink:href="#m32ece4c43a" x="162" y="87.717437" style="stroke: #000000; stroke-width: 0.8"/>
      </g>
     </g>
     <g id="text_14">
      <!-- 60000 -->
      <g transform="translate(123.1875 91.516656) scale(0.1 -0.1)">
       <defs>
        <path id="DejaVuSans-36" d="M 2113 2584 
Q 1688 2584 1439 2293 
Q 1191 2003 1191 1497 
Q 1191 994 1439 701 
Q 1688 409 2113 409 
Q 2538 409 2786 701 
Q 3034 994 3034 1497 
Q 3034 2003 2786 2293 
Q 2538 2584 2113 2584 
z
M 3366 4563 
L 3366 3988 
Q 3128 4100 2886 4159 
Q 2644 4219 2406 4219 
Q 1781 4219 1451 3797 
Q 1122 3375 1075 2522 
Q 1259 2794 1537 2939 
Q 1816 3084 2150 3084 
Q 2853 3084 3261 2657 
Q 3669 2231 3669 1497 
Q 3669 778 3244 343 
Q 2819 -91 2113 -91 
Q 1303 -91 875 529 
Q 447 1150 447 2328 
Q 447 3434 972 4092 
Q 1497 4750 2381 4750 
Q 2619 4750 2861 4703 
Q 3103 4656 3366 4563 
z
" transform="scale(0.015625)"/>
       </defs>
       <use xlink:href="#DejaVuSans-36"/>
       <use xlink:href="#DejaVuSans-30" x="63.623047"/>
       <use xlink:href="#DejaVuSans-30" x="127.246094"/>
       <use xlink:href="#DejaVuSans-30" x="190.869141"/>
       <use xlink:href="#DejaVuSans-30" x="254.492188"/>
      </g>
     </g>
    </g>
    <g id="ytick_8">
     <g id="line2d_14">
      <g>
       <use xlink:href="#m32ece4c43a" x="162" y="59.61701" style="stroke: #000000; stroke-width: 0.8"/>
      </g>
     </g>
     <g id="text_15">
      <!-- 70000 -->
      <g transform="translate(123.1875 63.416229) scale(0.1 -0.1)">
       <defs>
        <path id="DejaVuSans-37" d="M 525 4666 
L 3525 4666 
L 3525 4397 
L 1831 0 
L 1172 0 
L 2766 4134 
L 525 4134 
L 525 4666 
z
" transform="scale(0.015625)"/>
       </defs>
       <use xlink:href="#DejaVuSans-37"/>
       <use xlink:href="#DejaVuSans-30" x="63.623047"/>
       <use xlink:href="#DejaVuSans-30" x="127.246094"/>
       <use xlink:href="#DejaVuSans-30" x="190.869141"/>
       <use xlink:href="#DejaVuSans-30" x="254.492188"/>
      </g>
     </g>
    </g>
    <g id="text_16">
     <!-- Count -->
     <g transform="translate(117.107812 160.288437) rotate(-90) scale(0.1 -0.1)">
      <defs>
       <path id="DejaVuSans-43" d="M 4122 4306 
L 4122 3641 
Q 3803 3938 3442 4084 
Q 3081 4231 2675 4231 
Q 1875 4231 1450 3742 
Q 1025 3253 1025 2328 
Q 1025 1406 1450 917 
Q 1875 428 2675 428 
Q 3081 428 3442 575 
Q 3803 722 4122 1019 
L 4122 359 
Q 3791 134 3420 21 
Q 3050 -91 2638 -91 
Q 1578 -91 968 557 
Q 359 1206 359 2328 
Q 359 3453 968 4101 
Q 1578 4750 2638 4750 
Q 3056 4750 3426 4639 
Q 3797 4528 4122 4306 
z
" transform="scale(0.015625)"/>
       <path id="DejaVuSans-6f" d="M 1959 3097 
Q 1497 3097 1228 2736 
Q 959 2375 959 1747 
Q 959 1119 1226 758 
Q 1494 397 1959 397 
Q 2419 397 2687 759 
Q 2956 1122 2956 1747 
Q 2956 2369 2687 2733 
Q 2419 3097 1959 3097 
z
M 1959 3584 
Q 2709 3584 3137 3096 
Q 3566 2609 3566 1747 
Q 3566 888 3137 398 
Q 2709 -91 1959 -91 
Q 1206 -91 779 398 
Q 353 888 353 1747 
Q 353 2609 779 3096 
Q 1206 3584 1959 3584 
z
" transform="scale(0.015625)"/>
       <path id="DejaVuSans-75" d="M 544 1381 
L 544 3500 
L 1119 3500 
L 1119 1403 
Q 1119 906 1312 657 
Q 1506 409 1894 409 
Q 2359 409 2629 706 
Q 2900 1003 2900 1516 
L 2900 3500 
L 3475 3500 
L 3475 0 
L 2900 0 
L 2900 538 
Q 2691 219 2414 64 
Q 2138 -91 1772 -91 
Q 1169 -91 856 284 
Q 544 659 544 1381 
z
M 1991 3584 
L 1991 3584 
z
" transform="scale(0.015625)"/>
       <path id="DejaVuSans-74" d="M 1172 4494 
L 1172 3500 
L 2356 3500 
L 2356 3053 
L 1172 3053 
L 1172 1153 
Q 1172 725 1289 603 
Q 1406 481 1766 481 
L 2356 481 
L 2356 0 
L 1766 0 
Q 1100 0 847 248 
Q 594 497 594 1153 
L 594 3053 
L 172 3053 
L 172 3500 
L 594 3500 
L 594 4494 
L 1172 4494 
z
" transform="scale(0.015625)"/>
      </defs>
      <use xlink:href="#DejaVuSans-43"/>
      <use xlink:href="#DejaVuSans-6f" x="69.824219"/>
      <use xlink:href="#DejaVuSans-75" x="131.005859"/>
      <use xlink:href="#DejaVuSans-6e" x="194.384766"/>
      <use xlink:href="#DejaVuSans-74" x="257.763672"/>
     </g>
    </g>
   </g>
   <g id="line2d_15">
    <path d="M 207.654545 245.774437 
L 212.242942 245.91338 
L 216.831339 246.319886 
L 221.419735 246.962573 
L 226.008132 247.793603 
L 235.184925 249.783205 
L 244.361718 251.813595 
L 253.538511 253.526006 
L 258.126907 254.205582 
L 262.715304 254.761461 
L 271.892097 255.536922 
L 281.06889 255.964257 
L 294.834079 256.226247 
L 317.776062 256.300686 
L 386.60201 256.199084 
L 460.016354 255.836262 
L 492.13513 255.524557 
L 519.665509 255.039148 
L 542.607492 254.405832 
L 565.549475 253.547656 
L 602.256647 252.141388 
L 625.19863 251.511019 
L 643.552216 251.217097 
L 657.317405 251.19089 
L 671.082595 251.358143 
L 689.436181 251.82947 
L 716.96656 252.823619 
L 758.262129 254.341074 
L 781.204111 254.963062 
L 808.734491 255.455748 
L 845.441663 255.851004 
L 895.914025 256.168688 
L 950.974783 256.28497 
L 1120.745455 256.319212 
L 1120.745455 256.319212 
" clip-path="url(#p3b3a6c8191)" style="fill: none; stroke: #ff7f0e; stroke-width: 1.5; stroke-linecap: square"/>
   </g>
   <g id="line2d_16">
    <path d="M 207.654545 184.65969 
L 212.242942 186.276561 
L 216.831339 190.912633 
L 221.419735 197.967757 
L 226.008132 206.584993 
L 235.184925 224.812876 
L 239.773321 232.901105 
L 244.361718 239.688397 
L 248.950114 245.033939 
L 253.538511 249.001081 
L 258.126907 251.783168 
L 262.715304 253.630542 
L 267.3037 254.793831 
L 271.892097 255.489266 
L 276.480493 255.884256 
L 285.657286 256.206688 
L 299.422476 256.293323 
L 354.483234 256.223402 
L 391.190407 256.020409 
L 418.720786 255.594768 
L 455.427958 254.798106 
L 473.781544 254.125313 
L 492.13513 253.192324 
L 533.430699 250.832708 
L 574.726268 247.951852 
L 588.491457 247.298629 
L 616.021836 246.086493 
L 629.787026 245.135831 
L 643.552216 244.111447 
L 652.729009 243.655909 
L 661.905802 243.533463 
L 671.082595 243.745407 
L 680.259388 244.191845 
L 703.20137 245.656392 
L 716.96656 246.679177 
L 730.73175 247.917014 
L 758.262129 250.537484 
L 772.027318 251.63529 
L 785.792508 252.539659 
L 799.557698 253.232925 
L 827.088077 254.291481 
L 850.030059 255.02678 
L 872.972042 255.537707 
L 905.090818 256.018386 
L 932.621197 256.201483 
L 1006.035541 256.301639 
L 1120.745455 256.316737 
L 1120.745455 256.316737 
" clip-path="url(#p3b3a6c8191)" style="fill: none; stroke: #1f77b4; stroke-width: 1.5; stroke-linecap: square"/>
   </g>
   <g id="patch_103">
    <path d="M 162 256.32 
L 162 34.56 
" style="fill: none; stroke: #000000; stroke-width: 0.8; stroke-linejoin: miter; stroke-linecap: square"/>
   </g>
   <g id="patch_104">
    <path d="M 1166.4 256.32 
L 1166.4 34.56 
" style="fill: none; stroke: #000000; stroke-width: 0.8; stroke-linejoin: miter; stroke-linecap: square"/>
   </g>
   <g id="patch_105">
    <path d="M 162 256.32 
L 1166.4 256.32 
" style="fill: none; stroke: #000000; stroke-width: 0.8; stroke-linejoin: miter; stroke-linecap: square"/>
   </g>
   <g id="patch_106">
    <path d="M 162 34.56 
L 1166.4 34.56 
" style="fill: none; stroke: #000000; stroke-width: 0.8; stroke-linejoin: miter; stroke-linecap: square"/>
   </g>
   <g id="legend_1">
    <g id="patch_107">
     <path d="M 1121.0375 86.594375 
L 1159.4 86.594375 
Q 1161.4 86.594375 1161.4 84.594375 
L 1161.4 41.56 
Q 1161.4 39.56 1159.4 39.56 
L 1121.0375 39.56 
Q 1119.0375 39.56 1119.0375 41.56 
L 1119.0375 84.594375 
Q 1119.0375 86.594375 1121.0375 86.594375 
z
" style="fill: #ffffff; opacity: 0.8; stroke: #cccccc; stroke-linejoin: miter"/>
    </g>
    <g id="text_17">
     <!-- Exited -->
     <g transform="translate(1124.5 51.158438) scale(0.1 -0.1)">
      <defs>
       <path id="DejaVuSans-45" d="M 628 4666 
L 3578 4666 
L 3578 4134 
L 1259 4134 
L 1259 2753 
L 3481 2753 
L 3481 2222 
L 1259 2222 
L 1259 531 
L 3634 531 
L 3634 0 
L 628 0 
L 628 4666 
z
" transform="scale(0.015625)"/>
       <path id="DejaVuSans-78" d="M 3513 3500 
L 2247 1797 
L 3578 0 
L 2900 0 
L 1881 1375 
L 863 0 
L 184 0 
L 1544 1831 
L 300 3500 
L 978 3500 
L 1906 2253 
L 2834 3500 
L 3513 3500 
z
" transform="scale(0.015625)"/>
       <path id="DejaVuSans-69" d="M 603 3500 
L 1178 3500 
L 1178 0 
L 603 0 
L 603 3500 
z
M 603 4863 
L 1178 4863 
L 1178 4134 
L 603 4134 
L 603 4863 
z
" transform="scale(0.015625)"/>
       <path id="DejaVuSans-64" d="M 2906 2969 
L 2906 4863 
L 3481 4863 
L 3481 0 
L 2906 0 
L 2906 525 
Q 2725 213 2448 61 
Q 2172 -91 1784 -91 
Q 1150 -91 751 415 
Q 353 922 353 1747 
Q 353 2572 751 3078 
Q 1150 3584 1784 3584 
Q 2172 3584 2448 3432 
Q 2725 3281 2906 2969 
z
M 947 1747 
Q 947 1113 1208 752 
Q 1469 391 1925 391 
Q 2381 391 2643 752 
Q 2906 1113 2906 1747 
Q 2906 2381 2643 2742 
Q 2381 3103 1925 3103 
Q 1469 3103 1208 2742 
Q 947 2381 947 1747 
z
" transform="scale(0.015625)"/>
      </defs>
      <use xlink:href="#DejaVuSans-45"/>
      <use xlink:href="#DejaVuSans-78" x="63.183594"/>
      <use xlink:href="#DejaVuSans-69" x="122.363281"/>
      <use xlink:href="#DejaVuSans-74" x="150.146484"/>
      <use xlink:href="#DejaVuSans-65" x="189.355469"/>
      <use xlink:href="#DejaVuSans-64" x="250.878906"/>
     </g>
    </g>
    <g id="patch_108">
     <path d="M 1123.0375 65.836563 
L 1143.0375 65.836563 
L 1143.0375 58.836563 
L 1123.0375 58.836563 
z
" style="fill: #1f77b4; fill-opacity: 0.5; stroke: #000000; stroke-linejoin: miter"/>
    </g>
    <g id="text_18">
     <!-- 0 -->
     <g transform="translate(1151.0375 65.836563) scale(0.1 -0.1)">
      <use xlink:href="#DejaVuSans-30"/>
     </g>
    </g>
    <g id="patch_109">
     <path d="M 1123.0375 80.514688 
L 1143.0375 80.514688 
L 1143.0375 73.514688 
L 1123.0375 73.514688 
z
" style="fill: #ff7f0e; fill-opacity: 0.5; stroke: #000000; stroke-linejoin: miter"/>
    </g>
    <g id="text_19">
     <!-- 1 -->
     <g transform="translate(1151.0375 80.514688) scale(0.1 -0.1)">
      <use xlink:href="#DejaVuSans-31"/>
     </g>
    </g>
   </g>
  </g>
 </g>
 <defs>
  <clipPath id="p3b3a6c8191">
   <rect x="162" y="34.56" width="1004.4" height="221.76"/>
  </clipPath>
 </defs>
</svg>
