<?xml version="1.0" encoding="utf-8" standalone="no"?>
<!DOCTYPE svg PUBLIC "-//W3C//DTD SVG 1.1//EN"
  "http://www.w3.org/Graphics/SVG/1.1/DTD/svg11.dtd">
<svg xmlns:xlink="http://www.w3.org/1999/xlink" width="1296pt" height="288pt" viewBox="0 0 1296 288" xmlns="http://www.w3.org/2000/svg" version="1.1">
 <metadata>
  <rdf:RDF xmlns:dc="http://purl.org/dc/elements/1.1/" xmlns:cc="http://creativecommons.org/ns#" xmlns:rdf="http://www.w3.org/1999/02/22-rdf-syntax-ns#">
   <cc:Work>
    <dc:type rdf:resource="http://purl.org/dc/dcmitype/StillImage"/>
    <dc:date>2024-03-30T12:52:23.063929</dc:date>
    <dc:format>image/svg+xml</dc:format>
    <dc:creator>
     <cc:Agent>
      <dc:title>Matplotlib v3.7.5, https://matplotlib.org/</dc:title>
     </cc:Agent>
    </dc:creator>
   </cc:Work>
  </rdf:RDF>
 </metadata>
 <defs>
  <style type="text/css">*{stroke-linejoin: round; stroke-linecap: butt}</style>
 </defs>
 <g id="figure_1">
  <g id="patch_1">
   <path d="M 0 288 
L 1296 288 
L 1296 0 
L 0 0 
z
" style="fill: #ffffff"/>
  </g>
  <g id="axes_1">
   <g id="patch_2">
    <path d="M 162 256.32 
L 1166.4 256.32 
L 1166.4 34.56 
L 162 34.56 
z
" style="fill: #ffffff"/>
   </g>
   <g id="patch_3">
    <path d="M 207.654545 256.32 
L 225.916364 256.32 
L 225.916364 256.167912 
L 207.654545 256.167912 
z
" clip-path="url(#pf8f15949d1)" style="fill: #ff7f0e; fill-opacity: 0.5; stroke: #000000; stroke-linejoin: miter"/>
   </g>
   <g id="patch_4">
    <path d="M 225.916364 256.32 
L 244.178182 256.32 
L 244.178182 256.243956 
L 225.916364 256.243956 
z
" clip-path="url(#pf8f15949d1)" style="fill: #ff7f0e; fill-opacity: 0.5; stroke: #000000; stroke-linejoin: miter"/>
   </g>
   <g id="patch_5">
    <path d="M 244.178182 256.32 
L 262.44 256.32 
L 262.44 256.243956 
L 244.178182 256.243956 
z
" clip-path="url(#pf8f15949d1)" style="fill: #ff7f0e; fill-opacity: 0.5; stroke: #000000; stroke-linejoin: miter"/>
   </g>
   <g id="patch_6">
    <path d="M 262.44 256.32 
L 280.701818 256.32 
L 280.701818 256.32 
L 262.44 256.32 
z
" clip-path="url(#pf8f15949d1)" style="fill: #ff7f0e; fill-opacity: 0.5; stroke: #000000; stroke-linejoin: miter"/>
   </g>
   <g id="patch_7">
    <path d="M 280.701818 256.32 
L 298.963636 256.32 
L 298.963636 256.294652 
L 280.701818 256.294652 
z
" clip-path="url(#pf8f15949d1)" style="fill: #ff7f0e; fill-opacity: 0.5; stroke: #000000; stroke-linejoin: miter"/>
   </g>
   <g id="patch_8">
    <path d="M 298.963636 256.32 
L 317.225455 256.32 
L 317.225455 256.142564 
L 298.963636 256.142564 
z
" clip-path="url(#pf8f15949d1)" style="fill: #ff7f0e; fill-opacity: 0.5; stroke: #000000; stroke-linejoin: miter"/>
   </g>
   <g id="patch_9">
    <path d="M 317.225455 256.32 
L 335.487273 256.32 
L 335.487273 255.939779 
L 317.225455 255.939779 
z
" clip-path="url(#pf8f15949d1)" style="fill: #ff7f0e; fill-opacity: 0.5; stroke: #000000; stroke-linejoin: miter"/>
   </g>
   <g id="patch_10">
    <path d="M 335.487273 256.32 
L 353.749091 256.32 
L 353.749091 255.711647 
L 335.487273 255.711647 
z
" clip-path="url(#pf8f15949d1)" style="fill: #ff7f0e; fill-opacity: 0.5; stroke: #000000; stroke-linejoin: miter"/>
   </g>
   <g id="patch_11">
    <path d="M 353.749091 256.32 
L 372.010909 256.32 
L 372.010909 253.987979 
L 353.749091 253.987979 
z
" clip-path="url(#pf8f15949d1)" style="fill: #ff7f0e; fill-opacity: 0.5; stroke: #000000; stroke-linejoin: miter"/>
   </g>
   <g id="patch_12">
    <path d="M 372.010909 256.32 
L 390.272727 256.32 
L 390.272727 254.570984 
L 372.010909 254.570984 
z
" clip-path="url(#pf8f15949d1)" style="fill: #ff7f0e; fill-opacity: 0.5; stroke: #000000; stroke-linejoin: miter"/>
   </g>
   <g id="patch_13">
    <path d="M 390.272727 256.32 
L 408.534545 256.32 
L 408.534545 254.3682 
L 390.272727 254.3682 
z
" clip-path="url(#pf8f15949d1)" style="fill: #ff7f0e; fill-opacity: 0.5; stroke: #000000; stroke-linejoin: miter"/>
   </g>
   <g id="patch_14">
    <path d="M 408.534545 256.32 
L 426.796364 256.32 
L 426.796364 252.79662 
L 408.534545 252.79662 
z
" clip-path="url(#pf8f15949d1)" style="fill: #ff7f0e; fill-opacity: 0.5; stroke: #000000; stroke-linejoin: miter"/>
   </g>
   <g id="patch_15">
    <path d="M 426.796364 256.32 
L 445.058182 256.32 
L 445.058182 251.503869 
L 426.796364 251.503869 
z
" clip-path="url(#pf8f15949d1)" style="fill: #ff7f0e; fill-opacity: 0.5; stroke: #000000; stroke-linejoin: miter"/>
   </g>
   <g id="patch_16">
    <path d="M 445.058182 256.32 
L 463.32 256.32 
L 463.32 251.377129 
L 445.058182 251.377129 
z
" clip-path="url(#pf8f15949d1)" style="fill: #ff7f0e; fill-opacity: 0.5; stroke: #000000; stroke-linejoin: miter"/>
   </g>
   <g id="patch_17">
    <path d="M 463.32 256.32 
L 481.581818 256.32 
L 481.581818 249.93229 
L 463.32 249.93229 
z
" clip-path="url(#pf8f15949d1)" style="fill: #ff7f0e; fill-opacity: 0.5; stroke: #000000; stroke-linejoin: miter"/>
   </g>
   <g id="patch_18">
    <path d="M 481.581818 256.32 
L 499.843636 256.32 
L 499.843636 251.960134 
L 481.581818 251.960134 
z
" clip-path="url(#pf8f15949d1)" style="fill: #ff7f0e; fill-opacity: 0.5; stroke: #000000; stroke-linejoin: miter"/>
   </g>
   <g id="patch_19">
    <path d="M 499.843636 256.32 
L 518.105455 256.32 
L 518.105455 248.614191 
L 499.843636 248.614191 
z
" clip-path="url(#pf8f15949d1)" style="fill: #ff7f0e; fill-opacity: 0.5; stroke: #000000; stroke-linejoin: miter"/>
   </g>
   <g id="patch_20">
    <path d="M 518.105455 256.32 
L 536.367273 256.32 
L 536.367273 240.223985 
L 518.105455 240.223985 
z
" clip-path="url(#pf8f15949d1)" style="fill: #ff7f0e; fill-opacity: 0.5; stroke: #000000; stroke-linejoin: miter"/>
   </g>
   <g id="patch_21">
    <path d="M 536.367273 256.32 
L 554.629091 256.32 
L 554.629091 237.765223 
L 536.367273 237.765223 
z
" clip-path="url(#pf8f15949d1)" style="fill: #ff7f0e; fill-opacity: 0.5; stroke: #000000; stroke-linejoin: miter"/>
   </g>
   <g id="patch_22">
    <path d="M 554.629091 256.32 
L 572.890909 256.32 
L 572.890909 235.635987 
L 554.629091 235.635987 
z
" clip-path="url(#pf8f15949d1)" style="fill: #ff7f0e; fill-opacity: 0.5; stroke: #000000; stroke-linejoin: miter"/>
   </g>
   <g id="patch_23">
    <path d="M 572.890909 256.32 
L 591.152727 256.32 
L 591.152727 230.008718 
L 572.890909 230.008718 
z
" clip-path="url(#pf8f15949d1)" style="fill: #ff7f0e; fill-opacity: 0.5; stroke: #000000; stroke-linejoin: miter"/>
   </g>
   <g id="patch_24">
    <path d="M 591.152727 256.32 
L 609.414545 256.32 
L 609.414545 236.218992 
L 591.152727 236.218992 
z
" clip-path="url(#pf8f15949d1)" style="fill: #ff7f0e; fill-opacity: 0.5; stroke: #000000; stroke-linejoin: miter"/>
   </g>
   <g id="patch_25">
    <path d="M 609.414545 256.32 
L 627.676364 256.32 
L 627.676364 231.225425 
L 609.414545 231.225425 
z
" clip-path="url(#pf8f15949d1)" style="fill: #ff7f0e; fill-opacity: 0.5; stroke: #000000; stroke-linejoin: miter"/>
   </g>
   <g id="patch_26">
    <path d="M 627.676364 256.32 
L 645.938182 256.32 
L 645.938182 217.157254 
L 627.676364 217.157254 
z
" clip-path="url(#pf8f15949d1)" style="fill: #ff7f0e; fill-opacity: 0.5; stroke: #000000; stroke-linejoin: miter"/>
   </g>
   <g id="patch_27">
    <path d="M 645.938182 256.32 
L 664.2 256.32 
L 664.2 211.960903 
L 645.938182 211.960903 
z
" clip-path="url(#pf8f15949d1)" style="fill: #ff7f0e; fill-opacity: 0.5; stroke: #000000; stroke-linejoin: miter"/>
   </g>
   <g id="patch_28">
    <path d="M 664.2 256.32 
L 682.461818 256.32 
L 682.461818 232.290043 
L 664.2 232.290043 
z
" clip-path="url(#pf8f15949d1)" style="fill: #ff7f0e; fill-opacity: 0.5; stroke: #000000; stroke-linejoin: miter"/>
   </g>
   <g id="patch_29">
    <path d="M 682.461818 256.32 
L 700.723636 256.32 
L 700.723636 224.533538 
L 682.461818 224.533538 
z
" clip-path="url(#pf8f15949d1)" style="fill: #ff7f0e; fill-opacity: 0.5; stroke: #000000; stroke-linejoin: miter"/>
   </g>
   <g id="patch_30">
    <path d="M 700.723636 256.32 
L 718.985455 256.32 
L 718.985455 223.367528 
L 700.723636 223.367528 
z
" clip-path="url(#pf8f15949d1)" style="fill: #ff7f0e; fill-opacity: 0.5; stroke: #000000; stroke-linejoin: miter"/>
   </g>
   <g id="patch_31">
    <path d="M 718.985455 256.32 
L 737.247273 256.32 
L 737.247273 206.764551 
L 718.985455 206.764551 
z
" clip-path="url(#pf8f15949d1)" style="fill: #ff7f0e; fill-opacity: 0.5; stroke: #000000; stroke-linejoin: miter"/>
   </g>
   <g id="patch_32">
    <path d="M 737.247273 256.32 
L 755.509091 256.32 
L 755.509091 211.175113 
L 737.247273 211.175113 
z
" clip-path="url(#pf8f15949d1)" style="fill: #ff7f0e; fill-opacity: 0.5; stroke: #000000; stroke-linejoin: miter"/>
   </g>
   <g id="patch_33">
    <path d="M 755.509091 256.32 
L 773.770909 256.32 
L 773.770909 214.951973 
L 755.509091 214.951973 
z
" clip-path="url(#pf8f15949d1)" style="fill: #ff7f0e; fill-opacity: 0.5; stroke: #000000; stroke-linejoin: miter"/>
   </g>
   <g id="patch_34">
    <path d="M 773.770909 256.32 
L 792.032727 256.32 
L 792.032727 220.452501 
L 773.770909 220.452501 
z
" clip-path="url(#pf8f15949d1)" style="fill: #ff7f0e; fill-opacity: 0.5; stroke: #000000; stroke-linejoin: miter"/>
   </g>
   <g id="patch_35">
    <path d="M 792.032727 256.32 
L 810.294545 256.32 
L 810.294545 219.844148 
L 792.032727 219.844148 
z
" clip-path="url(#pf8f15949d1)" style="fill: #ff7f0e; fill-opacity: 0.5; stroke: #000000; stroke-linejoin: miter"/>
   </g>
   <g id="patch_36">
    <path d="M 810.294545 256.32 
L 828.556364 256.32 
L 828.556364 204.483226 
L 810.294545 204.483226 
z
" clip-path="url(#pf8f15949d1)" style="fill: #ff7f0e; fill-opacity: 0.5; stroke: #000000; stroke-linejoin: miter"/>
   </g>
   <g id="patch_37">
    <path d="M 828.556364 256.32 
L 846.818182 256.32 
L 846.818182 225.953029 
L 828.556364 225.953029 
z
" clip-path="url(#pf8f15949d1)" style="fill: #ff7f0e; fill-opacity: 0.5; stroke: #000000; stroke-linejoin: miter"/>
   </g>
   <g id="patch_38">
    <path d="M 846.818182 256.32 
L 865.08 256.32 
L 865.08 216.117984 
L 846.818182 216.117984 
z
" clip-path="url(#pf8f15949d1)" style="fill: #ff7f0e; fill-opacity: 0.5; stroke: #000000; stroke-linejoin: miter"/>
   </g>
   <g id="patch_39">
    <path d="M 865.08 256.32 
L 883.341818 256.32 
L 883.341818 219.058358 
L 865.08 219.058358 
z
" clip-path="url(#pf8f15949d1)" style="fill: #ff7f0e; fill-opacity: 0.5; stroke: #000000; stroke-linejoin: miter"/>
   </g>
   <g id="patch_40">
    <path d="M 883.341818 256.32 
L 901.603636 256.32 
L 901.603636 228.9441 
L 883.341818 228.9441 
z
" clip-path="url(#pf8f15949d1)" style="fill: #ff7f0e; fill-opacity: 0.5; stroke: #000000; stroke-linejoin: miter"/>
   </g>
   <g id="patch_41">
    <path d="M 901.603636 256.32 
L 919.865455 256.32 
L 919.865455 227.144388 
L 901.603636 227.144388 
z
" clip-path="url(#pf8f15949d1)" style="fill: #ff7f0e; fill-opacity: 0.5; stroke: #000000; stroke-linejoin: miter"/>
   </g>
   <g id="patch_42">
    <path d="M 919.865455 256.32 
L 938.127273 256.32 
L 938.127273 229.780586 
L 919.865455 229.780586 
z
" clip-path="url(#pf8f15949d1)" style="fill: #ff7f0e; fill-opacity: 0.5; stroke: #000000; stroke-linejoin: miter"/>
   </g>
   <g id="patch_43">
    <path d="M 938.127273 256.32 
L 956.389091 256.32 
L 956.389091 229.020144 
L 938.127273 229.020144 
z
" clip-path="url(#pf8f15949d1)" style="fill: #ff7f0e; fill-opacity: 0.5; stroke: #000000; stroke-linejoin: miter"/>
   </g>
   <g id="patch_44">
    <path d="M 956.389091 256.32 
L 974.650909 256.32 
L 974.650909 246.028689 
L 956.389091 246.028689 
z
" clip-path="url(#pf8f15949d1)" style="fill: #ff7f0e; fill-opacity: 0.5; stroke: #000000; stroke-linejoin: miter"/>
   </g>
   <g id="patch_45">
    <path d="M 974.650909 256.32 
L 992.912727 256.32 
L 992.912727 245.699165 
L 974.650909 245.699165 
z
" clip-path="url(#pf8f15949d1)" style="fill: #ff7f0e; fill-opacity: 0.5; stroke: #000000; stroke-linejoin: miter"/>
   </g>
   <g id="patch_46">
    <path d="M 992.912727 256.32 
L 1011.174545 256.32 
L 1011.174545 251.098301 
L 992.912727 251.098301 
z
" clip-path="url(#pf8f15949d1)" style="fill: #ff7f0e; fill-opacity: 0.5; stroke: #000000; stroke-linejoin: miter"/>
   </g>
   <g id="patch_47">
    <path d="M 1011.174545 256.32 
L 1029.436364 256.32 
L 1029.436364 248.411407 
L 1011.174545 248.411407 
z
" clip-path="url(#pf8f15949d1)" style="fill: #ff7f0e; fill-opacity: 0.5; stroke: #000000; stroke-linejoin: miter"/>
   </g>
   <g id="patch_48">
    <path d="M 1029.436364 256.32 
L 1047.698182 256.32 
L 1047.698182 250.135074 
L 1029.436364 250.135074 
z
" clip-path="url(#pf8f15949d1)" style="fill: #ff7f0e; fill-opacity: 0.5; stroke: #000000; stroke-linejoin: miter"/>
   </g>
   <g id="patch_49">
    <path d="M 1047.698182 256.32 
L 1065.96 256.32 
L 1065.96 250.97156 
L 1047.698182 250.97156 
z
" clip-path="url(#pf8f15949d1)" style="fill: #ff7f0e; fill-opacity: 0.5; stroke: #000000; stroke-linejoin: miter"/>
   </g>
   <g id="patch_50">
    <path d="M 1065.96 256.32 
L 1084.221818 256.32 
L 1084.221818 252.948709 
L 1065.96 252.948709 
z
" clip-path="url(#pf8f15949d1)" style="fill: #ff7f0e; fill-opacity: 0.5; stroke: #000000; stroke-linejoin: miter"/>
   </g>
   <g id="patch_51">
    <path d="M 1084.221818 256.32 
L 1102.483636 256.32 
L 1102.483636 252.340355 
L 1084.221818 252.340355 
z
" clip-path="url(#pf8f15949d1)" style="fill: #ff7f0e; fill-opacity: 0.5; stroke: #000000; stroke-linejoin: miter"/>
   </g>
   <g id="patch_52">
    <path d="M 1102.483636 256.32 
L 1120.745455 256.32 
L 1120.745455 240.93373 
L 1102.483636 240.93373 
z
" clip-path="url(#pf8f15949d1)" style="fill: #ff7f0e; fill-opacity: 0.5; stroke: #000000; stroke-linejoin: miter"/>
   </g>
   <g id="patch_53">
    <path d="M 207.654545 256.32 
L 225.916364 256.32 
L 225.916364 255.914431 
L 207.654545 255.914431 
z
" clip-path="url(#pf8f15949d1)" style="fill: #1f77b4; fill-opacity: 0.5; stroke: #000000; stroke-linejoin: miter"/>
   </g>
   <g id="patch_54">
    <path d="M 225.916364 256.32 
L 244.178182 256.32 
L 244.178182 255.939779 
L 225.916364 255.939779 
z
" clip-path="url(#pf8f15949d1)" style="fill: #1f77b4; fill-opacity: 0.5; stroke: #000000; stroke-linejoin: miter"/>
   </g>
   <g id="patch_55">
    <path d="M 244.178182 256.32 
L 262.44 256.32 
L 262.44 256.19326 
L 244.178182 256.19326 
z
" clip-path="url(#pf8f15949d1)" style="fill: #1f77b4; fill-opacity: 0.5; stroke: #000000; stroke-linejoin: miter"/>
   </g>
   <g id="patch_56">
    <path d="M 262.44 256.32 
L 280.701818 256.32 
L 280.701818 256.19326 
L 262.44 256.19326 
z
" clip-path="url(#pf8f15949d1)" style="fill: #1f77b4; fill-opacity: 0.5; stroke: #000000; stroke-linejoin: miter"/>
   </g>
   <g id="patch_57">
    <path d="M 280.701818 256.32 
L 298.963636 256.32 
L 298.963636 256.269304 
L 280.701818 256.269304 
z
" clip-path="url(#pf8f15949d1)" style="fill: #1f77b4; fill-opacity: 0.5; stroke: #000000; stroke-linejoin: miter"/>
   </g>
   <g id="patch_58">
    <path d="M 298.963636 256.32 
L 317.225455 256.32 
L 317.225455 255.889083 
L 298.963636 255.889083 
z
" clip-path="url(#pf8f15949d1)" style="fill: #1f77b4; fill-opacity: 0.5; stroke: #000000; stroke-linejoin: miter"/>
   </g>
   <g id="patch_59">
    <path d="M 317.225455 256.32 
L 335.487273 256.32 
L 335.487273 254.570984 
L 317.225455 254.570984 
z
" clip-path="url(#pf8f15949d1)" style="fill: #1f77b4; fill-opacity: 0.5; stroke: #000000; stroke-linejoin: miter"/>
   </g>
   <g id="patch_60">
    <path d="M 335.487273 256.32 
L 353.749091 256.32 
L 353.749091 254.317504 
L 335.487273 254.317504 
z
" clip-path="url(#pf8f15949d1)" style="fill: #1f77b4; fill-opacity: 0.5; stroke: #000000; stroke-linejoin: miter"/>
   </g>
   <g id="patch_61">
    <path d="M 353.749091 256.32 
L 372.010909 256.32 
L 372.010909 249.349285 
L 353.749091 249.349285 
z
" clip-path="url(#pf8f15949d1)" style="fill: #1f77b4; fill-opacity: 0.5; stroke: #000000; stroke-linejoin: miter"/>
   </g>
   <g id="patch_62">
    <path d="M 372.010909 256.32 
L 390.272727 256.32 
L 390.272727 250.642036 
L 372.010909 250.642036 
z
" clip-path="url(#pf8f15949d1)" style="fill: #1f77b4; fill-opacity: 0.5; stroke: #000000; stroke-linejoin: miter"/>
   </g>
   <g id="patch_63">
    <path d="M 390.272727 256.32 
L 408.534545 256.32 
L 408.534545 250.109726 
L 390.272727 250.109726 
z
" clip-path="url(#pf8f15949d1)" style="fill: #1f77b4; fill-opacity: 0.5; stroke: #000000; stroke-linejoin: miter"/>
   </g>
   <g id="patch_64">
    <path d="M 408.534545 256.32 
L 426.796364 256.32 
L 426.796364 244.837331 
L 408.534545 244.837331 
z
" clip-path="url(#pf8f15949d1)" style="fill: #1f77b4; fill-opacity: 0.5; stroke: #000000; stroke-linejoin: miter"/>
   </g>
   <g id="patch_65">
    <path d="M 426.796364 256.32 
L 445.058182 256.32 
L 445.058182 239.210062 
L 426.796364 239.210062 
z
" clip-path="url(#pf8f15949d1)" style="fill: #1f77b4; fill-opacity: 0.5; stroke: #000000; stroke-linejoin: miter"/>
   </g>
   <g id="patch_66">
    <path d="M 445.058182 256.32 
L 463.32 256.32 
L 463.32 239.057974 
L 445.058182 239.057974 
z
" clip-path="url(#pf8f15949d1)" style="fill: #1f77b4; fill-opacity: 0.5; stroke: #000000; stroke-linejoin: miter"/>
   </g>
   <g id="patch_67">
    <path d="M 463.32 256.32 
L 481.581818 256.32 
L 481.581818 233.557446 
L 463.32 233.557446 
z
" clip-path="url(#pf8f15949d1)" style="fill: #1f77b4; fill-opacity: 0.5; stroke: #000000; stroke-linejoin: miter"/>
   </g>
   <g id="patch_68">
    <path d="M 481.581818 256.32 
L 499.843636 256.32 
L 499.843636 237.258262 
L 481.581818 237.258262 
z
" clip-path="url(#pf8f15949d1)" style="fill: #1f77b4; fill-opacity: 0.5; stroke: #000000; stroke-linejoin: miter"/>
   </g>
   <g id="patch_69">
    <path d="M 499.843636 256.32 
L 518.105455 256.32 
L 518.105455 225.496764 
L 499.843636 225.496764 
z
" clip-path="url(#pf8f15949d1)" style="fill: #1f77b4; fill-opacity: 0.5; stroke: #000000; stroke-linejoin: miter"/>
   </g>
   <g id="patch_70">
    <path d="M 518.105455 256.32 
L 536.367273 256.32 
L 536.367273 210.490715 
L 518.105455 210.490715 
z
" clip-path="url(#pf8f15949d1)" style="fill: #1f77b4; fill-opacity: 0.5; stroke: #000000; stroke-linejoin: miter"/>
   </g>
   <g id="patch_71">
    <path d="M 536.367273 256.32 
L 554.629091 256.32 
L 554.629091 206.308286 
L 536.367273 206.308286 
z
" clip-path="url(#pf8f15949d1)" style="fill: #1f77b4; fill-opacity: 0.5; stroke: #000000; stroke-linejoin: miter"/>
   </g>
   <g id="patch_72">
    <path d="M 554.629091 256.32 
L 572.890909 256.32 
L 572.890909 197.385771 
L 554.629091 197.385771 
z
" clip-path="url(#pf8f15949d1)" style="fill: #1f77b4; fill-opacity: 0.5; stroke: #000000; stroke-linejoin: miter"/>
   </g>
   <g id="patch_73">
    <path d="M 572.890909 256.32 
L 591.152727 256.32 
L 591.152727 179.642132 
L 572.890909 179.642132 
z
" clip-path="url(#pf8f15949d1)" style="fill: #1f77b4; fill-opacity: 0.5; stroke: #000000; stroke-linejoin: miter"/>
   </g>
   <g id="patch_74">
    <path d="M 591.152727 256.32 
L 609.414545 256.32 
L 609.414545 185.294748 
L 591.152727 185.294748 
z
" clip-path="url(#pf8f15949d1)" style="fill: #1f77b4; fill-opacity: 0.5; stroke: #000000; stroke-linejoin: miter"/>
   </g>
   <g id="patch_75">
    <path d="M 609.414545 256.32 
L 627.676364 256.32 
L 627.676364 161.340835 
L 609.414545 161.340835 
z
" clip-path="url(#pf8f15949d1)" style="fill: #1f77b4; fill-opacity: 0.5; stroke: #000000; stroke-linejoin: miter"/>
   </g>
   <g id="patch_76">
    <path d="M 627.676364 256.32 
L 645.938182 256.32 
L 645.938182 119.972808 
L 627.676364 119.972808 
z
" clip-path="url(#pf8f15949d1)" style="fill: #1f77b4; fill-opacity: 0.5; stroke: #000000; stroke-linejoin: miter"/>
   </g>
   <g id="patch_77">
    <path d="M 645.938182 256.32 
L 664.2 256.32 
L 664.2 96.475161 
L 645.938182 96.475161 
z
" clip-path="url(#pf8f15949d1)" style="fill: #1f77b4; fill-opacity: 0.5; stroke: #000000; stroke-linejoin: miter"/>
   </g>
   <g id="patch_78">
    <path d="M 664.2 256.32 
L 682.461818 256.32 
L 682.461818 169.198733 
L 664.2 169.198733 
z
" clip-path="url(#pf8f15949d1)" style="fill: #1f77b4; fill-opacity: 0.5; stroke: #000000; stroke-linejoin: miter"/>
   </g>
   <g id="patch_79">
    <path d="M 682.461818 256.32 
L 700.723636 256.32 
L 700.723636 134.700029 
L 682.461818 134.700029 
z
" clip-path="url(#pf8f15949d1)" style="fill: #1f77b4; fill-opacity: 0.5; stroke: #000000; stroke-linejoin: miter"/>
   </g>
   <g id="patch_80">
    <path d="M 700.723636 256.32 
L 718.985455 256.32 
L 718.985455 144.230898 
L 700.723636 144.230898 
z
" clip-path="url(#pf8f15949d1)" style="fill: #1f77b4; fill-opacity: 0.5; stroke: #000000; stroke-linejoin: miter"/>
   </g>
   <g id="patch_81">
    <path d="M 718.985455 256.32 
L 737.247273 256.32 
L 737.247273 94.016399 
L 718.985455 94.016399 
z
" clip-path="url(#pf8f15949d1)" style="fill: #1f77b4; fill-opacity: 0.5; stroke: #000000; stroke-linejoin: miter"/>
   </g>
   <g id="patch_82">
    <path d="M 737.247273 256.32 
L 755.509091 256.32 
L 755.509091 100.480154 
L 737.247273 100.480154 
z
" clip-path="url(#pf8f15949d1)" style="fill: #1f77b4; fill-opacity: 0.5; stroke: #000000; stroke-linejoin: miter"/>
   </g>
   <g id="patch_83">
    <path d="M 755.509091 256.32 
L 773.770909 256.32 
L 773.770909 110.213807 
L 755.509091 110.213807 
z
" clip-path="url(#pf8f15949d1)" style="fill: #1f77b4; fill-opacity: 0.5; stroke: #000000; stroke-linejoin: miter"/>
   </g>
   <g id="patch_84">
    <path d="M 773.770909 256.32 
L 792.032727 256.32 
L 792.032727 109.65615 
L 773.770909 109.65615 
z
" clip-path="url(#pf8f15949d1)" style="fill: #1f77b4; fill-opacity: 0.5; stroke: #000000; stroke-linejoin: miter"/>
   </g>
   <g id="patch_85">
    <path d="M 792.032727 256.32 
L 810.294545 256.32 
L 810.294545 92.064599 
L 792.032727 92.064599 
z
" clip-path="url(#pf8f15949d1)" style="fill: #1f77b4; fill-opacity: 0.5; stroke: #000000; stroke-linejoin: miter"/>
   </g>
   <g id="patch_86">
    <path d="M 810.294545 256.32 
L 828.556364 256.32 
L 828.556364 45.12 
L 810.294545 45.12 
z
" clip-path="url(#pf8f15949d1)" style="fill: #1f77b4; fill-opacity: 0.5; stroke: #000000; stroke-linejoin: miter"/>
   </g>
   <g id="patch_87">
    <path d="M 828.556364 256.32 
L 846.818182 256.32 
L 846.818182 110.594028 
L 828.556364 110.594028 
z
" clip-path="url(#pf8f15949d1)" style="fill: #1f77b4; fill-opacity: 0.5; stroke: #000000; stroke-linejoin: miter"/>
   </g>
   <g id="patch_88">
    <path d="M 846.818182 256.32 
L 865.08 256.32 
L 865.08 100.581546 
L 846.818182 100.581546 
z
" clip-path="url(#pf8f15949d1)" style="fill: #1f77b4; fill-opacity: 0.5; stroke: #000000; stroke-linejoin: miter"/>
   </g>
   <g id="patch_89">
    <path d="M 865.08 256.32 
L 883.341818 256.32 
L 883.341818 79.821488 
L 865.08 79.821488 
z
" clip-path="url(#pf8f15949d1)" style="fill: #1f77b4; fill-opacity: 0.5; stroke: #000000; stroke-linejoin: miter"/>
   </g>
   <g id="patch_90">
    <path d="M 883.341818 256.32 
L 901.603636 256.32 
L 901.603636 146.15735 
L 883.341818 146.15735 
z
" clip-path="url(#pf8f15949d1)" style="fill: #1f77b4; fill-opacity: 0.5; stroke: #000000; stroke-linejoin: miter"/>
   </g>
   <g id="patch_91">
    <path d="M 901.603636 256.32 
L 919.865455 256.32 
L 919.865455 150.415823 
L 901.603636 150.415823 
z
" clip-path="url(#pf8f15949d1)" style="fill: #1f77b4; fill-opacity: 0.5; stroke: #000000; stroke-linejoin: miter"/>
   </g>
   <g id="patch_92">
    <path d="M 919.865455 256.32 
L 938.127273 256.32 
L 938.127273 169.62965 
L 919.865455 169.62965 
z
" clip-path="url(#pf8f15949d1)" style="fill: #1f77b4; fill-opacity: 0.5; stroke: #000000; stroke-linejoin: miter"/>
   </g>
   <g id="patch_93">
    <path d="M 938.127273 256.32 
L 956.389091 256.32 
L 956.389091 159.895996 
L 938.127273 159.895996 
z
" clip-path="url(#pf8f15949d1)" style="fill: #1f77b4; fill-opacity: 0.5; stroke: #000000; stroke-linejoin: miter"/>
   </g>
   <g id="patch_94">
    <path d="M 956.389091 256.32 
L 974.650909 256.32 
L 974.650909 215.940547 
L 956.389091 215.940547 
z
" clip-path="url(#pf8f15949d1)" style="fill: #1f77b4; fill-opacity: 0.5; stroke: #000000; stroke-linejoin: miter"/>
   </g>
   <g id="patch_95">
    <path d="M 974.650909 256.32 
L 992.912727 256.32 
L 992.912727 199.667096 
L 974.650909 199.667096 
z
" clip-path="url(#pf8f15949d1)" style="fill: #1f77b4; fill-opacity: 0.5; stroke: #000000; stroke-linejoin: miter"/>
   </g>
   <g id="patch_96">
    <path d="M 992.912727 256.32 
L 1011.174545 256.32 
L 1011.174545 237.207566 
L 992.912727 237.207566 
z
" clip-path="url(#pf8f15949d1)" style="fill: #1f77b4; fill-opacity: 0.5; stroke: #000000; stroke-linejoin: miter"/>
   </g>
   <g id="patch_97">
    <path d="M 1011.174545 256.32 
L 1029.436364 256.32 
L 1029.436364 228.842708 
L 1011.174545 228.842708 
z
" clip-path="url(#pf8f15949d1)" style="fill: #1f77b4; fill-opacity: 0.5; stroke: #000000; stroke-linejoin: miter"/>
   </g>
   <g id="patch_98">
    <path d="M 1029.436364 256.32 
L 1047.698182 256.32 
L 1047.698182 231.580298 
L 1029.436364 231.580298 
z
" clip-path="url(#pf8f15949d1)" style="fill: #1f77b4; fill-opacity: 0.5; stroke: #000000; stroke-linejoin: miter"/>
   </g>
   <g id="patch_99">
    <path d="M 1047.698182 256.32 
L 1065.96 256.32 
L 1065.96 237.486395 
L 1047.698182 237.486395 
z
" clip-path="url(#pf8f15949d1)" style="fill: #1f77b4; fill-opacity: 0.5; stroke: #000000; stroke-linejoin: miter"/>
   </g>
   <g id="patch_100">
    <path d="M 1065.96 256.32 
L 1084.221818 256.32 
L 1084.221818 242.302525 
L 1065.96 242.302525 
z
" clip-path="url(#pf8f15949d1)" style="fill: #1f77b4; fill-opacity: 0.5; stroke: #000000; stroke-linejoin: miter"/>
   </g>
   <g id="patch_101">
    <path d="M 1084.221818 256.32 
L 1102.483636 256.32 
L 1102.483636 243.54458 
L 1084.221818 243.54458 
z
" clip-path="url(#pf8f15949d1)" style="fill: #1f77b4; fill-opacity: 0.5; stroke: #000000; stroke-linejoin: miter"/>
   </g>
   <g id="patch_102">
    <path d="M 1102.483636 256.32 
L 1120.745455 256.32 
L 1120.745455 192.82312 
L 1102.483636 192.82312 
z
" clip-path="url(#pf8f15949d1)" style="fill: #1f77b4; fill-opacity: 0.5; stroke: #000000; stroke-linejoin: miter"/>
   </g>
   <g id="matplotlib.axis_1">
    <g id="xtick_1">
     <g id="line2d_1">
      <defs>
       <path id="me2446af0af" d="M 0 0 
L 0 3.5 
" style="stroke: #000000; stroke-width: 0.8"/>
      </defs>
      <g>
       <use xlink:href="#me2446af0af" x="298.963636" y="256.32" style="stroke: #000000; stroke-width: 0.8"/>
      </g>
     </g>
     <g id="text_1">
      <!-- 400 -->
      <g transform="translate(289.419886 270.918437) scale(0.1 -0.1)">
       <defs>
        <path id="DejaVuSans-34" d="M 2419 4116 
L 825 1625 
L 2419 1625 
L 2419 4116 
z
M 2253 4666 
L 3047 4666 
L 3047 1625 
L 3713 1625 
L 3713 1100 
L 3047 1100 
L 3047 0 
L 2419 0 
L 2419 1100 
L 313 1100 
L 313 1709 
L 2253 4666 
z
" transform="scale(0.015625)"/>
        <path id="DejaVuSans-30" d="M 2034 4250 
Q 1547 4250 1301 3770 
Q 1056 3291 1056 2328 
Q 1056 1369 1301 889 
Q 1547 409 2034 409 
Q 2525 409 2770 889 
Q 3016 1369 3016 2328 
Q 3016 3291 2770 3770 
Q 2525 4250 2034 4250 
z
M 2034 4750 
Q 2819 4750 3233 4129 
Q 3647 3509 3647 2328 
Q 3647 1150 3233 529 
Q 2819 -91 2034 -91 
Q 1250 -91 836 529 
Q 422 1150 422 2328 
Q 422 3509 836 4129 
Q 1250 4750 2034 4750 
z
" transform="scale(0.015625)"/>
       </defs>
       <use xlink:href="#DejaVuSans-34"/>
       <use xlink:href="#DejaVuSans-30" x="63.623047"/>
       <use xlink:href="#DejaVuSans-30" x="127.246094"/>
      </g>
     </g>
    </g>
    <g id="xtick_2">
     <g id="line2d_2">
      <g>
       <use xlink:href="#me2446af0af" x="481.581818" y="256.32" style="stroke: #000000; stroke-width: 0.8"/>
      </g>
     </g>
     <g id="text_2">
      <!-- 500 -->
      <g transform="translate(472.038068 270.918437) scale(0.1 -0.1)">
       <defs>
        <path id="DejaVuSans-35" d="M 691 4666 
L 3169 4666 
L 3169 4134 
L 1269 4134 
L 1269 2991 
Q 1406 3038 1543 3061 
Q 1681 3084 1819 3084 
Q 2600 3084 3056 2656 
Q 3513 2228 3513 1497 
Q 3513 744 3044 326 
Q 2575 -91 1722 -91 
Q 1428 -91 1123 -41 
Q 819 9 494 109 
L 494 744 
Q 775 591 1075 516 
Q 1375 441 1709 441 
Q 2250 441 2565 725 
Q 2881 1009 2881 1497 
Q 2881 1984 2565 2268 
Q 2250 2553 1709 2553 
Q 1456 2553 1204 2497 
Q 953 2441 691 2322 
L 691 4666 
z
" transform="scale(0.015625)"/>
       </defs>
       <use xlink:href="#DejaVuSans-35"/>
       <use xlink:href="#DejaVuSans-30" x="63.623047"/>
       <use xlink:href="#DejaVuSans-30" x="127.246094"/>
      </g>
     </g>
    </g>
    <g id="xtick_3">
     <g id="line2d_3">
      <g>
       <use xlink:href="#me2446af0af" x="664.2" y="256.32" style="stroke: #000000; stroke-width: 0.8"/>
      </g>
     </g>
     <g id="text_3">
      <!-- 600 -->
      <g transform="translate(654.65625 270.918437) scale(0.1 -0.1)">
       <defs>
        <path id="DejaVuSans-36" d="M 2113 2584 
Q 1688 2584 1439 2293 
Q 1191 2003 1191 1497 
Q 1191 994 1439 701 
Q 1688 409 2113 409 
Q 2538 409 2786 701 
Q 3034 994 3034 1497 
Q 3034 2003 2786 2293 
Q 2538 2584 2113 2584 
z
M 3366 4563 
L 3366 3988 
Q 3128 4100 2886 4159 
Q 2644 4219 2406 4219 
Q 1781 4219 1451 3797 
Q 1122 3375 1075 2522 
Q 1259 2794 1537 2939 
Q 1816 3084 2150 3084 
Q 2853 3084 3261 2657 
Q 3669 2231 3669 1497 
Q 3669 778 3244 343 
Q 2819 -91 2113 -91 
Q 1303 -91 875 529 
Q 447 1150 447 2328 
Q 447 3434 972 4092 
Q 1497 4750 2381 4750 
Q 2619 4750 2861 4703 
Q 3103 4656 3366 4563 
z
" transform="scale(0.015625)"/>
       </defs>
       <use xlink:href="#DejaVuSans-36"/>
       <use xlink:href="#DejaVuSans-30" x="63.623047"/>
       <use xlink:href="#DejaVuSans-30" x="127.246094"/>
      </g>
     </g>
    </g>
    <g id="xtick_4">
     <g id="line2d_4">
      <g>
       <use xlink:href="#me2446af0af" x="846.818182" y="256.32" style="stroke: #000000; stroke-width: 0.8"/>
      </g>
     </g>
     <g id="text_4">
      <!-- 700 -->
      <g transform="translate(837.274432 270.918437) scale(0.1 -0.1)">
       <defs>
        <path id="DejaVuSans-37" d="M 525 4666 
L 3525 4666 
L 3525 4397 
L 1831 0 
L 1172 0 
L 2766 4134 
L 525 4134 
L 525 4666 
z
" transform="scale(0.015625)"/>
       </defs>
       <use xlink:href="#DejaVuSans-37"/>
       <use xlink:href="#DejaVuSans-30" x="63.623047"/>
       <use xlink:href="#DejaVuSans-30" x="127.246094"/>
      </g>
     </g>
    </g>
    <g id="xtick_5">
     <g id="line2d_5">
      <g>
       <use xlink:href="#me2446af0af" x="1029.436364" y="256.32" style="stroke: #000000; stroke-width: 0.8"/>
      </g>
     </g>
     <g id="text_5">
      <!-- 800 -->
      <g transform="translate(1019.892614 270.918437) scale(0.1 -0.1)">
       <defs>
        <path id="DejaVuSans-38" d="M 2034 2216 
Q 1584 2216 1326 1975 
Q 1069 1734 1069 1313 
Q 1069 891 1326 650 
Q 1584 409 2034 409 
Q 2484 409 2743 651 
Q 3003 894 3003 1313 
Q 3003 1734 2745 1975 
Q 2488 2216 2034 2216 
z
M 1403 2484 
Q 997 2584 770 2862 
Q 544 3141 544 3541 
Q 544 4100 942 4425 
Q 1341 4750 2034 4750 
Q 2731 4750 3128 4425 
Q 3525 4100 3525 3541 
Q 3525 3141 3298 2862 
Q 3072 2584 2669 2484 
Q 3125 2378 3379 2068 
Q 3634 1759 3634 1313 
Q 3634 634 3220 271 
Q 2806 -91 2034 -91 
Q 1263 -91 848 271 
Q 434 634 434 1313 
Q 434 1759 690 2068 
Q 947 2378 1403 2484 
z
M 1172 3481 
Q 1172 3119 1398 2916 
Q 1625 2713 2034 2713 
Q 2441 2713 2670 2916 
Q 2900 3119 2900 3481 
Q 2900 3844 2670 4047 
Q 2441 4250 2034 4250 
Q 1625 4250 1398 4047 
Q 1172 3844 1172 3481 
z
" transform="scale(0.015625)"/>
       </defs>
       <use xlink:href="#DejaVuSans-38"/>
       <use xlink:href="#DejaVuSans-30" x="63.623047"/>
       <use xlink:href="#DejaVuSans-30" x="127.246094"/>
      </g>
     </g>
    </g>
    <g id="text_6">
     <!-- CreditScore -->
     <g transform="translate(635.163281 284.596563) scale(0.1 -0.1)">
      <defs>
       <path id="DejaVuSans-43" d="M 4122 4306 
L 4122 3641 
Q 3803 3938 3442 4084 
Q 3081 4231 2675 4231 
Q 1875 4231 1450 3742 
Q 1025 3253 1025 2328 
Q 1025 1406 1450 917 
Q 1875 428 2675 428 
Q 3081 428 3442 575 
Q 3803 722 4122 1019 
L 4122 359 
Q 3791 134 3420 21 
Q 3050 -91 2638 -91 
Q 1578 -91 968 557 
Q 359 1206 359 2328 
Q 359 3453 968 4101 
Q 1578 4750 2638 4750 
Q 3056 4750 3426 4639 
Q 3797 4528 4122 4306 
z
" transform="scale(0.015625)"/>
       <path id="DejaVuSans-72" d="M 2631 2963 
Q 2534 3019 2420 3045 
Q 2306 3072 2169 3072 
Q 1681 3072 1420 2755 
Q 1159 2438 1159 1844 
L 1159 0 
L 581 0 
L 581 3500 
L 1159 3500 
L 1159 2956 
Q 1341 3275 1631 3429 
Q 1922 3584 2338 3584 
Q 2397 3584 2469 3576 
Q 2541 3569 2628 3553 
L 2631 2963 
z
" transform="scale(0.015625)"/>
       <path id="DejaVuSans-65" d="M 3597 1894 
L 3597 1613 
L 953 1613 
Q 991 1019 1311 708 
Q 1631 397 2203 397 
Q 2534 397 2845 478 
Q 3156 559 3463 722 
L 3463 178 
Q 3153 47 2828 -22 
Q 2503 -91 2169 -91 
Q 1331 -91 842 396 
Q 353 884 353 1716 
Q 353 2575 817 3079 
Q 1281 3584 2069 3584 
Q 2775 3584 3186 3129 
Q 3597 2675 3597 1894 
z
M 3022 2063 
Q 3016 2534 2758 2815 
Q 2500 3097 2075 3097 
Q 1594 3097 1305 2825 
Q 1016 2553 972 2059 
L 3022 2063 
z
" transform="scale(0.015625)"/>
       <path id="DejaVuSans-64" d="M 2906 2969 
L 2906 4863 
L 3481 4863 
L 3481 0 
L 2906 0 
L 2906 525 
Q 2725 213 2448 61 
Q 2172 -91 1784 -91 
Q 1150 -91 751 415 
Q 353 922 353 1747 
Q 353 2572 751 3078 
Q 1150 3584 1784 3584 
Q 2172 3584 2448 3432 
Q 2725 3281 2906 2969 
z
M 947 1747 
Q 947 1113 1208 752 
Q 1469 391 1925 391 
Q 2381 391 2643 752 
Q 2906 1113 2906 1747 
Q 2906 2381 2643 2742 
Q 2381 3103 1925 3103 
Q 1469 3103 1208 2742 
Q 947 2381 947 1747 
z
" transform="scale(0.015625)"/>
       <path id="DejaVuSans-69" d="M 603 3500 
L 1178 3500 
L 1178 0 
L 603 0 
L 603 3500 
z
M 603 4863 
L 1178 4863 
L 1178 4134 
L 603 4134 
L 603 4863 
z
" transform="scale(0.015625)"/>
       <path id="DejaVuSans-74" d="M 1172 4494 
L 1172 3500 
L 2356 3500 
L 2356 3053 
L 1172 3053 
L 1172 1153 
Q 1172 725 1289 603 
Q 1406 481 1766 481 
L 2356 481 
L 2356 0 
L 1766 0 
Q 1100 0 847 248 
Q 594 497 594 1153 
L 594 3053 
L 172 3053 
L 172 3500 
L 594 3500 
L 594 4494 
L 1172 4494 
z
" transform="scale(0.015625)"/>
       <path id="DejaVuSans-53" d="M 3425 4513 
L 3425 3897 
Q 3066 4069 2747 4153 
Q 2428 4238 2131 4238 
Q 1616 4238 1336 4038 
Q 1056 3838 1056 3469 
Q 1056 3159 1242 3001 
Q 1428 2844 1947 2747 
L 2328 2669 
Q 3034 2534 3370 2195 
Q 3706 1856 3706 1288 
Q 3706 609 3251 259 
Q 2797 -91 1919 -91 
Q 1588 -91 1214 -16 
Q 841 59 441 206 
L 441 856 
Q 825 641 1194 531 
Q 1563 422 1919 422 
Q 2459 422 2753 634 
Q 3047 847 3047 1241 
Q 3047 1584 2836 1778 
Q 2625 1972 2144 2069 
L 1759 2144 
Q 1053 2284 737 2584 
Q 422 2884 422 3419 
Q 422 4038 858 4394 
Q 1294 4750 2059 4750 
Q 2388 4750 2728 4690 
Q 3069 4631 3425 4513 
z
" transform="scale(0.015625)"/>
       <path id="DejaVuSans-63" d="M 3122 3366 
L 3122 2828 
Q 2878 2963 2633 3030 
Q 2388 3097 2138 3097 
Q 1578 3097 1268 2742 
Q 959 2388 959 1747 
Q 959 1106 1268 751 
Q 1578 397 2138 397 
Q 2388 397 2633 464 
Q 2878 531 3122 666 
L 3122 134 
Q 2881 22 2623 -34 
Q 2366 -91 2075 -91 
Q 1284 -91 818 406 
Q 353 903 353 1747 
Q 353 2603 823 3093 
Q 1294 3584 2113 3584 
Q 2378 3584 2631 3529 
Q 2884 3475 3122 3366 
z
" transform="scale(0.015625)"/>
       <path id="DejaVuSans-6f" d="M 1959 3097 
Q 1497 3097 1228 2736 
Q 959 2375 959 1747 
Q 959 1119 1226 758 
Q 1494 397 1959 397 
Q 2419 397 2687 759 
Q 2956 1122 2956 1747 
Q 2956 2369 2687 2733 
Q 2419 3097 1959 3097 
z
M 1959 3584 
Q 2709 3584 3137 3096 
Q 3566 2609 3566 1747 
Q 3566 888 3137 398 
Q 2709 -91 1959 -91 
Q 1206 -91 779 398 
Q 353 888 353 1747 
Q 353 2609 779 3096 
Q 1206 3584 1959 3584 
z
" transform="scale(0.015625)"/>
      </defs>
      <use xlink:href="#DejaVuSans-43"/>
      <use xlink:href="#DejaVuSans-72" x="69.824219"/>
      <use xlink:href="#DejaVuSans-65" x="108.6875"/>
      <use xlink:href="#DejaVuSans-64" x="170.210938"/>
      <use xlink:href="#DejaVuSans-69" x="233.6875"/>
      <use xlink:href="#DejaVuSans-74" x="261.470703"/>
      <use xlink:href="#DejaVuSans-53" x="300.679688"/>
      <use xlink:href="#DejaVuSans-63" x="364.15625"/>
      <use xlink:href="#DejaVuSans-6f" x="419.136719"/>
      <use xlink:href="#DejaVuSans-72" x="480.318359"/>
      <use xlink:href="#DejaVuSans-65" x="519.181641"/>
     </g>
    </g>
   </g>
   <g id="matplotlib.axis_2">
    <g id="ytick_1">
     <g id="line2d_6">
      <defs>
       <path id="m8958d5db21" d="M 0 0 
L -3.5 0 
" style="stroke: #000000; stroke-width: 0.8"/>
      </defs>
      <g>
       <use xlink:href="#m8958d5db21" x="162" y="256.32" style="stroke: #000000; stroke-width: 0.8"/>
      </g>
     </g>
     <g id="text_7">
      <!-- 0 -->
      <g transform="translate(148.6375 260.119219) scale(0.1 -0.1)">
       <use xlink:href="#DejaVuSans-30"/>
      </g>
     </g>
    </g>
    <g id="ytick_2">
     <g id="line2d_7">
      <g>
       <use xlink:href="#m8958d5db21" x="162" y="230.971944" style="stroke: #000000; stroke-width: 0.8"/>
      </g>
     </g>
     <g id="text_8">
      <!-- 1000 -->
      <g transform="translate(129.55 234.771163) scale(0.1 -0.1)">
       <defs>
        <path id="DejaVuSans-31" d="M 794 531 
L 1825 531 
L 1825 4091 
L 703 3866 
L 703 4441 
L 1819 4666 
L 2450 4666 
L 2450 531 
L 3481 531 
L 3481 0 
L 794 0 
L 794 531 
z
" transform="scale(0.015625)"/>
       </defs>
       <use xlink:href="#DejaVuSans-31"/>
       <use xlink:href="#DejaVuSans-30" x="63.623047"/>
       <use xlink:href="#DejaVuSans-30" x="127.246094"/>
       <use xlink:href="#DejaVuSans-30" x="190.869141"/>
      </g>
     </g>
    </g>
    <g id="ytick_3">
     <g id="line2d_8">
      <g>
       <use xlink:href="#m8958d5db21" x="162" y="205.623889" style="stroke: #000000; stroke-width: 0.8"/>
      </g>
     </g>
     <g id="text_9">
      <!-- 2000 -->
      <g transform="translate(129.55 209.423107) scale(0.1 -0.1)">
       <defs>
        <path id="DejaVuSans-32" d="M 1228 531 
L 3431 531 
L 3431 0 
L 469 0 
L 469 531 
Q 828 903 1448 1529 
Q 2069 2156 2228 2338 
Q 2531 2678 2651 2914 
Q 2772 3150 2772 3378 
Q 2772 3750 2511 3984 
Q 2250 4219 1831 4219 
Q 1534 4219 1204 4116 
Q 875 4013 500 3803 
L 500 4441 
Q 881 4594 1212 4672 
Q 1544 4750 1819 4750 
Q 2544 4750 2975 4387 
Q 3406 4025 3406 3419 
Q 3406 3131 3298 2873 
Q 3191 2616 2906 2266 
Q 2828 2175 2409 1742 
Q 1991 1309 1228 531 
z
" transform="scale(0.015625)"/>
       </defs>
       <use xlink:href="#DejaVuSans-32"/>
       <use xlink:href="#DejaVuSans-30" x="63.623047"/>
       <use xlink:href="#DejaVuSans-30" x="127.246094"/>
       <use xlink:href="#DejaVuSans-30" x="190.869141"/>
      </g>
     </g>
    </g>
    <g id="ytick_4">
     <g id="line2d_9">
      <g>
       <use xlink:href="#m8958d5db21" x="162" y="180.275833" style="stroke: #000000; stroke-width: 0.8"/>
      </g>
     </g>
     <g id="text_10">
      <!-- 3000 -->
      <g transform="translate(129.55 184.075052) scale(0.1 -0.1)">
       <defs>
        <path id="DejaVuSans-33" d="M 2597 2516 
Q 3050 2419 3304 2112 
Q 3559 1806 3559 1356 
Q 3559 666 3084 287 
Q 2609 -91 1734 -91 
Q 1441 -91 1130 -33 
Q 819 25 488 141 
L 488 750 
Q 750 597 1062 519 
Q 1375 441 1716 441 
Q 2309 441 2620 675 
Q 2931 909 2931 1356 
Q 2931 1769 2642 2001 
Q 2353 2234 1838 2234 
L 1294 2234 
L 1294 2753 
L 1863 2753 
Q 2328 2753 2575 2939 
Q 2822 3125 2822 3475 
Q 2822 3834 2567 4026 
Q 2313 4219 1838 4219 
Q 1578 4219 1281 4162 
Q 984 4106 628 3988 
L 628 4550 
Q 988 4650 1302 4700 
Q 1616 4750 1894 4750 
Q 2613 4750 3031 4423 
Q 3450 4097 3450 3541 
Q 3450 3153 3228 2886 
Q 3006 2619 2597 2516 
z
" transform="scale(0.015625)"/>
       </defs>
       <use xlink:href="#DejaVuSans-33"/>
       <use xlink:href="#DejaVuSans-30" x="63.623047"/>
       <use xlink:href="#DejaVuSans-30" x="127.246094"/>
       <use xlink:href="#DejaVuSans-30" x="190.869141"/>
      </g>
     </g>
    </g>
    <g id="ytick_5">
     <g id="line2d_10">
      <g>
       <use xlink:href="#m8958d5db21" x="162" y="154.927777" style="stroke: #000000; stroke-width: 0.8"/>
      </g>
     </g>
     <g id="text_11">
      <!-- 4000 -->
      <g transform="translate(129.55 158.726996) scale(0.1 -0.1)">
       <use xlink:href="#DejaVuSans-34"/>
       <use xlink:href="#DejaVuSans-30" x="63.623047"/>
       <use xlink:href="#DejaVuSans-30" x="127.246094"/>
       <use xlink:href="#DejaVuSans-30" x="190.869141"/>
      </g>
     </g>
    </g>
    <g id="ytick_6">
     <g id="line2d_11">
      <g>
       <use xlink:href="#m8958d5db21" x="162" y="129.579722" style="stroke: #000000; stroke-width: 0.8"/>
      </g>
     </g>
     <g id="text_12">
      <!-- 5000 -->
      <g transform="translate(129.55 133.37894) scale(0.1 -0.1)">
       <use xlink:href="#DejaVuSans-35"/>
       <use xlink:href="#DejaVuSans-30" x="63.623047"/>
       <use xlink:href="#DejaVuSans-30" x="127.246094"/>
       <use xlink:href="#DejaVuSans-30" x="190.869141"/>
      </g>
     </g>
    </g>
    <g id="ytick_7">
     <g id="line2d_12">
      <g>
       <use xlink:href="#m8958d5db21" x="162" y="104.231666" style="stroke: #000000; stroke-width: 0.8"/>
      </g>
     </g>
     <g id="text_13">
      <!-- 6000 -->
      <g transform="translate(129.55 108.030885) scale(0.1 -0.1)">
       <use xlink:href="#DejaVuSans-36"/>
       <use xlink:href="#DejaVuSans-30" x="63.623047"/>
       <use xlink:href="#DejaVuSans-30" x="127.246094"/>
       <use xlink:href="#DejaVuSans-30" x="190.869141"/>
      </g>
     </g>
    </g>
    <g id="ytick_8">
     <g id="line2d_13">
      <g>
       <use xlink:href="#m8958d5db21" x="162" y="78.88361" style="stroke: #000000; stroke-width: 0.8"/>
      </g>
     </g>
     <g id="text_14">
      <!-- 7000 -->
      <g transform="translate(129.55 82.682829) scale(0.1 -0.1)">
       <use xlink:href="#DejaVuSans-37"/>
       <use xlink:href="#DejaVuSans-30" x="63.623047"/>
       <use xlink:href="#DejaVuSans-30" x="127.246094"/>
       <use xlink:href="#DejaVuSans-30" x="190.869141"/>
      </g>
     </g>
    </g>
    <g id="ytick_9">
     <g id="line2d_14">
      <g>
       <use xlink:href="#m8958d5db21" x="162" y="53.535554" style="stroke: #000000; stroke-width: 0.8"/>
      </g>
     </g>
     <g id="text_15">
      <!-- 8000 -->
      <g transform="translate(129.55 57.334773) scale(0.1 -0.1)">
       <use xlink:href="#DejaVuSans-38"/>
       <use xlink:href="#DejaVuSans-30" x="63.623047"/>
       <use xlink:href="#DejaVuSans-30" x="127.246094"/>
       <use xlink:href="#DejaVuSans-30" x="190.869141"/>
      </g>
     </g>
    </g>
    <g id="text_16">
     <!-- Count -->
     <g transform="translate(123.470313 160.288437) rotate(-90) scale(0.1 -0.1)">
      <defs>
       <path id="DejaVuSans-75" d="M 544 1381 
L 544 3500 
L 1119 3500 
L 1119 1403 
Q 1119 906 1312 657 
Q 1506 409 1894 409 
Q 2359 409 2629 706 
Q 2900 1003 2900 1516 
L 2900 3500 
L 3475 3500 
L 3475 0 
L 2900 0 
L 2900 538 
Q 2691 219 2414 64 
Q 2138 -91 1772 -91 
Q 1169 -91 856 284 
Q 544 659 544 1381 
z
M 1991 3584 
L 1991 3584 
z
" transform="scale(0.015625)"/>
       <path id="DejaVuSans-6e" d="M 3513 2113 
L 3513 0 
L 2938 0 
L 2938 2094 
Q 2938 2591 2744 2837 
Q 2550 3084 2163 3084 
Q 1697 3084 1428 2787 
Q 1159 2491 1159 1978 
L 1159 0 
L 581 0 
L 581 3500 
L 1159 3500 
L 1159 2956 
Q 1366 3272 1645 3428 
Q 1925 3584 2291 3584 
Q 2894 3584 3203 3211 
Q 3513 2838 3513 2113 
z
" transform="scale(0.015625)"/>
      </defs>
      <use xlink:href="#DejaVuSans-43"/>
      <use xlink:href="#DejaVuSans-6f" x="69.824219"/>
      <use xlink:href="#DejaVuSans-75" x="131.005859"/>
      <use xlink:href="#DejaVuSans-6e" x="194.384766"/>
      <use xlink:href="#DejaVuSans-74" x="257.763672"/>
     </g>
    </g>
   </g>
   <g id="line2d_15">
    <path d="M 207.654545 256.250886 
L 313.187666 256.027825 
L 331.541252 255.720712 
L 349.894838 255.166297 
L 368.248424 254.586147 
L 404.955596 253.698336 
L 418.720786 252.976877 
L 446.251165 251.367735 
L 460.016354 250.87371 
L 482.958337 250.3178 
L 487.546734 250.028367 
L 492.13513 249.600305 
L 496.723527 249.015426 
L 501.311923 248.272836 
L 510.488716 246.393936 
L 524.253906 243.100155 
L 538.019095 239.883095 
L 547.195889 237.951549 
L 556.372682 236.284057 
L 565.549475 234.964606 
L 574.726268 234.052035 
L 583.903061 233.506099 
L 593.079854 233.013181 
L 597.66825 232.592972 
L 602.256647 231.936162 
L 606.845043 230.974075 
L 611.43344 229.680538 
L 616.021836 228.085769 
L 629.787026 222.617673 
L 634.375423 221.103462 
L 638.963819 220.004216 
L 643.552216 219.41671 
L 648.140612 219.371418 
L 652.729009 219.827292 
L 657.317405 220.679091 
L 671.082595 224.03222 
L 675.670991 224.894283 
L 680.259388 225.438515 
L 684.847784 225.606951 
L 689.436181 225.371666 
L 694.024577 224.727006 
L 698.612974 223.687257 
L 703.20137 222.290928 
L 707.789767 220.607759 
L 721.554957 215.005213 
L 726.143353 213.417471 
L 730.73175 212.1741 
L 735.320146 211.349909 
L 739.908543 210.981651 
L 744.496939 211.071959 
L 749.085336 211.593269 
L 753.673732 212.488399 
L 758.262129 213.668559 
L 767.438922 216.372173 
L 772.027318 217.583665 
L 776.615715 218.488578 
L 781.204111 218.958093 
L 785.792508 218.919873 
L 790.380905 218.381813 
L 794.969301 217.445365 
L 804.146094 215.190215 
L 808.734491 214.364792 
L 813.322887 214.008931 
L 817.911284 214.193087 
L 822.49968 214.85171 
L 836.26487 217.667495 
L 840.853266 218.225271 
L 845.441663 218.473018 
L 859.206852 218.59995 
L 863.795249 218.969337 
L 868.383646 219.649843 
L 872.972042 220.609507 
L 891.325628 225.204295 
L 895.914025 226.134412 
L 905.090818 227.623806 
L 914.267611 228.760216 
L 928.0328 230.275147 
L 932.621197 230.929539 
L 937.209593 231.771891 
L 941.79799 232.853173 
L 946.386386 234.187645 
L 950.974783 235.74344 
L 969.328369 242.440458 
L 973.916766 243.802047 
L 978.505162 244.957982 
L 983.093559 245.920452 
L 987.681955 246.716067 
L 996.858748 247.922212 
L 1006.035541 248.76869 
L 1015.212334 249.390902 
L 1028.977524 250.075765 
L 1074.861489 251.883713 
L 1084.038282 251.754714 
L 1093.215075 251.177477 
L 1106.980265 249.919826 
L 1111.568661 249.667246 
L 1116.157058 249.635217 
L 1120.745455 249.874705 
L 1120.745455 249.874705 
" clip-path="url(#pf8f15949d1)" style="fill: none; stroke: #ff7f0e; stroke-width: 1.5; stroke-linecap: square"/>
   </g>
   <g id="line2d_16">
    <path d="M 207.654545 256.093164 
L 239.773321 256.060109 
L 285.657286 256.179162 
L 294.834079 256.025514 
L 308.599269 255.522556 
L 336.129648 254.231371 
L 345.306441 253.40526 
L 359.071631 251.643939 
L 368.248424 250.61951 
L 377.425217 249.992386 
L 391.190407 249.371572 
L 395.778803 249.041804 
L 400.3672 248.557986 
L 404.955596 247.888295 
L 409.543993 247.033788 
L 418.720786 244.930679 
L 427.897579 242.701276 
L 437.074372 240.714218 
L 450.839561 238.17079 
L 460.016354 236.617756 
L 464.604751 235.998588 
L 469.193148 235.554363 
L 482.958337 234.580003 
L 487.546734 233.761039 
L 492.13513 232.379528 
L 496.723527 230.389921 
L 501.311923 227.896419 
L 510.488716 222.352678 
L 515.077113 219.810774 
L 519.665509 217.611411 
L 524.253906 215.711004 
L 533.430699 212.045456 
L 538.019095 209.856844 
L 542.607492 207.307406 
L 560.961078 196.165126 
L 570.137871 191.210118 
L 574.726268 188.821359 
L 579.314664 186.603206 
L 583.903061 184.683819 
L 593.079854 181.498888 
L 597.66825 179.54771 
L 602.256647 176.675254 
L 606.845043 172.438691 
L 611.43344 166.620429 
L 616.021836 159.293727 
L 620.610233 150.821307 
L 629.787026 133.007575 
L 634.375423 125.259373 
L 638.963819 119.368327 
L 643.552216 116.017361 
L 648.140612 115.636508 
L 652.729009 118.25253 
L 657.317405 123.373842 
L 661.905802 130.006144 
L 666.494198 136.862551 
L 671.082595 142.727296 
L 675.670991 146.818736 
L 680.259388 148.962688 
L 684.847784 149.47298 
L 689.436181 148.803741 
L 694.024577 147.184277 
L 698.612974 144.46747 
L 703.20137 140.288043 
L 707.789767 134.421684 
L 712.378164 127.102585 
L 716.96656 119.086881 
L 721.554957 111.415907 
L 726.143353 105.021971 
L 730.73175 100.412593 
L 735.320146 97.61144 
L 739.908543 96.359614 
L 744.496939 96.403343 
L 749.085336 97.644538 
L 753.673732 100.055393 
L 758.262129 103.460892 
L 767.438922 111.194711 
L 772.027318 114.141547 
L 776.615715 115.647838 
L 781.204111 115.188392 
L 785.792508 112.209364 
L 790.380905 106.221845 
L 794.969301 97.200601 
L 804.146094 74.936754 
L 808.734491 66.469269 
L 813.322887 62.994996 
L 817.911284 65.391644 
L 822.49968 72.668366 
L 827.088077 82.393612 
L 831.676473 91.697165 
L 836.26487 98.274747 
L 840.853266 100.969148 
L 845.441663 99.872487 
L 850.030059 96.130698 
L 854.618456 91.595443 
L 859.206852 88.338711 
L 863.795249 88.051375 
L 868.383646 91.49339 
L 872.972042 98.258218 
L 877.560439 107.012071 
L 882.148835 116.118625 
L 886.737232 124.337041 
L 891.325628 131.236067 
L 895.914025 137.132872 
L 909.679214 153.604106 
L 914.267611 158.449042 
L 918.856007 162.165259 
L 923.444404 164.525287 
L 928.0328 165.778203 
L 932.621197 166.589643 
L 937.209593 167.829405 
L 941.79799 170.292085 
L 946.386386 174.419593 
L 950.974783 180.107574 
L 960.151576 193.206514 
L 964.739973 198.741613 
L 969.328369 202.883548 
L 973.916766 205.846671 
L 978.505162 208.303938 
L 983.093559 210.980033 
L 987.681955 214.254938 
L 996.858748 221.776534 
L 1001.447145 225.06781 
L 1006.035541 227.636811 
L 1010.623938 229.533198 
L 1015.212334 230.958202 
L 1019.800731 232.071825 
L 1024.389127 232.904812 
L 1028.977524 233.420042 
L 1033.565921 233.643271 
L 1038.154317 233.739403 
L 1042.742714 233.969396 
L 1047.33111 234.563001 
L 1051.919507 235.600423 
L 1065.684696 239.811154 
L 1070.273093 240.843829 
L 1074.861489 241.49383 
L 1079.449886 241.763425 
L 1084.038282 241.639574 
L 1088.626679 241.007697 
L 1093.215075 239.629986 
L 1097.803472 237.245313 
L 1102.391868 233.792708 
L 1106.980265 229.659389 
L 1111.568661 225.768724 
L 1116.157058 223.354946 
L 1120.745455 223.459663 
L 1120.745455 223.459663 
" clip-path="url(#pf8f15949d1)" style="fill: none; stroke: #1f77b4; stroke-width: 1.5; stroke-linecap: square"/>
   </g>
   <g id="patch_103">
    <path d="M 162 256.32 
L 162 34.56 
" style="fill: none; stroke: #000000; stroke-width: 0.8; stroke-linejoin: miter; stroke-linecap: square"/>
   </g>
   <g id="patch_104">
    <path d="M 1166.4 256.32 
L 1166.4 34.56 
" style="fill: none; stroke: #000000; stroke-width: 0.8; stroke-linejoin: miter; stroke-linecap: square"/>
   </g>
   <g id="patch_105">
    <path d="M 162 256.32 
L 1166.4 256.32 
" style="fill: none; stroke: #000000; stroke-width: 0.8; stroke-linejoin: miter; stroke-linecap: square"/>
   </g>
   <g id="patch_106">
    <path d="M 162 34.56 
L 1166.4 34.56 
" style="fill: none; stroke: #000000; stroke-width: 0.8; stroke-linejoin: miter; stroke-linecap: square"/>
   </g>
   <g id="legend_1">
    <g id="patch_107">
     <path d="M 1121.0375 86.594375 
L 1159.4 86.594375 
Q 1161.4 86.594375 1161.4 84.594375 
L 1161.4 41.56 
Q 1161.4 39.56 1159.4 39.56 
L 1121.0375 39.56 
Q 1119.0375 39.56 1119.0375 41.56 
L 1119.0375 84.594375 
Q 1119.0375 86.594375 1121.0375 86.594375 
z
" style="fill: #ffffff; opacity: 0.8; stroke: #cccccc; stroke-linejoin: miter"/>
    </g>
    <g id="text_17">
     <!-- Exited -->
     <g transform="translate(1124.5 51.158438) scale(0.1 -0.1)">
      <defs>
       <path id="DejaVuSans-45" d="M 628 4666 
L 3578 4666 
L 3578 4134 
L 1259 4134 
L 1259 2753 
L 3481 2753 
L 3481 2222 
L 1259 2222 
L 1259 531 
L 3634 531 
L 3634 0 
L 628 0 
L 628 4666 
z
" transform="scale(0.015625)"/>
       <path id="DejaVuSans-78" d="M 3513 3500 
L 2247 1797 
L 3578 0 
L 2900 0 
L 1881 1375 
L 863 0 
L 184 0 
L 1544 1831 
L 300 3500 
L 978 3500 
L 1906 2253 
L 2834 3500 
L 3513 3500 
z
" transform="scale(0.015625)"/>
      </defs>
      <use xlink:href="#DejaVuSans-45"/>
      <use xlink:href="#DejaVuSans-78" x="63.183594"/>
      <use xlink:href="#DejaVuSans-69" x="122.363281"/>
      <use xlink:href="#DejaVuSans-74" x="150.146484"/>
      <use xlink:href="#DejaVuSans-65" x="189.355469"/>
      <use xlink:href="#DejaVuSans-64" x="250.878906"/>
     </g>
    </g>
    <g id="patch_108">
     <path d="M 1123.0375 65.836563 
L 1143.0375 65.836563 
L 1143.0375 58.836563 
L 1123.0375 58.836563 
z
" style="fill: #1f77b4; fill-opacity: 0.5; stroke: #000000; stroke-linejoin: miter"/>
    </g>
    <g id="text_18">
     <!-- 0 -->
     <g transform="translate(1151.0375 65.836563) scale(0.1 -0.1)">
      <use xlink:href="#DejaVuSans-30"/>
     </g>
    </g>
    <g id="patch_109">
     <path d="M 1123.0375 80.514688 
L 1143.0375 80.514688 
L 1143.0375 73.514688 
L 1123.0375 73.514688 
z
" style="fill: #ff7f0e; fill-opacity: 0.5; stroke: #000000; stroke-linejoin: miter"/>
    </g>
    <g id="text_19">
     <!-- 1 -->
     <g transform="translate(1151.0375 80.514688) scale(0.1 -0.1)">
      <use xlink:href="#DejaVuSans-31"/>
     </g>
    </g>
   </g>
  </g>
 </g>
 <defs>
  <clipPath id="pf8f15949d1">
   <rect x="162" y="34.56" width="1004.4" height="221.76"/>
  </clipPath>
 </defs>
</svg>
