<?xml version="1.0" encoding="utf-8" standalone="no"?>
<!DOCTYPE svg PUBLIC "-//W3C//DTD SVG 1.1//EN"
  "http://www.w3.org/Graphics/SVG/1.1/DTD/svg11.dtd">
<svg xmlns:xlink="http://www.w3.org/1999/xlink" width="1296pt" height="288pt" viewBox="0 0 1296 288" xmlns="http://www.w3.org/2000/svg" version="1.1">
 <metadata>
  <rdf:RDF xmlns:dc="http://purl.org/dc/elements/1.1/" xmlns:cc="http://creativecommons.org/ns#" xmlns:rdf="http://www.w3.org/1999/02/22-rdf-syntax-ns#">
   <cc:Work>
    <dc:type rdf:resource="http://purl.org/dc/dcmitype/StillImage"/>
    <dc:date>2024-03-30T12:52:28.127785</dc:date>
    <dc:format>image/svg+xml</dc:format>
    <dc:creator>
     <cc:Agent>
      <dc:title>Matplotlib v3.7.5, https://matplotlib.org/</dc:title>
     </cc:Agent>
    </dc:creator>
   </cc:Work>
  </rdf:RDF>
 </metadata>
 <defs>
  <style type="text/css">*{stroke-linejoin: round; stroke-linecap: butt}</style>
 </defs>
 <g id="figure_1">
  <g id="patch_1">
   <path d="M 0 288 
L 1296 288 
L 1296 0 
L 0 0 
z
" style="fill: #ffffff"/>
  </g>
  <g id="axes_1">
   <g id="patch_2">
    <path d="M 162 256.32 
L 1166.4 256.32 
L 1166.4 34.56 
L 162 34.56 
z
" style="fill: #ffffff"/>
   </g>
   <g id="patch_3">
    <path d="M 207.654545 256.32 
L 225.916364 256.32 
L 225.916364 238.427051 
L 207.654545 238.427051 
z
" clip-path="url(#pc6651eba7d)" style="fill: #ff7f0e; fill-opacity: 0.5; stroke: #000000; stroke-linejoin: miter"/>
   </g>
   <g id="patch_4">
    <path d="M 225.916364 256.32 
L 244.178182 256.32 
L 244.178182 243.206404 
L 225.916364 243.206404 
z
" clip-path="url(#pc6651eba7d)" style="fill: #ff7f0e; fill-opacity: 0.5; stroke: #000000; stroke-linejoin: miter"/>
   </g>
   <g id="patch_5">
    <path d="M 244.178182 256.32 
L 262.44 256.32 
L 262.44 244.391367 
L 244.178182 244.391367 
z
" clip-path="url(#pc6651eba7d)" style="fill: #ff7f0e; fill-opacity: 0.5; stroke: #000000; stroke-linejoin: miter"/>
   </g>
   <g id="patch_6">
    <path d="M 262.44 256.32 
L 280.701818 256.32 
L 280.701818 245.497333 
L 262.44 245.497333 
z
" clip-path="url(#pc6651eba7d)" style="fill: #ff7f0e; fill-opacity: 0.5; stroke: #000000; stroke-linejoin: miter"/>
   </g>
   <g id="patch_7">
    <path d="M 280.701818 256.32 
L 298.963636 256.32 
L 298.963636 244.62836 
L 280.701818 244.62836 
z
" clip-path="url(#pc6651eba7d)" style="fill: #ff7f0e; fill-opacity: 0.5; stroke: #000000; stroke-linejoin: miter"/>
   </g>
   <g id="patch_8">
    <path d="M 298.963636 256.32 
L 317.225455 256.32 
L 317.225455 249.091722 
L 298.963636 249.091722 
z
" clip-path="url(#pc6651eba7d)" style="fill: #ff7f0e; fill-opacity: 0.5; stroke: #000000; stroke-linejoin: miter"/>
   </g>
   <g id="patch_9">
    <path d="M 317.225455 256.32 
L 335.487273 256.32 
L 335.487273 239.651513 
L 317.225455 239.651513 
z
" clip-path="url(#pc6651eba7d)" style="fill: #ff7f0e; fill-opacity: 0.5; stroke: #000000; stroke-linejoin: miter"/>
   </g>
   <g id="patch_10">
    <path d="M 335.487273 256.32 
L 353.749091 256.32 
L 353.749091 244.983849 
L 335.487273 244.983849 
z
" clip-path="url(#pc6651eba7d)" style="fill: #ff7f0e; fill-opacity: 0.5; stroke: #000000; stroke-linejoin: miter"/>
   </g>
   <g id="patch_11">
    <path d="M 353.749091 256.32 
L 372.010909 256.32 
L 372.010909 248.143752 
L 353.749091 248.143752 
z
" clip-path="url(#pc6651eba7d)" style="fill: #ff7f0e; fill-opacity: 0.5; stroke: #000000; stroke-linejoin: miter"/>
   </g>
   <g id="patch_12">
    <path d="M 372.010909 256.32 
L 390.272727 256.32 
L 390.272727 248.973226 
L 372.010909 248.973226 
z
" clip-path="url(#pc6651eba7d)" style="fill: #ff7f0e; fill-opacity: 0.5; stroke: #000000; stroke-linejoin: miter"/>
   </g>
   <g id="patch_13">
    <path d="M 390.272727 256.32 
L 408.534545 256.32 
L 408.534545 245.852822 
L 390.272727 245.852822 
z
" clip-path="url(#pc6651eba7d)" style="fill: #ff7f0e; fill-opacity: 0.5; stroke: #000000; stroke-linejoin: miter"/>
   </g>
   <g id="patch_14">
    <path d="M 408.534545 256.32 
L 426.796364 256.32 
L 426.796364 238.624545 
L 408.534545 238.624545 
z
" clip-path="url(#pc6651eba7d)" style="fill: #ff7f0e; fill-opacity: 0.5; stroke: #000000; stroke-linejoin: miter"/>
   </g>
   <g id="patch_15">
    <path d="M 426.796364 256.32 
L 445.058182 256.32 
L 445.058182 229.421328 
L 426.796364 229.421328 
z
" clip-path="url(#pc6651eba7d)" style="fill: #ff7f0e; fill-opacity: 0.5; stroke: #000000; stroke-linejoin: miter"/>
   </g>
   <g id="patch_16">
    <path d="M 445.058182 256.32 
L 463.32 256.32 
L 463.32 220.929089 
L 445.058182 220.929089 
z
" clip-path="url(#pc6651eba7d)" style="fill: #ff7f0e; fill-opacity: 0.5; stroke: #000000; stroke-linejoin: miter"/>
   </g>
   <g id="patch_17">
    <path d="M 463.32 256.32 
L 481.581818 256.32 
L 481.581818 229.263333 
L 463.32 229.263333 
z
" clip-path="url(#pc6651eba7d)" style="fill: #ff7f0e; fill-opacity: 0.5; stroke: #000000; stroke-linejoin: miter"/>
   </g>
   <g id="patch_18">
    <path d="M 481.581818 256.32 
L 499.843636 256.32 
L 499.843636 222.588038 
L 481.581818 222.588038 
z
" clip-path="url(#pc6651eba7d)" style="fill: #ff7f0e; fill-opacity: 0.5; stroke: #000000; stroke-linejoin: miter"/>
   </g>
   <g id="patch_19">
    <path d="M 499.843636 256.32 
L 518.105455 256.32 
L 518.105455 226.221926 
L 499.843636 226.221926 
z
" clip-path="url(#pc6651eba7d)" style="fill: #ff7f0e; fill-opacity: 0.5; stroke: #000000; stroke-linejoin: miter"/>
   </g>
   <g id="patch_20">
    <path d="M 518.105455 256.32 
L 536.367273 256.32 
L 536.367273 235.583138 
L 518.105455 235.583138 
z
" clip-path="url(#pc6651eba7d)" style="fill: #ff7f0e; fill-opacity: 0.5; stroke: #000000; stroke-linejoin: miter"/>
   </g>
   <g id="patch_21">
    <path d="M 536.367273 256.32 
L 554.629091 256.32 
L 554.629091 223.022525 
L 536.367273 223.022525 
z
" clip-path="url(#pc6651eba7d)" style="fill: #ff7f0e; fill-opacity: 0.5; stroke: #000000; stroke-linejoin: miter"/>
   </g>
   <g id="patch_22">
    <path d="M 554.629091 256.32 
L 572.890909 256.32 
L 572.890909 231.909751 
L 554.629091 231.909751 
z
" clip-path="url(#pc6651eba7d)" style="fill: #ff7f0e; fill-opacity: 0.5; stroke: #000000; stroke-linejoin: miter"/>
   </g>
   <g id="patch_23">
    <path d="M 572.890909 256.32 
L 591.152727 256.32 
L 591.152727 224.009994 
L 572.890909 224.009994 
z
" clip-path="url(#pc6651eba7d)" style="fill: #ff7f0e; fill-opacity: 0.5; stroke: #000000; stroke-linejoin: miter"/>
   </g>
   <g id="patch_24">
    <path d="M 591.152727 256.32 
L 609.414545 256.32 
L 609.414545 224.523479 
L 591.152727 224.523479 
z
" clip-path="url(#pc6651eba7d)" style="fill: #ff7f0e; fill-opacity: 0.5; stroke: #000000; stroke-linejoin: miter"/>
   </g>
   <g id="patch_25">
    <path d="M 609.414545 256.32 
L 627.676364 256.32 
L 627.676364 219.902121 
L 609.414545 219.902121 
z
" clip-path="url(#pc6651eba7d)" style="fill: #ff7f0e; fill-opacity: 0.5; stroke: #000000; stroke-linejoin: miter"/>
   </g>
   <g id="patch_26">
    <path d="M 627.676364 256.32 
L 645.938182 256.32 
L 645.938182 214.806778 
L 627.676364 214.806778 
z
" clip-path="url(#pc6651eba7d)" style="fill: #ff7f0e; fill-opacity: 0.5; stroke: #000000; stroke-linejoin: miter"/>
   </g>
   <g id="patch_27">
    <path d="M 645.938182 256.32 
L 664.2 256.32 
L 664.2 237.47908 
L 645.938182 237.47908 
z
" clip-path="url(#pc6651eba7d)" style="fill: #ff7f0e; fill-opacity: 0.5; stroke: #000000; stroke-linejoin: miter"/>
   </g>
   <g id="patch_28">
    <path d="M 664.2 256.32 
L 682.461818 256.32 
L 682.461818 219.823123 
L 664.2 219.823123 
z
" clip-path="url(#pc6651eba7d)" style="fill: #ff7f0e; fill-opacity: 0.5; stroke: #000000; stroke-linejoin: miter"/>
   </g>
   <g id="patch_29">
    <path d="M 682.461818 256.32 
L 700.723636 256.32 
L 700.723636 231.317269 
L 682.461818 231.317269 
z
" clip-path="url(#pc6651eba7d)" style="fill: #ff7f0e; fill-opacity: 0.5; stroke: #000000; stroke-linejoin: miter"/>
   </g>
   <g id="patch_30">
    <path d="M 700.723636 256.32 
L 718.985455 256.32 
L 718.985455 233.292209 
L 700.723636 233.292209 
z
" clip-path="url(#pc6651eba7d)" style="fill: #ff7f0e; fill-opacity: 0.5; stroke: #000000; stroke-linejoin: miter"/>
   </g>
   <g id="patch_31">
    <path d="M 718.985455 256.32 
L 737.247273 256.32 
L 737.247273 227.0909 
L 718.985455 227.0909 
z
" clip-path="url(#pc6651eba7d)" style="fill: #ff7f0e; fill-opacity: 0.5; stroke: #000000; stroke-linejoin: miter"/>
   </g>
   <g id="patch_32">
    <path d="M 737.247273 256.32 
L 755.509091 256.32 
L 755.509091 226.853907 
L 737.247273 226.853907 
z
" clip-path="url(#pc6651eba7d)" style="fill: #ff7f0e; fill-opacity: 0.5; stroke: #000000; stroke-linejoin: miter"/>
   </g>
   <g id="patch_33">
    <path d="M 755.509091 256.32 
L 773.770909 256.32 
L 773.770909 212.950335 
L 755.509091 212.950335 
z
" clip-path="url(#pc6651eba7d)" style="fill: #ff7f0e; fill-opacity: 0.5; stroke: #000000; stroke-linejoin: miter"/>
   </g>
   <g id="patch_34">
    <path d="M 773.770909 256.32 
L 792.032727 256.32 
L 792.032727 220.178612 
L 773.770909 220.178612 
z
" clip-path="url(#pc6651eba7d)" style="fill: #ff7f0e; fill-opacity: 0.5; stroke: #000000; stroke-linejoin: miter"/>
   </g>
   <g id="patch_35">
    <path d="M 792.032727 256.32 
L 810.294545 256.32 
L 810.294545 220.178612 
L 792.032727 220.178612 
z
" clip-path="url(#pc6651eba7d)" style="fill: #ff7f0e; fill-opacity: 0.5; stroke: #000000; stroke-linejoin: miter"/>
   </g>
   <g id="patch_36">
    <path d="M 810.294545 256.32 
L 828.556364 256.32 
L 828.556364 221.166082 
L 810.294545 221.166082 
z
" clip-path="url(#pc6651eba7d)" style="fill: #ff7f0e; fill-opacity: 0.5; stroke: #000000; stroke-linejoin: miter"/>
   </g>
   <g id="patch_37">
    <path d="M 828.556364 256.32 
L 846.818182 256.32 
L 846.818182 220.968588 
L 828.556364 220.968588 
z
" clip-path="url(#pc6651eba7d)" style="fill: #ff7f0e; fill-opacity: 0.5; stroke: #000000; stroke-linejoin: miter"/>
   </g>
   <g id="patch_38">
    <path d="M 846.818182 256.32 
L 865.08 256.32 
L 865.08 202.325162 
L 846.818182 202.325162 
z
" clip-path="url(#pc6651eba7d)" style="fill: #ff7f0e; fill-opacity: 0.5; stroke: #000000; stroke-linejoin: miter"/>
   </g>
   <g id="patch_39">
    <path d="M 865.08 256.32 
L 883.341818 256.32 
L 883.341818 223.338515 
L 865.08 223.338515 
z
" clip-path="url(#pc6651eba7d)" style="fill: #ff7f0e; fill-opacity: 0.5; stroke: #000000; stroke-linejoin: miter"/>
   </g>
   <g id="patch_40">
    <path d="M 883.341818 256.32 
L 901.603636 256.32 
L 901.603636 223.536009 
L 883.341818 223.536009 
z
" clip-path="url(#pc6651eba7d)" style="fill: #ff7f0e; fill-opacity: 0.5; stroke: #000000; stroke-linejoin: miter"/>
   </g>
   <g id="patch_41">
    <path d="M 901.603636 256.32 
L 919.865455 256.32 
L 919.865455 226.853907 
L 901.603636 226.853907 
z
" clip-path="url(#pc6651eba7d)" style="fill: #ff7f0e; fill-opacity: 0.5; stroke: #000000; stroke-linejoin: miter"/>
   </g>
   <g id="patch_42">
    <path d="M 919.865455 256.32 
L 938.127273 256.32 
L 938.127273 225.076462 
L 919.865455 225.076462 
z
" clip-path="url(#pc6651eba7d)" style="fill: #ff7f0e; fill-opacity: 0.5; stroke: #000000; stroke-linejoin: miter"/>
   </g>
   <g id="patch_43">
    <path d="M 938.127273 256.32 
L 956.389091 256.32 
L 956.389091 209.553439 
L 938.127273 209.553439 
z
" clip-path="url(#pc6651eba7d)" style="fill: #ff7f0e; fill-opacity: 0.5; stroke: #000000; stroke-linejoin: miter"/>
   </g>
   <g id="patch_44">
    <path d="M 956.389091 256.32 
L 974.650909 256.32 
L 974.650909 220.731595 
L 956.389091 220.731595 
z
" clip-path="url(#pc6651eba7d)" style="fill: #ff7f0e; fill-opacity: 0.5; stroke: #000000; stroke-linejoin: miter"/>
   </g>
   <g id="patch_45">
    <path d="M 974.650909 256.32 
L 992.912727 256.32 
L 992.912727 213.74031 
L 974.650909 213.74031 
z
" clip-path="url(#pc6651eba7d)" style="fill: #ff7f0e; fill-opacity: 0.5; stroke: #000000; stroke-linejoin: miter"/>
   </g>
   <g id="patch_46">
    <path d="M 992.912727 256.32 
L 1011.174545 256.32 
L 1011.174545 204.813585 
L 992.912727 204.813585 
z
" clip-path="url(#pc6651eba7d)" style="fill: #ff7f0e; fill-opacity: 0.5; stroke: #000000; stroke-linejoin: miter"/>
   </g>
   <g id="patch_47">
    <path d="M 1011.174545 256.32 
L 1029.436364 256.32 
L 1029.436364 209.513941 
L 1011.174545 209.513941 
z
" clip-path="url(#pc6651eba7d)" style="fill: #ff7f0e; fill-opacity: 0.5; stroke: #000000; stroke-linejoin: miter"/>
   </g>
   <g id="patch_48">
    <path d="M 1029.436364 256.32 
L 1047.698182 256.32 
L 1047.698182 212.239357 
L 1029.436364 212.239357 
z
" clip-path="url(#pc6651eba7d)" style="fill: #ff7f0e; fill-opacity: 0.5; stroke: #000000; stroke-linejoin: miter"/>
   </g>
   <g id="patch_49">
    <path d="M 1047.698182 256.32 
L 1065.96 256.32 
L 1065.96 226.616914 
L 1047.698182 226.616914 
z
" clip-path="url(#pc6651eba7d)" style="fill: #ff7f0e; fill-opacity: 0.5; stroke: #000000; stroke-linejoin: miter"/>
   </g>
   <g id="patch_50">
    <path d="M 1065.96 256.32 
L 1084.221818 256.32 
L 1084.221818 244.233372 
L 1065.96 244.233372 
z
" clip-path="url(#pc6651eba7d)" style="fill: #ff7f0e; fill-opacity: 0.5; stroke: #000000; stroke-linejoin: miter"/>
   </g>
   <g id="patch_51">
    <path d="M 1084.221818 256.32 
L 1102.483636 256.32 
L 1102.483636 245.378837 
L 1084.221818 245.378837 
z
" clip-path="url(#pc6651eba7d)" style="fill: #ff7f0e; fill-opacity: 0.5; stroke: #000000; stroke-linejoin: miter"/>
   </g>
   <g id="patch_52">
    <path d="M 1102.483636 256.32 
L 1120.745455 256.32 
L 1120.745455 243.759387 
L 1102.483636 243.759387 
z
" clip-path="url(#pc6651eba7d)" style="fill: #ff7f0e; fill-opacity: 0.5; stroke: #000000; stroke-linejoin: miter"/>
   </g>
   <g id="patch_53">
    <path d="M 207.654545 256.32 
L 225.916364 256.32 
L 225.916364 177.36193 
L 207.654545 177.36193 
z
" clip-path="url(#pc6651eba7d)" style="fill: #1f77b4; fill-opacity: 0.5; stroke: #000000; stroke-linejoin: miter"/>
   </g>
   <g id="patch_54">
    <path d="M 225.916364 256.32 
L 244.178182 256.32 
L 244.178182 209.395444 
L 225.916364 209.395444 
z
" clip-path="url(#pc6651eba7d)" style="fill: #1f77b4; fill-opacity: 0.5; stroke: #000000; stroke-linejoin: miter"/>
   </g>
   <g id="patch_55">
    <path d="M 244.178182 256.32 
L 262.44 256.32 
L 262.44 208.644967 
L 244.178182 208.644967 
z
" clip-path="url(#pc6651eba7d)" style="fill: #1f77b4; fill-opacity: 0.5; stroke: #000000; stroke-linejoin: miter"/>
   </g>
   <g id="patch_56">
    <path d="M 262.44 256.32 
L 280.701818 256.32 
L 280.701818 221.245079 
L 262.44 221.245079 
z
" clip-path="url(#pc6651eba7d)" style="fill: #1f77b4; fill-opacity: 0.5; stroke: #000000; stroke-linejoin: miter"/>
   </g>
   <g id="patch_57">
    <path d="M 280.701818 256.32 
L 298.963636 256.32 
L 298.963636 212.12086 
L 280.701818 212.12086 
z
" clip-path="url(#pc6651eba7d)" style="fill: #1f77b4; fill-opacity: 0.5; stroke: #000000; stroke-linejoin: miter"/>
   </g>
   <g id="patch_58">
    <path d="M 298.963636 256.32 
L 317.225455 256.32 
L 317.225455 236.294116 
L 298.963636 236.294116 
z
" clip-path="url(#pc6651eba7d)" style="fill: #1f77b4; fill-opacity: 0.5; stroke: #000000; stroke-linejoin: miter"/>
   </g>
   <g id="patch_59">
    <path d="M 317.225455 256.32 
L 335.487273 256.32 
L 335.487273 187.631614 
L 317.225455 187.631614 
z
" clip-path="url(#pc6651eba7d)" style="fill: #1f77b4; fill-opacity: 0.5; stroke: #000000; stroke-linejoin: miter"/>
   </g>
   <g id="patch_60">
    <path d="M 335.487273 256.32 
L 353.749091 256.32 
L 353.749091 215.201765 
L 335.487273 215.201765 
z
" clip-path="url(#pc6651eba7d)" style="fill: #1f77b4; fill-opacity: 0.5; stroke: #000000; stroke-linejoin: miter"/>
   </g>
   <g id="patch_61">
    <path d="M 353.749091 256.32 
L 372.010909 256.32 
L 372.010909 220.376106 
L 353.749091 220.376106 
z
" clip-path="url(#pc6651eba7d)" style="fill: #1f77b4; fill-opacity: 0.5; stroke: #000000; stroke-linejoin: miter"/>
   </g>
   <g id="patch_62">
    <path d="M 372.010909 256.32 
L 390.272727 256.32 
L 390.272727 211.093892 
L 372.010909 211.093892 
z
" clip-path="url(#pc6651eba7d)" style="fill: #1f77b4; fill-opacity: 0.5; stroke: #000000; stroke-linejoin: miter"/>
   </g>
   <g id="patch_63">
    <path d="M 390.272727 256.32 
L 408.534545 256.32 
L 408.534545 213.582315 
L 390.272727 213.582315 
z
" clip-path="url(#pc6651eba7d)" style="fill: #1f77b4; fill-opacity: 0.5; stroke: #000000; stroke-linejoin: miter"/>
   </g>
   <g id="patch_64">
    <path d="M 408.534545 256.32 
L 426.796364 256.32 
L 426.796364 178.467896 
L 408.534545 178.467896 
z
" clip-path="url(#pc6651eba7d)" style="fill: #1f77b4; fill-opacity: 0.5; stroke: #000000; stroke-linejoin: miter"/>
   </g>
   <g id="patch_65">
    <path d="M 426.796364 256.32 
L 445.058182 256.32 
L 445.058182 155.045117 
L 426.796364 155.045117 
z
" clip-path="url(#pc6651eba7d)" style="fill: #1f77b4; fill-opacity: 0.5; stroke: #000000; stroke-linejoin: miter"/>
   </g>
   <g id="patch_66">
    <path d="M 445.058182 256.32 
L 463.32 256.32 
L 463.32 145.249418 
L 445.058182 145.249418 
z
" clip-path="url(#pc6651eba7d)" style="fill: #1f77b4; fill-opacity: 0.5; stroke: #000000; stroke-linejoin: miter"/>
   </g>
   <g id="patch_67">
    <path d="M 463.32 256.32 
L 481.581818 256.32 
L 481.581818 163.576854 
L 463.32 163.576854 
z
" clip-path="url(#pc6651eba7d)" style="fill: #1f77b4; fill-opacity: 0.5; stroke: #000000; stroke-linejoin: miter"/>
   </g>
   <g id="patch_68">
    <path d="M 481.581818 256.32 
L 499.843636 256.32 
L 499.843636 135.848708 
L 481.581818 135.848708 
z
" clip-path="url(#pc6651eba7d)" style="fill: #1f77b4; fill-opacity: 0.5; stroke: #000000; stroke-linejoin: miter"/>
   </g>
   <g id="patch_69">
    <path d="M 499.843636 256.32 
L 518.105455 256.32 
L 518.105455 145.604907 
L 499.843636 145.604907 
z
" clip-path="url(#pc6651eba7d)" style="fill: #1f77b4; fill-opacity: 0.5; stroke: #000000; stroke-linejoin: miter"/>
   </g>
   <g id="patch_70">
    <path d="M 518.105455 256.32 
L 536.367273 256.32 
L 536.367273 163.892845 
L 518.105455 163.892845 
z
" clip-path="url(#pc6651eba7d)" style="fill: #1f77b4; fill-opacity: 0.5; stroke: #000000; stroke-linejoin: miter"/>
   </g>
   <g id="patch_71">
    <path d="M 536.367273 256.32 
L 554.629091 256.32 
L 554.629091 130.91136 
L 536.367273 130.91136 
z
" clip-path="url(#pc6651eba7d)" style="fill: #1f77b4; fill-opacity: 0.5; stroke: #000000; stroke-linejoin: miter"/>
   </g>
   <g id="patch_72">
    <path d="M 554.629091 256.32 
L 572.890909 256.32 
L 572.890909 146.039394 
L 554.629091 146.039394 
z
" clip-path="url(#pc6651eba7d)" style="fill: #1f77b4; fill-opacity: 0.5; stroke: #000000; stroke-linejoin: miter"/>
   </g>
   <g id="patch_73">
    <path d="M 572.890909 256.32 
L 591.152727 256.32 
L 591.152727 118.271749 
L 572.890909 118.271749 
z
" clip-path="url(#pc6651eba7d)" style="fill: #1f77b4; fill-opacity: 0.5; stroke: #000000; stroke-linejoin: miter"/>
   </g>
   <g id="patch_74">
    <path d="M 591.152727 256.32 
L 609.414545 256.32 
L 609.414545 130.002888 
L 591.152727 130.002888 
z
" clip-path="url(#pc6651eba7d)" style="fill: #1f77b4; fill-opacity: 0.5; stroke: #000000; stroke-linejoin: miter"/>
   </g>
   <g id="patch_75">
    <path d="M 609.414545 256.32 
L 627.676364 256.32 
L 627.676364 114.716858 
L 609.414545 114.716858 
z
" clip-path="url(#pc6651eba7d)" style="fill: #1f77b4; fill-opacity: 0.5; stroke: #000000; stroke-linejoin: miter"/>
   </g>
   <g id="patch_76">
    <path d="M 627.676364 256.32 
L 645.938182 256.32 
L 645.938182 95.954935 
L 627.676364 95.954935 
z
" clip-path="url(#pc6651eba7d)" style="fill: #1f77b4; fill-opacity: 0.5; stroke: #000000; stroke-linejoin: miter"/>
   </g>
   <g id="patch_77">
    <path d="M 645.938182 256.32 
L 664.2 256.32 
L 664.2 171.358115 
L 645.938182 171.358115 
z
" clip-path="url(#pc6651eba7d)" style="fill: #1f77b4; fill-opacity: 0.5; stroke: #000000; stroke-linejoin: miter"/>
   </g>
   <g id="patch_78">
    <path d="M 664.2 256.32 
L 682.461818 256.32 
L 682.461818 112.899914 
L 664.2 112.899914 
z
" clip-path="url(#pc6651eba7d)" style="fill: #1f77b4; fill-opacity: 0.5; stroke: #000000; stroke-linejoin: miter"/>
   </g>
   <g id="patch_79">
    <path d="M 682.461818 256.32 
L 700.723636 256.32 
L 700.723636 153.899652 
L 682.461818 153.899652 
z
" clip-path="url(#pc6651eba7d)" style="fill: #1f77b4; fill-opacity: 0.5; stroke: #000000; stroke-linejoin: miter"/>
   </g>
   <g id="patch_80">
    <path d="M 700.723636 256.32 
L 718.985455 256.32 
L 718.985455 164.880314 
L 700.723636 164.880314 
z
" clip-path="url(#pc6651eba7d)" style="fill: #1f77b4; fill-opacity: 0.5; stroke: #000000; stroke-linejoin: miter"/>
   </g>
   <g id="patch_81">
    <path d="M 718.985455 256.32 
L 737.247273 256.32 
L 737.247273 154.926621 
L 718.985455 154.926621 
z
" clip-path="url(#pc6651eba7d)" style="fill: #1f77b4; fill-opacity: 0.5; stroke: #000000; stroke-linejoin: miter"/>
   </g>
   <g id="patch_82">
    <path d="M 737.247273 256.32 
L 755.509091 256.32 
L 755.509091 158.086523 
L 737.247273 158.086523 
z
" clip-path="url(#pc6651eba7d)" style="fill: #1f77b4; fill-opacity: 0.5; stroke: #000000; stroke-linejoin: miter"/>
   </g>
   <g id="patch_83">
    <path d="M 755.509091 256.32 
L 773.770909 256.32 
L 773.770909 79.128453 
L 755.509091 79.128453 
z
" clip-path="url(#pc6651eba7d)" style="fill: #1f77b4; fill-opacity: 0.5; stroke: #000000; stroke-linejoin: miter"/>
   </g>
   <g id="patch_84">
    <path d="M 773.770909 256.32 
L 792.032727 256.32 
L 792.032727 111.240965 
L 773.770909 111.240965 
z
" clip-path="url(#pc6651eba7d)" style="fill: #1f77b4; fill-opacity: 0.5; stroke: #000000; stroke-linejoin: miter"/>
   </g>
   <g id="patch_85">
    <path d="M 792.032727 256.32 
L 810.294545 256.32 
L 810.294545 116.415306 
L 792.032727 116.415306 
z
" clip-path="url(#pc6651eba7d)" style="fill: #1f77b4; fill-opacity: 0.5; stroke: #000000; stroke-linejoin: miter"/>
   </g>
   <g id="patch_86">
    <path d="M 810.294545 256.32 
L 828.556364 256.32 
L 828.556364 136.362192 
L 810.294545 136.362192 
z
" clip-path="url(#pc6651eba7d)" style="fill: #1f77b4; fill-opacity: 0.5; stroke: #000000; stroke-linejoin: miter"/>
   </g>
   <g id="patch_87">
    <path d="M 828.556364 256.32 
L 846.818182 256.32 
L 846.818182 130.595369 
L 828.556364 130.595369 
z
" clip-path="url(#pc6651eba7d)" style="fill: #1f77b4; fill-opacity: 0.5; stroke: #000000; stroke-linejoin: miter"/>
   </g>
   <g id="patch_88">
    <path d="M 846.818182 256.32 
L 865.08 256.32 
L 865.08 45.12 
L 846.818182 45.12 
z
" clip-path="url(#pc6651eba7d)" style="fill: #1f77b4; fill-opacity: 0.5; stroke: #000000; stroke-linejoin: miter"/>
   </g>
   <g id="patch_89">
    <path d="M 865.08 256.32 
L 883.341818 256.32 
L 883.341818 139.364099 
L 865.08 139.364099 
z
" clip-path="url(#pc6651eba7d)" style="fill: #1f77b4; fill-opacity: 0.5; stroke: #000000; stroke-linejoin: miter"/>
   </g>
   <g id="patch_90">
    <path d="M 883.341818 256.32 
L 901.603636 256.32 
L 901.603636 140.272572 
L 883.341818 140.272572 
z
" clip-path="url(#pc6651eba7d)" style="fill: #1f77b4; fill-opacity: 0.5; stroke: #000000; stroke-linejoin: miter"/>
   </g>
   <g id="patch_91">
    <path d="M 901.603636 256.32 
L 919.865455 256.32 
L 919.865455 144.53844 
L 901.603636 144.53844 
z
" clip-path="url(#pc6651eba7d)" style="fill: #1f77b4; fill-opacity: 0.5; stroke: #000000; stroke-linejoin: miter"/>
   </g>
   <g id="patch_92">
    <path d="M 919.865455 256.32 
L 938.127273 256.32 
L 938.127273 138.929613 
L 919.865455 138.929613 
z
" clip-path="url(#pc6651eba7d)" style="fill: #1f77b4; fill-opacity: 0.5; stroke: #000000; stroke-linejoin: miter"/>
   </g>
   <g id="patch_93">
    <path d="M 938.127273 256.32 
L 956.389091 256.32 
L 956.389091 94.335485 
L 938.127273 94.335485 
z
" clip-path="url(#pc6651eba7d)" style="fill: #1f77b4; fill-opacity: 0.5; stroke: #000000; stroke-linejoin: miter"/>
   </g>
   <g id="patch_94">
    <path d="M 956.389091 256.32 
L 974.650909 256.32 
L 974.650909 126.645491 
L 956.389091 126.645491 
z
" clip-path="url(#pc6651eba7d)" style="fill: #1f77b4; fill-opacity: 0.5; stroke: #000000; stroke-linejoin: miter"/>
   </g>
   <g id="patch_95">
    <path d="M 974.650909 256.32 
L 992.912727 256.32 
L 992.912727 114.716858 
L 974.650909 114.716858 
z
" clip-path="url(#pc6651eba7d)" style="fill: #1f77b4; fill-opacity: 0.5; stroke: #000000; stroke-linejoin: miter"/>
   </g>
   <g id="patch_96">
    <path d="M 992.912727 256.32 
L 1011.174545 256.32 
L 1011.174545 106.027125 
L 992.912727 106.027125 
z
" clip-path="url(#pc6651eba7d)" style="fill: #1f77b4; fill-opacity: 0.5; stroke: #000000; stroke-linejoin: miter"/>
   </g>
   <g id="patch_97">
    <path d="M 1011.174545 256.32 
L 1029.436364 256.32 
L 1029.436364 105.23715 
L 1011.174545 105.23715 
z
" clip-path="url(#pc6651eba7d)" style="fill: #1f77b4; fill-opacity: 0.5; stroke: #000000; stroke-linejoin: miter"/>
   </g>
   <g id="patch_98">
    <path d="M 1029.436364 256.32 
L 1047.698182 256.32 
L 1047.698182 97.574386 
L 1029.436364 97.574386 
z
" clip-path="url(#pc6651eba7d)" style="fill: #1f77b4; fill-opacity: 0.5; stroke: #000000; stroke-linejoin: miter"/>
   </g>
   <g id="patch_99">
    <path d="M 1047.698182 256.32 
L 1065.96 256.32 
L 1065.96 155.874591 
L 1047.698182 155.874591 
z
" clip-path="url(#pc6651eba7d)" style="fill: #1f77b4; fill-opacity: 0.5; stroke: #000000; stroke-linejoin: miter"/>
   </g>
   <g id="patch_100">
    <path d="M 1065.96 256.32 
L 1084.221818 256.32 
L 1084.221818 220.218111 
L 1065.96 220.218111 
z
" clip-path="url(#pc6651eba7d)" style="fill: #1f77b4; fill-opacity: 0.5; stroke: #000000; stroke-linejoin: miter"/>
   </g>
   <g id="patch_101">
    <path d="M 1084.221818 256.32 
L 1102.483636 256.32 
L 1102.483636 219.112145 
L 1084.221818 219.112145 
z
" clip-path="url(#pc6651eba7d)" style="fill: #1f77b4; fill-opacity: 0.5; stroke: #000000; stroke-linejoin: miter"/>
   </g>
   <g id="patch_102">
    <path d="M 1102.483636 256.32 
L 1120.745455 256.32 
L 1120.745455 202.404159 
L 1102.483636 202.404159 
z
" clip-path="url(#pc6651eba7d)" style="fill: #1f77b4; fill-opacity: 0.5; stroke: #000000; stroke-linejoin: miter"/>
   </g>
   <g id="matplotlib.axis_1">
    <g id="xtick_1">
     <g id="line2d_1">
      <defs>
       <path id="m1aed9853b5" d="M 0 0 
L 0 3.5 
" style="stroke: #000000; stroke-width: 0.8"/>
      </defs>
      <g>
       <use xlink:href="#m1aed9853b5" x="207.601672" y="256.32" style="stroke: #000000; stroke-width: 0.8"/>
      </g>
     </g>
     <g id="text_1">
      <!-- 0 -->
      <g transform="translate(204.420422 270.918437) scale(0.1 -0.1)">
       <defs>
        <path id="DejaVuSans-30" d="M 2034 4250 
Q 1547 4250 1301 3770 
Q 1056 3291 1056 2328 
Q 1056 1369 1301 889 
Q 1547 409 2034 409 
Q 2525 409 2770 889 
Q 3016 1369 3016 2328 
Q 3016 3291 2770 3770 
Q 2525 4250 2034 4250 
z
M 2034 4750 
Q 2819 4750 3233 4129 
Q 3647 3509 3647 2328 
Q 3647 1150 3233 529 
Q 2819 -91 2034 -91 
Q 1250 -91 836 529 
Q 422 1150 422 2328 
Q 422 3509 836 4129 
Q 1250 4750 2034 4750 
z
" transform="scale(0.015625)"/>
       </defs>
       <use xlink:href="#DejaVuSans-30"/>
      </g>
     </g>
    </g>
    <g id="xtick_2">
     <g id="line2d_2">
      <g>
       <use xlink:href="#m1aed9853b5" x="321.748937" y="256.32" style="stroke: #000000; stroke-width: 0.8"/>
      </g>
     </g>
     <g id="text_2">
      <!-- 25000 -->
      <g transform="translate(305.842687 270.918437) scale(0.1 -0.1)">
       <defs>
        <path id="DejaVuSans-32" d="M 1228 531 
L 3431 531 
L 3431 0 
L 469 0 
L 469 531 
Q 828 903 1448 1529 
Q 2069 2156 2228 2338 
Q 2531 2678 2651 2914 
Q 2772 3150 2772 3378 
Q 2772 3750 2511 3984 
Q 2250 4219 1831 4219 
Q 1534 4219 1204 4116 
Q 875 4013 500 3803 
L 500 4441 
Q 881 4594 1212 4672 
Q 1544 4750 1819 4750 
Q 2544 4750 2975 4387 
Q 3406 4025 3406 3419 
Q 3406 3131 3298 2873 
Q 3191 2616 2906 2266 
Q 2828 2175 2409 1742 
Q 1991 1309 1228 531 
z
" transform="scale(0.015625)"/>
        <path id="DejaVuSans-35" d="M 691 4666 
L 3169 4666 
L 3169 4134 
L 1269 4134 
L 1269 2991 
Q 1406 3038 1543 3061 
Q 1681 3084 1819 3084 
Q 2600 3084 3056 2656 
Q 3513 2228 3513 1497 
Q 3513 744 3044 326 
Q 2575 -91 1722 -91 
Q 1428 -91 1123 -41 
Q 819 9 494 109 
L 494 744 
Q 775 591 1075 516 
Q 1375 441 1709 441 
Q 2250 441 2565 725 
Q 2881 1009 2881 1497 
Q 2881 1984 2565 2268 
Q 2250 2553 1709 2553 
Q 1456 2553 1204 2497 
Q 953 2441 691 2322 
L 691 4666 
z
" transform="scale(0.015625)"/>
       </defs>
       <use xlink:href="#DejaVuSans-32"/>
       <use xlink:href="#DejaVuSans-35" x="63.623047"/>
       <use xlink:href="#DejaVuSans-30" x="127.246094"/>
       <use xlink:href="#DejaVuSans-30" x="190.869141"/>
       <use xlink:href="#DejaVuSans-30" x="254.492188"/>
      </g>
     </g>
    </g>
    <g id="xtick_3">
     <g id="line2d_3">
      <g>
       <use xlink:href="#m1aed9853b5" x="435.896202" y="256.32" style="stroke: #000000; stroke-width: 0.8"/>
      </g>
     </g>
     <g id="text_3">
      <!-- 50000 -->
      <g transform="translate(419.989952 270.918437) scale(0.1 -0.1)">
       <use xlink:href="#DejaVuSans-35"/>
       <use xlink:href="#DejaVuSans-30" x="63.623047"/>
       <use xlink:href="#DejaVuSans-30" x="127.246094"/>
       <use xlink:href="#DejaVuSans-30" x="190.869141"/>
       <use xlink:href="#DejaVuSans-30" x="254.492188"/>
      </g>
     </g>
    </g>
    <g id="xtick_4">
     <g id="line2d_4">
      <g>
       <use xlink:href="#m1aed9853b5" x="550.043467" y="256.32" style="stroke: #000000; stroke-width: 0.8"/>
      </g>
     </g>
     <g id="text_4">
      <!-- 75000 -->
      <g transform="translate(534.137217 270.918437) scale(0.1 -0.1)">
       <defs>
        <path id="DejaVuSans-37" d="M 525 4666 
L 3525 4666 
L 3525 4397 
L 1831 0 
L 1172 0 
L 2766 4134 
L 525 4134 
L 525 4666 
z
" transform="scale(0.015625)"/>
       </defs>
       <use xlink:href="#DejaVuSans-37"/>
       <use xlink:href="#DejaVuSans-35" x="63.623047"/>
       <use xlink:href="#DejaVuSans-30" x="127.246094"/>
       <use xlink:href="#DejaVuSans-30" x="190.869141"/>
       <use xlink:href="#DejaVuSans-30" x="254.492188"/>
      </g>
     </g>
    </g>
    <g id="xtick_5">
     <g id="line2d_5">
      <g>
       <use xlink:href="#m1aed9853b5" x="664.190731" y="256.32" style="stroke: #000000; stroke-width: 0.8"/>
      </g>
     </g>
     <g id="text_5">
      <!-- 100000 -->
      <g transform="translate(645.103231 270.918437) scale(0.1 -0.1)">
       <defs>
        <path id="DejaVuSans-31" d="M 794 531 
L 1825 531 
L 1825 4091 
L 703 3866 
L 703 4441 
L 1819 4666 
L 2450 4666 
L 2450 531 
L 3481 531 
L 3481 0 
L 794 0 
L 794 531 
z
" transform="scale(0.015625)"/>
       </defs>
       <use xlink:href="#DejaVuSans-31"/>
       <use xlink:href="#DejaVuSans-30" x="63.623047"/>
       <use xlink:href="#DejaVuSans-30" x="127.246094"/>
       <use xlink:href="#DejaVuSans-30" x="190.869141"/>
       <use xlink:href="#DejaVuSans-30" x="254.492188"/>
       <use xlink:href="#DejaVuSans-30" x="318.115234"/>
      </g>
     </g>
    </g>
    <g id="xtick_6">
     <g id="line2d_6">
      <g>
       <use xlink:href="#m1aed9853b5" x="778.337996" y="256.32" style="stroke: #000000; stroke-width: 0.8"/>
      </g>
     </g>
     <g id="text_6">
      <!-- 125000 -->
      <g transform="translate(759.250496 270.918437) scale(0.1 -0.1)">
       <use xlink:href="#DejaVuSans-31"/>
       <use xlink:href="#DejaVuSans-32" x="63.623047"/>
       <use xlink:href="#DejaVuSans-35" x="127.246094"/>
       <use xlink:href="#DejaVuSans-30" x="190.869141"/>
       <use xlink:href="#DejaVuSans-30" x="254.492188"/>
       <use xlink:href="#DejaVuSans-30" x="318.115234"/>
      </g>
     </g>
    </g>
    <g id="xtick_7">
     <g id="line2d_7">
      <g>
       <use xlink:href="#m1aed9853b5" x="892.485261" y="256.32" style="stroke: #000000; stroke-width: 0.8"/>
      </g>
     </g>
     <g id="text_7">
      <!-- 150000 -->
      <g transform="translate(873.397761 270.918437) scale(0.1 -0.1)">
       <use xlink:href="#DejaVuSans-31"/>
       <use xlink:href="#DejaVuSans-35" x="63.623047"/>
       <use xlink:href="#DejaVuSans-30" x="127.246094"/>
       <use xlink:href="#DejaVuSans-30" x="190.869141"/>
       <use xlink:href="#DejaVuSans-30" x="254.492188"/>
       <use xlink:href="#DejaVuSans-30" x="318.115234"/>
      </g>
     </g>
    </g>
    <g id="xtick_8">
     <g id="line2d_8">
      <g>
       <use xlink:href="#m1aed9853b5" x="1006.632525" y="256.32" style="stroke: #000000; stroke-width: 0.8"/>
      </g>
     </g>
     <g id="text_8">
      <!-- 175000 -->
      <g transform="translate(987.545025 270.918437) scale(0.1 -0.1)">
       <use xlink:href="#DejaVuSans-31"/>
       <use xlink:href="#DejaVuSans-37" x="63.623047"/>
       <use xlink:href="#DejaVuSans-35" x="127.246094"/>
       <use xlink:href="#DejaVuSans-30" x="190.869141"/>
       <use xlink:href="#DejaVuSans-30" x="254.492188"/>
       <use xlink:href="#DejaVuSans-30" x="318.115234"/>
      </g>
     </g>
    </g>
    <g id="xtick_9">
     <g id="line2d_9">
      <g>
       <use xlink:href="#m1aed9853b5" x="1120.77979" y="256.32" style="stroke: #000000; stroke-width: 0.8"/>
      </g>
     </g>
     <g id="text_9">
      <!-- 200000 -->
      <g transform="translate(1101.69229 270.918437) scale(0.1 -0.1)">
       <use xlink:href="#DejaVuSans-32"/>
       <use xlink:href="#DejaVuSans-30" x="63.623047"/>
       <use xlink:href="#DejaVuSans-30" x="127.246094"/>
       <use xlink:href="#DejaVuSans-30" x="190.869141"/>
       <use xlink:href="#DejaVuSans-30" x="254.492188"/>
       <use xlink:href="#DejaVuSans-30" x="318.115234"/>
      </g>
     </g>
    </g>
    <g id="text_10">
     <!-- EstimatedSalary -->
     <g transform="translate(623.235156 284.596563) scale(0.1 -0.1)">
      <defs>
       <path id="DejaVuSans-45" d="M 628 4666 
L 3578 4666 
L 3578 4134 
L 1259 4134 
L 1259 2753 
L 3481 2753 
L 3481 2222 
L 1259 2222 
L 1259 531 
L 3634 531 
L 3634 0 
L 628 0 
L 628 4666 
z
" transform="scale(0.015625)"/>
       <path id="DejaVuSans-73" d="M 2834 3397 
L 2834 2853 
Q 2591 2978 2328 3040 
Q 2066 3103 1784 3103 
Q 1356 3103 1142 2972 
Q 928 2841 928 2578 
Q 928 2378 1081 2264 
Q 1234 2150 1697 2047 
L 1894 2003 
Q 2506 1872 2764 1633 
Q 3022 1394 3022 966 
Q 3022 478 2636 193 
Q 2250 -91 1575 -91 
Q 1294 -91 989 -36 
Q 684 19 347 128 
L 347 722 
Q 666 556 975 473 
Q 1284 391 1588 391 
Q 1994 391 2212 530 
Q 2431 669 2431 922 
Q 2431 1156 2273 1281 
Q 2116 1406 1581 1522 
L 1381 1569 
Q 847 1681 609 1914 
Q 372 2147 372 2553 
Q 372 3047 722 3315 
Q 1072 3584 1716 3584 
Q 2034 3584 2315 3537 
Q 2597 3491 2834 3397 
z
" transform="scale(0.015625)"/>
       <path id="DejaVuSans-74" d="M 1172 4494 
L 1172 3500 
L 2356 3500 
L 2356 3053 
L 1172 3053 
L 1172 1153 
Q 1172 725 1289 603 
Q 1406 481 1766 481 
L 2356 481 
L 2356 0 
L 1766 0 
Q 1100 0 847 248 
Q 594 497 594 1153 
L 594 3053 
L 172 3053 
L 172 3500 
L 594 3500 
L 594 4494 
L 1172 4494 
z
" transform="scale(0.015625)"/>
       <path id="DejaVuSans-69" d="M 603 3500 
L 1178 3500 
L 1178 0 
L 603 0 
L 603 3500 
z
M 603 4863 
L 1178 4863 
L 1178 4134 
L 603 4134 
L 603 4863 
z
" transform="scale(0.015625)"/>
       <path id="DejaVuSans-6d" d="M 3328 2828 
Q 3544 3216 3844 3400 
Q 4144 3584 4550 3584 
Q 5097 3584 5394 3201 
Q 5691 2819 5691 2113 
L 5691 0 
L 5113 0 
L 5113 2094 
Q 5113 2597 4934 2840 
Q 4756 3084 4391 3084 
Q 3944 3084 3684 2787 
Q 3425 2491 3425 1978 
L 3425 0 
L 2847 0 
L 2847 2094 
Q 2847 2600 2669 2842 
Q 2491 3084 2119 3084 
Q 1678 3084 1418 2786 
Q 1159 2488 1159 1978 
L 1159 0 
L 581 0 
L 581 3500 
L 1159 3500 
L 1159 2956 
Q 1356 3278 1631 3431 
Q 1906 3584 2284 3584 
Q 2666 3584 2933 3390 
Q 3200 3197 3328 2828 
z
" transform="scale(0.015625)"/>
       <path id="DejaVuSans-61" d="M 2194 1759 
Q 1497 1759 1228 1600 
Q 959 1441 959 1056 
Q 959 750 1161 570 
Q 1363 391 1709 391 
Q 2188 391 2477 730 
Q 2766 1069 2766 1631 
L 2766 1759 
L 2194 1759 
z
M 3341 1997 
L 3341 0 
L 2766 0 
L 2766 531 
Q 2569 213 2275 61 
Q 1981 -91 1556 -91 
Q 1019 -91 701 211 
Q 384 513 384 1019 
Q 384 1609 779 1909 
Q 1175 2209 1959 2209 
L 2766 2209 
L 2766 2266 
Q 2766 2663 2505 2880 
Q 2244 3097 1772 3097 
Q 1472 3097 1187 3025 
Q 903 2953 641 2809 
L 641 3341 
Q 956 3463 1253 3523 
Q 1550 3584 1831 3584 
Q 2591 3584 2966 3190 
Q 3341 2797 3341 1997 
z
" transform="scale(0.015625)"/>
       <path id="DejaVuSans-65" d="M 3597 1894 
L 3597 1613 
L 953 1613 
Q 991 1019 1311 708 
Q 1631 397 2203 397 
Q 2534 397 2845 478 
Q 3156 559 3463 722 
L 3463 178 
Q 3153 47 2828 -22 
Q 2503 -91 2169 -91 
Q 1331 -91 842 396 
Q 353 884 353 1716 
Q 353 2575 817 3079 
Q 1281 3584 2069 3584 
Q 2775 3584 3186 3129 
Q 3597 2675 3597 1894 
z
M 3022 2063 
Q 3016 2534 2758 2815 
Q 2500 3097 2075 3097 
Q 1594 3097 1305 2825 
Q 1016 2553 972 2059 
L 3022 2063 
z
" transform="scale(0.015625)"/>
       <path id="DejaVuSans-64" d="M 2906 2969 
L 2906 4863 
L 3481 4863 
L 3481 0 
L 2906 0 
L 2906 525 
Q 2725 213 2448 61 
Q 2172 -91 1784 -91 
Q 1150 -91 751 415 
Q 353 922 353 1747 
Q 353 2572 751 3078 
Q 1150 3584 1784 3584 
Q 2172 3584 2448 3432 
Q 2725 3281 2906 2969 
z
M 947 1747 
Q 947 1113 1208 752 
Q 1469 391 1925 391 
Q 2381 391 2643 752 
Q 2906 1113 2906 1747 
Q 2906 2381 2643 2742 
Q 2381 3103 1925 3103 
Q 1469 3103 1208 2742 
Q 947 2381 947 1747 
z
" transform="scale(0.015625)"/>
       <path id="DejaVuSans-53" d="M 3425 4513 
L 3425 3897 
Q 3066 4069 2747 4153 
Q 2428 4238 2131 4238 
Q 1616 4238 1336 4038 
Q 1056 3838 1056 3469 
Q 1056 3159 1242 3001 
Q 1428 2844 1947 2747 
L 2328 2669 
Q 3034 2534 3370 2195 
Q 3706 1856 3706 1288 
Q 3706 609 3251 259 
Q 2797 -91 1919 -91 
Q 1588 -91 1214 -16 
Q 841 59 441 206 
L 441 856 
Q 825 641 1194 531 
Q 1563 422 1919 422 
Q 2459 422 2753 634 
Q 3047 847 3047 1241 
Q 3047 1584 2836 1778 
Q 2625 1972 2144 2069 
L 1759 2144 
Q 1053 2284 737 2584 
Q 422 2884 422 3419 
Q 422 4038 858 4394 
Q 1294 4750 2059 4750 
Q 2388 4750 2728 4690 
Q 3069 4631 3425 4513 
z
" transform="scale(0.015625)"/>
       <path id="DejaVuSans-6c" d="M 603 4863 
L 1178 4863 
L 1178 0 
L 603 0 
L 603 4863 
z
" transform="scale(0.015625)"/>
       <path id="DejaVuSans-72" d="M 2631 2963 
Q 2534 3019 2420 3045 
Q 2306 3072 2169 3072 
Q 1681 3072 1420 2755 
Q 1159 2438 1159 1844 
L 1159 0 
L 581 0 
L 581 3500 
L 1159 3500 
L 1159 2956 
Q 1341 3275 1631 3429 
Q 1922 3584 2338 3584 
Q 2397 3584 2469 3576 
Q 2541 3569 2628 3553 
L 2631 2963 
z
" transform="scale(0.015625)"/>
       <path id="DejaVuSans-79" d="M 2059 -325 
Q 1816 -950 1584 -1140 
Q 1353 -1331 966 -1331 
L 506 -1331 
L 506 -850 
L 844 -850 
Q 1081 -850 1212 -737 
Q 1344 -625 1503 -206 
L 1606 56 
L 191 3500 
L 800 3500 
L 1894 763 
L 2988 3500 
L 3597 3500 
L 2059 -325 
z
" transform="scale(0.015625)"/>
      </defs>
      <use xlink:href="#DejaVuSans-45"/>
      <use xlink:href="#DejaVuSans-73" x="63.183594"/>
      <use xlink:href="#DejaVuSans-74" x="115.283203"/>
      <use xlink:href="#DejaVuSans-69" x="154.492188"/>
      <use xlink:href="#DejaVuSans-6d" x="182.275391"/>
      <use xlink:href="#DejaVuSans-61" x="279.6875"/>
      <use xlink:href="#DejaVuSans-74" x="340.966797"/>
      <use xlink:href="#DejaVuSans-65" x="380.175781"/>
      <use xlink:href="#DejaVuSans-64" x="441.699219"/>
      <use xlink:href="#DejaVuSans-53" x="505.175781"/>
      <use xlink:href="#DejaVuSans-61" x="568.652344"/>
      <use xlink:href="#DejaVuSans-6c" x="629.931641"/>
      <use xlink:href="#DejaVuSans-61" x="657.714844"/>
      <use xlink:href="#DejaVuSans-72" x="718.994141"/>
      <use xlink:href="#DejaVuSans-79" x="760.107422"/>
     </g>
    </g>
   </g>
   <g id="matplotlib.axis_2">
    <g id="ytick_1">
     <g id="line2d_10">
      <defs>
       <path id="m08f5686b17" d="M 0 0 
L -3.5 0 
" style="stroke: #000000; stroke-width: 0.8"/>
      </defs>
      <g>
       <use xlink:href="#m08f5686b17" x="162" y="256.32" style="stroke: #000000; stroke-width: 0.8"/>
      </g>
     </g>
     <g id="text_11">
      <!-- 0 -->
      <g transform="translate(148.6375 260.119219) scale(0.1 -0.1)">
       <use xlink:href="#DejaVuSans-30"/>
      </g>
     </g>
    </g>
    <g id="ytick_2">
     <g id="line2d_11">
      <g>
       <use xlink:href="#m08f5686b17" x="162" y="216.821216" style="stroke: #000000; stroke-width: 0.8"/>
      </g>
     </g>
     <g id="text_12">
      <!-- 1000 -->
      <g transform="translate(129.55 220.620434) scale(0.1 -0.1)">
       <use xlink:href="#DejaVuSans-31"/>
       <use xlink:href="#DejaVuSans-30" x="63.623047"/>
       <use xlink:href="#DejaVuSans-30" x="127.246094"/>
       <use xlink:href="#DejaVuSans-30" x="190.869141"/>
      </g>
     </g>
    </g>
    <g id="ytick_3">
     <g id="line2d_12">
      <g>
       <use xlink:href="#m08f5686b17" x="162" y="177.322431" style="stroke: #000000; stroke-width: 0.8"/>
      </g>
     </g>
     <g id="text_13">
      <!-- 2000 -->
      <g transform="translate(129.55 181.12165) scale(0.1 -0.1)">
       <use xlink:href="#DejaVuSans-32"/>
       <use xlink:href="#DejaVuSans-30" x="63.623047"/>
       <use xlink:href="#DejaVuSans-30" x="127.246094"/>
       <use xlink:href="#DejaVuSans-30" x="190.869141"/>
      </g>
     </g>
    </g>
    <g id="ytick_4">
     <g id="line2d_13">
      <g>
       <use xlink:href="#m08f5686b17" x="162" y="137.823647" style="stroke: #000000; stroke-width: 0.8"/>
      </g>
     </g>
     <g id="text_14">
      <!-- 3000 -->
      <g transform="translate(129.55 141.622866) scale(0.1 -0.1)">
       <defs>
        <path id="DejaVuSans-33" d="M 2597 2516 
Q 3050 2419 3304 2112 
Q 3559 1806 3559 1356 
Q 3559 666 3084 287 
Q 2609 -91 1734 -91 
Q 1441 -91 1130 -33 
Q 819 25 488 141 
L 488 750 
Q 750 597 1062 519 
Q 1375 441 1716 441 
Q 2309 441 2620 675 
Q 2931 909 2931 1356 
Q 2931 1769 2642 2001 
Q 2353 2234 1838 2234 
L 1294 2234 
L 1294 2753 
L 1863 2753 
Q 2328 2753 2575 2939 
Q 2822 3125 2822 3475 
Q 2822 3834 2567 4026 
Q 2313 4219 1838 4219 
Q 1578 4219 1281 4162 
Q 984 4106 628 3988 
L 628 4550 
Q 988 4650 1302 4700 
Q 1616 4750 1894 4750 
Q 2613 4750 3031 4423 
Q 3450 4097 3450 3541 
Q 3450 3153 3228 2886 
Q 3006 2619 2597 2516 
z
" transform="scale(0.015625)"/>
       </defs>
       <use xlink:href="#DejaVuSans-33"/>
       <use xlink:href="#DejaVuSans-30" x="63.623047"/>
       <use xlink:href="#DejaVuSans-30" x="127.246094"/>
       <use xlink:href="#DejaVuSans-30" x="190.869141"/>
      </g>
     </g>
    </g>
    <g id="ytick_5">
     <g id="line2d_14">
      <g>
       <use xlink:href="#m08f5686b17" x="162" y="98.324863" style="stroke: #000000; stroke-width: 0.8"/>
      </g>
     </g>
     <g id="text_15">
      <!-- 4000 -->
      <g transform="translate(129.55 102.124081) scale(0.1 -0.1)">
       <defs>
        <path id="DejaVuSans-34" d="M 2419 4116 
L 825 1625 
L 2419 1625 
L 2419 4116 
z
M 2253 4666 
L 3047 4666 
L 3047 1625 
L 3713 1625 
L 3713 1100 
L 3047 1100 
L 3047 0 
L 2419 0 
L 2419 1100 
L 313 1100 
L 313 1709 
L 2253 4666 
z
" transform="scale(0.015625)"/>
       </defs>
       <use xlink:href="#DejaVuSans-34"/>
       <use xlink:href="#DejaVuSans-30" x="63.623047"/>
       <use xlink:href="#DejaVuSans-30" x="127.246094"/>
       <use xlink:href="#DejaVuSans-30" x="190.869141"/>
      </g>
     </g>
    </g>
    <g id="ytick_6">
     <g id="line2d_15">
      <g>
       <use xlink:href="#m08f5686b17" x="162" y="58.826078" style="stroke: #000000; stroke-width: 0.8"/>
      </g>
     </g>
     <g id="text_16">
      <!-- 5000 -->
      <g transform="translate(129.55 62.625297) scale(0.1 -0.1)">
       <use xlink:href="#DejaVuSans-35"/>
       <use xlink:href="#DejaVuSans-30" x="63.623047"/>
       <use xlink:href="#DejaVuSans-30" x="127.246094"/>
       <use xlink:href="#DejaVuSans-30" x="190.869141"/>
      </g>
     </g>
    </g>
    <g id="text_17">
     <!-- Count -->
     <g transform="translate(123.470313 160.288437) rotate(-90) scale(0.1 -0.1)">
      <defs>
       <path id="DejaVuSans-43" d="M 4122 4306 
L 4122 3641 
Q 3803 3938 3442 4084 
Q 3081 4231 2675 4231 
Q 1875 4231 1450 3742 
Q 1025 3253 1025 2328 
Q 1025 1406 1450 917 
Q 1875 428 2675 428 
Q 3081 428 3442 575 
Q 3803 722 4122 1019 
L 4122 359 
Q 3791 134 3420 21 
Q 3050 -91 2638 -91 
Q 1578 -91 968 557 
Q 359 1206 359 2328 
Q 359 3453 968 4101 
Q 1578 4750 2638 4750 
Q 3056 4750 3426 4639 
Q 3797 4528 4122 4306 
z
" transform="scale(0.015625)"/>
       <path id="DejaVuSans-6f" d="M 1959 3097 
Q 1497 3097 1228 2736 
Q 959 2375 959 1747 
Q 959 1119 1226 758 
Q 1494 397 1959 397 
Q 2419 397 2687 759 
Q 2956 1122 2956 1747 
Q 2956 2369 2687 2733 
Q 2419 3097 1959 3097 
z
M 1959 3584 
Q 2709 3584 3137 3096 
Q 3566 2609 3566 1747 
Q 3566 888 3137 398 
Q 2709 -91 1959 -91 
Q 1206 -91 779 398 
Q 353 888 353 1747 
Q 353 2609 779 3096 
Q 1206 3584 1959 3584 
z
" transform="scale(0.015625)"/>
       <path id="DejaVuSans-75" d="M 544 1381 
L 544 3500 
L 1119 3500 
L 1119 1403 
Q 1119 906 1312 657 
Q 1506 409 1894 409 
Q 2359 409 2629 706 
Q 2900 1003 2900 1516 
L 2900 3500 
L 3475 3500 
L 3475 0 
L 2900 0 
L 2900 538 
Q 2691 219 2414 64 
Q 2138 -91 1772 -91 
Q 1169 -91 856 284 
Q 544 659 544 1381 
z
M 1991 3584 
L 1991 3584 
z
" transform="scale(0.015625)"/>
       <path id="DejaVuSans-6e" d="M 3513 2113 
L 3513 0 
L 2938 0 
L 2938 2094 
Q 2938 2591 2744 2837 
Q 2550 3084 2163 3084 
Q 1697 3084 1428 2787 
Q 1159 2491 1159 1978 
L 1159 0 
L 581 0 
L 581 3500 
L 1159 3500 
L 1159 2956 
Q 1366 3272 1645 3428 
Q 1925 3584 2291 3584 
Q 2894 3584 3203 3211 
Q 3513 2838 3513 2113 
z
" transform="scale(0.015625)"/>
      </defs>
      <use xlink:href="#DejaVuSans-43"/>
      <use xlink:href="#DejaVuSans-6f" x="69.824219"/>
      <use xlink:href="#DejaVuSans-75" x="131.005859"/>
      <use xlink:href="#DejaVuSans-6e" x="194.384766"/>
      <use xlink:href="#DejaVuSans-74" x="257.763672"/>
     </g>
    </g>
   </g>
   <g id="line2d_16">
    <path d="M 207.654545 248.541618 
L 216.831339 247.014816 
L 226.008132 245.828415 
L 235.184925 245.056371 
L 244.361718 244.679361 
L 253.538511 244.612517 
L 267.3037 244.845431 
L 285.657286 245.218639 
L 299.422476 245.247073 
L 326.952855 245.071912 
L 336.129648 245.251285 
L 363.660027 246.110945 
L 372.83682 245.952576 
L 377.425217 245.692159 
L 382.013614 245.291575 
L 386.60201 244.742215 
L 391.190407 244.040674 
L 395.778803 243.189052 
L 400.3672 242.195161 
L 409.543993 239.840764 
L 418.720786 237.151904 
L 432.485975 233.030115 
L 441.662768 230.602368 
L 446.251165 229.56506 
L 450.839561 228.668489 
L 455.427958 227.921744 
L 460.016354 227.327611 
L 464.604751 226.88332 
L 469.193148 226.581541 
L 473.781544 226.4114 
L 482.958337 226.409802 
L 492.13513 226.74772 
L 519.665509 228.240454 
L 528.842302 228.433566 
L 538.019095 228.355418 
L 547.195889 228.015398 
L 556.372682 227.451183 
L 570.137871 226.288698 
L 597.66825 223.637151 
L 606.845043 223.023275 
L 616.021836 222.750371 
L 620.610233 222.771347 
L 629.787026 223.144537 
L 638.963819 223.904249 
L 652.729009 225.427975 
L 666.494198 226.862782 
L 675.670991 227.571402 
L 684.847784 228.040278 
L 694.024577 228.259299 
L 703.20137 228.199043 
L 712.378164 227.81393 
L 721.554957 227.080559 
L 730.73175 226.039087 
L 762.850525 221.918858 
L 772.027318 221.116495 
L 785.792508 220.247885 
L 817.911284 218.438678 
L 831.676473 217.683565 
L 840.853266 217.371156 
L 850.030059 217.338666 
L 859.206852 217.662243 
L 868.383646 218.344459 
L 877.560439 219.29217 
L 891.325628 220.806858 
L 900.502421 221.552418 
L 905.090818 221.770273 
L 909.679214 221.861681 
L 914.267611 221.817504 
L 918.856007 221.635926 
L 923.444404 221.32228 
L 932.621197 220.349981 
L 941.79799 219.038846 
L 955.56318 216.763605 
L 973.916766 213.746294 
L 983.093559 212.502022 
L 987.681955 212.019961 
L 992.270352 211.66763 
L 996.858748 211.473268 
L 1001.447145 211.463467 
L 1006.035541 211.661171 
L 1010.623938 212.083976 
L 1015.212334 212.742914 
L 1019.800731 213.641732 
L 1024.389127 214.776656 
L 1028.977524 216.136524 
L 1033.565921 217.70322 
L 1038.154317 219.452339 
L 1047.33111 223.374341 
L 1074.861489 235.922811 
L 1084.038282 239.538011 
L 1088.626679 241.165224 
L 1097.803472 244.066631 
L 1106.980265 246.555691 
L 1116.157058 248.71514 
L 1120.745455 249.69032 
L 1120.745455 249.69032 
" clip-path="url(#pc6651eba7d)" style="fill: none; stroke: #ff7f0e; stroke-width: 1.5; stroke-linecap: square"/>
   </g>
   <g id="line2d_17">
    <path d="M 207.654545 222.07169 
L 212.242942 217.869188 
L 216.831339 214.340265 
L 221.419735 211.620961 
L 226.008132 209.754949 
L 230.596528 208.700837 
L 235.184925 208.354216 
L 239.773321 208.576617 
L 244.361718 209.222969 
L 248.950114 210.161332 
L 258.126907 212.499944 
L 267.3037 214.959065 
L 271.892097 216.085019 
L 276.480493 217.063938 
L 281.06889 217.832529 
L 285.657286 218.32571 
L 290.245683 218.48373 
L 294.834079 218.263871 
L 299.422476 217.655018 
L 304.010873 216.691392 
L 308.599269 215.460272 
L 317.776062 212.77676 
L 322.364459 211.668501 
L 326.952855 210.917431 
L 331.541252 210.604948 
L 336.129648 210.731487 
L 340.718045 211.216272 
L 354.483234 213.274936 
L 359.071631 213.635454 
L 363.660027 213.658519 
L 368.248424 213.310961 
L 372.83682 212.591062 
L 377.425217 211.505536 
L 382.013614 210.048887 
L 386.60201 208.192501 
L 391.190407 205.887051 
L 395.778803 203.077141 
L 400.3672 199.723267 
L 404.955596 195.824162 
L 409.543993 191.432818 
L 414.132389 186.661614 
L 427.897579 171.859094 
L 432.485975 167.426768 
L 437.074372 163.521672 
L 441.662768 160.230724 
L 446.251165 157.572962 
L 450.839561 155.502927 
L 455.427958 153.924969 
L 460.016354 152.716229 
L 464.604751 151.753995 
L 473.781544 150.226132 
L 478.369941 149.604122 
L 482.958337 149.111138 
L 487.546734 148.799569 
L 492.13513 148.709729 
L 496.723527 148.843667 
L 515.077113 149.960523 
L 519.665509 149.774047 
L 524.253906 149.229324 
L 528.842302 148.328685 
L 533.430699 147.119775 
L 538.019095 145.672422 
L 542.607492 144.053489 
L 551.784285 140.461573 
L 560.961078 136.478731 
L 579.314664 128.137247 
L 583.903061 126.286962 
L 588.491457 124.613091 
L 593.079854 123.115467 
L 597.66825 121.778715 
L 602.256647 120.592548 
L 606.845043 119.574103 
L 611.43344 118.783477 
L 616.021836 118.324861 
L 620.610233 118.329679 
L 625.19863 118.924005 
L 629.787026 120.188524 
L 634.375423 122.123266 
L 638.963819 124.629569 
L 643.552216 127.517485 
L 652.729009 133.440164 
L 657.317405 136.014257 
L 661.905802 138.145623 
L 666.494198 139.826311 
L 671.082595 141.144725 
L 684.847784 144.436902 
L 689.436181 145.71114 
L 703.20137 149.901781 
L 707.789767 150.987073 
L 712.378164 151.645619 
L 716.96656 151.729605 
L 721.554957 151.123476 
L 726.143353 149.754416 
L 730.73175 147.601352 
L 735.320146 144.703473 
L 739.908543 141.16684 
L 744.496939 137.165441 
L 753.673732 128.73781 
L 758.262129 124.856163 
L 762.850525 121.525399 
L 767.438922 118.910247 
L 772.027318 117.077833 
L 776.615715 115.993527 
L 781.204111 115.538445 
L 785.792508 115.543243 
L 790.380905 115.827508 
L 804.146094 116.961956 
L 808.734491 117.143047 
L 813.322887 117.125739 
L 817.911284 116.849569 
L 822.49968 116.255923 
L 827.088077 115.309934 
L 831.676473 114.029717 
L 845.441663 109.527163 
L 850.030059 108.570544 
L 854.618456 108.293922 
L 859.206852 108.852344 
L 863.795249 110.288158 
L 868.383646 112.524697 
L 872.972042 115.386483 
L 877.560439 118.6378 
L 886.737232 125.320394 
L 891.325628 128.327013 
L 895.914025 130.897433 
L 900.502421 132.918299 
L 905.090818 134.302236 
L 909.679214 134.984615 
L 914.267611 134.930286 
L 918.856007 134.147651 
L 923.444404 132.702624 
L 928.0328 130.723552 
L 932.621197 128.390893 
L 941.79799 123.480146 
L 946.386386 121.247567 
L 950.974783 119.290737 
L 955.56318 117.608434 
L 964.739973 114.770541 
L 973.916766 112.018607 
L 987.681955 107.769854 
L 992.270352 106.650569 
L 996.858748 105.884895 
L 1001.447145 105.584491 
L 1006.035541 105.84103 
L 1010.623938 106.729972 
L 1015.212334 108.319037 
L 1019.800731 110.67524 
L 1024.389127 113.8654 
L 1028.977524 117.948072 
L 1033.565921 122.958431 
L 1038.154317 128.890472 
L 1042.742714 135.682025 
L 1047.33111 143.207278 
L 1051.919507 151.279344 
L 1065.684696 176.308469 
L 1070.273093 184.062673 
L 1074.861489 191.163959 
L 1079.449886 197.487921 
L 1084.038282 202.99155 
L 1088.626679 207.715982 
L 1093.215075 211.777784 
L 1097.803472 215.34877 
L 1106.980265 221.800845 
L 1116.157058 228.371155 
L 1120.745455 231.862666 
L 1120.745455 231.862666 
" clip-path="url(#pc6651eba7d)" style="fill: none; stroke: #1f77b4; stroke-width: 1.5; stroke-linecap: square"/>
   </g>
   <g id="patch_103">
    <path d="M 162 256.32 
L 162 34.56 
" style="fill: none; stroke: #000000; stroke-width: 0.8; stroke-linejoin: miter; stroke-linecap: square"/>
   </g>
   <g id="patch_104">
    <path d="M 1166.4 256.32 
L 1166.4 34.56 
" style="fill: none; stroke: #000000; stroke-width: 0.8; stroke-linejoin: miter; stroke-linecap: square"/>
   </g>
   <g id="patch_105">
    <path d="M 162 256.32 
L 1166.4 256.32 
" style="fill: none; stroke: #000000; stroke-width: 0.8; stroke-linejoin: miter; stroke-linecap: square"/>
   </g>
   <g id="patch_106">
    <path d="M 162 34.56 
L 1166.4 34.56 
" style="fill: none; stroke: #000000; stroke-width: 0.8; stroke-linejoin: miter; stroke-linecap: square"/>
   </g>
   <g id="legend_1">
    <g id="patch_107">
     <path d="M 1121.0375 86.594375 
L 1159.4 86.594375 
Q 1161.4 86.594375 1161.4 84.594375 
L 1161.4 41.56 
Q 1161.4 39.56 1159.4 39.56 
L 1121.0375 39.56 
Q 1119.0375 39.56 1119.0375 41.56 
L 1119.0375 84.594375 
Q 1119.0375 86.594375 1121.0375 86.594375 
z
" style="fill: #ffffff; opacity: 0.8; stroke: #cccccc; stroke-linejoin: miter"/>
    </g>
    <g id="text_18">
     <!-- Exited -->
     <g transform="translate(1124.5 51.158438) scale(0.1 -0.1)">
      <defs>
       <path id="DejaVuSans-78" d="M 3513 3500 
L 2247 1797 
L 3578 0 
L 2900 0 
L 1881 1375 
L 863 0 
L 184 0 
L 1544 1831 
L 300 3500 
L 978 3500 
L 1906 2253 
L 2834 3500 
L 3513 3500 
z
" transform="scale(0.015625)"/>
      </defs>
      <use xlink:href="#DejaVuSans-45"/>
      <use xlink:href="#DejaVuSans-78" x="63.183594"/>
      <use xlink:href="#DejaVuSans-69" x="122.363281"/>
      <use xlink:href="#DejaVuSans-74" x="150.146484"/>
      <use xlink:href="#DejaVuSans-65" x="189.355469"/>
      <use xlink:href="#DejaVuSans-64" x="250.878906"/>
     </g>
    </g>
    <g id="patch_108">
     <path d="M 1123.0375 65.836563 
L 1143.0375 65.836563 
L 1143.0375 58.836563 
L 1123.0375 58.836563 
z
" style="fill: #1f77b4; fill-opacity: 0.5; stroke: #000000; stroke-linejoin: miter"/>
    </g>
    <g id="text_19">
     <!-- 0 -->
     <g transform="translate(1151.0375 65.836563) scale(0.1 -0.1)">
      <use xlink:href="#DejaVuSans-30"/>
     </g>
    </g>
    <g id="patch_109">
     <path d="M 1123.0375 80.514688 
L 1143.0375 80.514688 
L 1143.0375 73.514688 
L 1123.0375 73.514688 
z
" style="fill: #ff7f0e; fill-opacity: 0.5; stroke: #000000; stroke-linejoin: miter"/>
    </g>
    <g id="text_20">
     <!-- 1 -->
     <g transform="translate(1151.0375 80.514688) scale(0.1 -0.1)">
      <use xlink:href="#DejaVuSans-31"/>
     </g>
    </g>
   </g>
  </g>
 </g>
 <defs>
  <clipPath id="pc6651eba7d">
   <rect x="162" y="34.56" width="1004.4" height="221.76"/>
  </clipPath>
 </defs>
</svg>
